<svg width="197" height="120" viewBox="0 0 197 120" fill="none" xmlns="http://www.w3.org/2000/svg">
<rect x="0.314873" y="0.314873" width="195.62" height="119.022" rx="12.2801" fill="url(#paint0_linear_12_54784)"/>
<path d="M15.4224 21.4213V16.4692H16.5459V21.4213H15.4224ZM13.5081 19.507V18.3835H18.4602V19.507H13.5081ZM23.5384 22.5949H22.1215L24.7013 15.267H26.3401L28.9235 22.5949H27.5066L25.5493 16.7698H25.4921L23.5384 22.5949ZM23.585 19.7217H27.4493V20.788H23.585V19.7217ZM31.7037 22.6915C31.2719 22.6915 30.8855 22.5806 30.5444 22.3588C30.2033 22.1369 29.9337 21.8149 29.7357 21.3927C29.5377 20.9705 29.4387 20.4576 29.4387 19.8541C29.4387 19.2434 29.5389 18.7282 29.7393 18.3084C29.9421 17.8862 30.2152 17.5677 30.5587 17.353C30.9022 17.1359 31.2851 17.0274 31.7073 17.0274C32.0293 17.0274 32.2941 17.0823 32.5016 17.192C32.7091 17.2993 32.8737 17.4293 32.9954 17.582C33.117 17.7323 33.2113 17.8742 33.2781 18.0078H33.3317V15.267H34.6306V22.5949H33.3568V21.729H33.2781C33.2113 21.8626 33.1147 22.0046 32.9882 22.1548C32.8618 22.3027 32.6948 22.4292 32.4873 22.5341C32.2798 22.6391 32.0186 22.6915 31.7037 22.6915ZM32.0651 21.6289C32.3394 21.6289 32.5732 21.5549 32.7664 21.407C32.9596 21.2567 33.1063 21.048 33.2065 20.7808C33.3067 20.5137 33.3568 20.2024 33.3568 19.847C33.3568 19.4915 33.3067 19.1826 33.2065 18.9202C33.1087 18.6578 32.9632 18.4539 32.77 18.3084C32.5791 18.1629 32.3442 18.0901 32.0651 18.0901C31.7764 18.0901 31.5355 18.1652 31.3423 18.3155C31.1491 18.4658 31.0036 18.6733 30.9058 18.9381C30.808 19.2029 30.7591 19.5058 30.7591 19.847C30.7591 20.1905 30.808 20.497 30.9058 20.7665C31.006 21.0337 31.1527 21.2448 31.3459 21.3999C31.5415 21.5525 31.7812 21.6289 32.0651 21.6289ZM38.0504 22.6915C37.6186 22.6915 37.2322 22.5806 36.8911 22.3588C36.5499 22.1369 36.2804 21.8149 36.0824 21.3927C35.8844 20.9705 35.7854 20.4576 35.7854 19.8541C35.7854 19.2434 35.8856 18.7282 36.086 18.3084C36.2887 17.8862 36.5619 17.5677 36.9054 17.353C37.2489 17.1359 37.6317 17.0274 38.0539 17.0274C38.376 17.0274 38.6407 17.0823 38.8483 17.192C39.0558 17.2993 39.2204 17.4293 39.3421 17.582C39.4637 17.7323 39.5579 17.8742 39.6247 18.0078H39.6784V15.267H40.9772V22.5949H39.7034V21.729H39.6247C39.5579 21.8626 39.4613 22.0046 39.3349 22.1548C39.2085 22.3027 39.0415 22.4292 38.834 22.5341C38.6264 22.6391 38.3652 22.6915 38.0504 22.6915ZM38.4117 21.6289C38.6861 21.6289 38.9198 21.5549 39.1131 21.407C39.3063 21.2567 39.453 21.048 39.5532 20.7808C39.6533 20.5137 39.7034 20.2024 39.7034 19.847C39.7034 19.4915 39.6533 19.1826 39.5532 18.9202C39.4554 18.6578 39.3099 18.4539 39.1166 18.3084C38.9258 18.1629 38.6908 18.0901 38.4117 18.0901C38.1231 18.0901 37.8822 18.1652 37.689 18.3155C37.4958 18.4658 37.3502 18.6733 37.2524 18.9381C37.1546 19.2029 37.1057 19.5058 37.1057 19.847C37.1057 20.1905 37.1546 20.497 37.2524 20.7665C37.3526 21.0337 37.4993 21.2448 37.6925 21.3999C37.8881 21.5525 38.1279 21.6289 38.4117 21.6289ZM46.1521 19.3746V22.5949H44.8568V17.099H46.0948V18.0329H46.1592C46.2857 17.7251 46.4872 17.4806 46.7639 17.2993C47.043 17.1181 47.3877 17.0274 47.798 17.0274C48.1773 17.0274 48.5077 17.1085 48.7892 17.2707C49.073 17.4329 49.2925 17.6679 49.4475 17.9756C49.605 18.2833 49.6825 18.6566 49.6801 19.0956V22.5949H48.3848V19.2959C48.3848 18.9286 48.2894 18.6411 48.0986 18.4336C47.9101 18.2261 47.6489 18.1223 47.315 18.1223C47.0884 18.1223 46.8868 18.1724 46.7103 18.2726C46.5361 18.3704 46.399 18.5123 46.2988 18.6984C46.201 18.8844 46.1521 19.1099 46.1521 19.3746ZM53.43 22.7023C52.8789 22.7023 52.403 22.5878 52.0023 22.3588C51.6039 22.1274 51.2974 21.8006 51.0827 21.3784C50.868 20.9538 50.7607 20.454 50.7607 19.8792C50.7607 19.3138 50.868 18.8177 51.0827 18.3907C51.2998 17.9613 51.6027 17.6273 51.9916 17.3888C52.3804 17.1479 52.8372 17.0274 53.362 17.0274C53.7007 17.0274 54.0203 17.0823 54.3209 17.192C54.6239 17.2993 54.891 17.4663 55.1224 17.6929C55.3562 17.9195 55.5398 18.2082 55.6734 18.5588C55.807 18.9071 55.8738 19.3222 55.8738 19.804V20.2012H51.369V19.3281H54.6322C54.6298 19.08 54.5761 18.8594 54.4712 18.6662C54.3662 18.4706 54.2195 18.3167 54.0311 18.2046C53.845 18.0925 53.6279 18.0364 53.3799 18.0364C53.1151 18.0364 52.8825 18.1008 52.6821 18.2296C52.4818 18.3561 52.3255 18.5231 52.2134 18.7306C52.1037 18.9357 52.0476 19.1611 52.0452 19.4068V20.169C52.0452 20.4886 52.1037 20.7629 52.2206 20.9919C52.3374 21.2186 52.5008 21.3927 52.7108 21.5144C52.9207 21.6336 53.1664 21.6933 53.4478 21.6933C53.6363 21.6933 53.8068 21.667 53.9595 21.6145C54.1122 21.5597 54.2446 21.4798 54.3567 21.3748C54.4688 21.2698 54.5535 21.1398 54.6107 20.9848L55.8201 21.1208C55.7438 21.4404 55.5983 21.7195 55.3836 21.958C55.1713 22.1942 54.8994 22.3779 54.5678 22.5091C54.2362 22.6379 53.8569 22.7023 53.43 22.7023ZM58.0743 22.5949L56.5214 17.099H57.8418L58.8079 20.9633H58.8579L59.8455 17.099H61.1515L62.1391 20.9419H62.1927L63.1445 17.099H64.4684L62.9119 22.5949H61.563L60.5325 18.8809H60.4574L59.4269 22.5949H58.0743ZM74.2018 17.7394H72.8635C72.8254 17.52 72.755 17.3256 72.6524 17.1562C72.5499 16.9845 72.4222 16.839 72.2696 16.7197C72.1169 16.6004 71.9428 16.511 71.7472 16.4513C71.554 16.3893 71.3452 16.3583 71.121 16.3583C70.7226 16.3583 70.3696 16.4585 70.0619 16.6589C69.7542 16.8568 69.5132 17.1479 69.3391 17.5319C69.165 17.9136 69.0779 18.3799 69.0779 18.931C69.0779 19.4915 69.165 19.9638 69.3391 20.3479C69.5156 20.7296 69.7566 21.0182 70.0619 21.2138C70.3696 21.407 70.7215 21.5036 71.1174 21.5036C71.3369 21.5036 71.542 21.475 71.7329 21.4177C71.9261 21.3581 72.099 21.271 72.2517 21.1565C72.4067 21.042 72.5367 20.9013 72.6417 20.7343C72.7491 20.5673 72.823 20.3765 72.8635 20.1618L74.2018 20.169C74.1517 20.5173 74.0431 20.8441 73.8762 21.1494C73.7116 21.4547 73.4957 21.7243 73.2285 21.958C72.9614 22.1894 72.6489 22.3707 72.2911 22.5019C71.9332 22.6307 71.5361 22.6951 71.0995 22.6951C70.4555 22.6951 69.8806 22.546 69.3749 22.2479C68.8692 21.9497 68.4708 21.5191 68.1798 20.9562C67.8888 20.3932 67.7433 19.7181 67.7433 18.931C67.7433 18.1414 67.89 17.4663 68.1834 16.9057C68.4768 16.3428 68.8763 15.9122 69.3821 15.6141C69.8878 15.3159 70.4603 15.1668 71.0995 15.1668C71.5074 15.1668 71.8867 15.224 72.2374 15.3385C72.588 15.453 72.9005 15.6212 73.1748 15.8431C73.4492 16.0625 73.6746 16.3321 73.8511 16.6517C74.03 16.969 74.1469 17.3315 74.2018 17.7394ZM76.9417 22.7059C76.5934 22.7059 76.2797 22.6438 76.0007 22.5198C75.7239 22.3934 75.5045 22.2073 75.3423 21.9616C75.1825 21.7159 75.1025 21.413 75.1025 21.0528C75.1025 20.7427 75.1598 20.4862 75.2743 20.2835C75.3888 20.0807 75.545 19.9185 75.743 19.7969C75.941 19.6752 76.1641 19.5834 76.4121 19.5213C76.6626 19.4569 76.9214 19.4104 77.1886 19.3818C77.5106 19.3484 77.7718 19.3186 77.9722 19.2923C78.1726 19.2637 78.3181 19.2208 78.4087 19.1635C78.5018 19.1039 78.5483 19.0121 78.5483 18.888V18.8666C78.5483 18.597 78.4684 18.3883 78.3085 18.2404C78.1487 18.0925 77.9185 18.0185 77.618 18.0185C77.3007 18.0185 77.049 18.0877 76.863 18.2261C76.6793 18.3644 76.5553 18.5278 76.4909 18.7163L75.2815 18.5445C75.3769 18.2106 75.5343 17.9315 75.7538 17.7072C75.9732 17.4806 76.2416 17.3113 76.5588 17.1992C76.8761 17.0847 77.2268 17.0274 77.6108 17.0274C77.8756 17.0274 78.1392 17.0584 78.4016 17.1204C78.664 17.1825 78.9037 17.285 79.1208 17.4282C79.3378 17.5689 79.512 17.7609 79.6432 18.0042C79.7768 18.2475 79.8435 18.5517 79.8435 18.9166V22.5949H78.5984V21.84H78.5554C78.4767 21.9926 78.3658 22.1357 78.2227 22.2693C78.0819 22.4005 77.9042 22.5067 77.6895 22.5878C77.4772 22.6665 77.2279 22.7059 76.9417 22.7059ZM77.278 21.7541C77.538 21.7541 77.7635 21.7028 77.9543 21.6002C78.1451 21.4953 78.2918 21.3569 78.3944 21.1852C78.4994 21.0134 78.5518 20.8262 78.5518 20.6234V19.9758C78.5113 20.0092 78.4421 20.0402 78.3443 20.0688C78.2489 20.0974 78.1416 20.1225 78.0223 20.1439C77.903 20.1654 77.7849 20.1845 77.6681 20.2012C77.5512 20.2179 77.4498 20.2322 77.3639 20.2441C77.1707 20.2704 76.9978 20.3133 76.8451 20.3729C76.6924 20.4326 76.572 20.5161 76.4837 20.6234C76.3954 20.7284 76.3513 20.8643 76.3513 21.0313C76.3513 21.2698 76.4384 21.4499 76.6125 21.5716C76.7866 21.6933 77.0085 21.7541 77.278 21.7541ZM81.146 22.5949V17.099H82.4019V18.015H82.4591C82.5593 17.6977 82.7311 17.4532 82.9744 17.2815C83.2201 17.1073 83.5004 17.0202 83.8152 17.0202C83.8868 17.0202 83.9667 17.0238 84.055 17.031C84.1456 17.0358 84.2208 17.0441 84.2804 17.056V18.2475C84.2255 18.2285 84.1385 18.2118 84.0192 18.1974C83.9023 18.1807 83.789 18.1724 83.6793 18.1724C83.4431 18.1724 83.2308 18.2237 83.0424 18.3263C82.8563 18.4264 82.7096 18.566 82.6023 18.7449C82.4949 18.9238 82.4412 19.1301 82.4412 19.3639V22.5949H81.146ZM86.9541 22.6915C86.5224 22.6915 86.1359 22.5806 85.7948 22.3588C85.4537 22.1369 85.1842 21.8149 84.9862 21.3927C84.7882 20.9705 84.6892 20.4576 84.6892 19.8541C84.6892 19.2434 84.7894 18.7282 84.9898 18.3084C85.1925 17.8862 85.4656 17.5677 85.8091 17.353C86.1526 17.1359 86.5355 17.0274 86.9577 17.0274C87.2797 17.0274 87.5445 17.0823 87.7521 17.192C87.9596 17.2993 88.1242 17.4293 88.2458 17.582C88.3675 17.7323 88.4617 17.8742 88.5285 18.0078H88.5822V15.267H89.881V22.5949H88.6072V21.729H88.5285C88.4617 21.8626 88.3651 22.0046 88.2387 22.1548C88.1122 22.3027 87.9453 22.4292 87.7377 22.5341C87.5302 22.6391 87.269 22.6915 86.9541 22.6915ZM87.3155 21.6289C87.5898 21.6289 87.8236 21.5549 88.0168 21.407C88.21 21.2567 88.3568 21.048 88.4569 20.7808C88.5571 20.5137 88.6072 20.2024 88.6072 19.847C88.6072 19.4915 88.5571 19.1826 88.4569 18.9202C88.3591 18.6578 88.2136 18.4539 88.0204 18.3084C87.8296 18.1629 87.5946 18.0901 87.3155 18.0901C87.0269 18.0901 86.786 18.1652 86.5927 18.3155C86.3995 18.4658 86.254 18.6733 86.1562 18.9381C86.0584 19.2029 86.0095 19.5058 86.0095 19.847C86.0095 20.1905 86.0584 20.497 86.1562 20.7665C86.2564 21.0337 86.4031 21.2448 86.5963 21.3999C86.7919 21.5525 87.0317 21.6289 87.3155 21.6289Z" fill="white"/>
<rect x="0.314873" y="0.314873" width="195.62" height="119.022" rx="12.2801" stroke="url(#paint1_linear_12_54784)" stroke-width="0.629747"/>
<defs>
<linearGradient id="paint0_linear_12_54784" x1="-0.0030562" y1="119.651" x2="106.361" y2="-54.8045" gradientUnits="userSpaceOnUse">
<stop stop-color="#42307D"/>
<stop offset="1" stop-color="#7F56D9"/>
</linearGradient>
<linearGradient id="paint1_linear_12_54784" x1="1.10876e-07" y1="5.05248" x2="193.263" y2="124.485" gradientUnits="userSpaceOnUse">
<stop stop-color="white"/>
<stop offset="1" stop-color="white" stop-opacity="0.2"/>
</linearGradient>
</defs>
</svg>
