<svg width="1526" height="1905" viewBox="0 0 1526 1905" fill="none" xmlns="http://www.w3.org/2000/svg">
<g opacity="0.2">
<path d="M1460.64 729.887L197.573 0.656632L51.1396 254.287L357.512 431.171L227.91 655.648L83.1599 906.363C32.6657 993.821 -47.3388 1220.5 36.5972 1427.55C54.6081 1474.23 109.522 1590.93 186.996 1654.32C264.471 1717.71 510.235 1848.72 510.235 1848.72C363.373 1760.04 315.666 1709.17 250.004 1558.54C201.272 1446.74 192.791 1261.19 289.869 1095.67L597.884 562.175L1083.46 842.52L950.487 1072.83L782.173 1364.36C754.84 1409.47 674.645 1486.52 572.525 1433.78C470.406 1381.04 474.407 1256.63 504.703 1204.16C437.378 1320.77 495.077 1525.25 669.437 1606.35C807.984 1670.79 944.202 1601.73 1016.29 1499.52L1460.64 729.887Z" fill="url(#paint0_linear_207_35773)"/>
<path d="M673.018 912.631L950.487 1072.83L1083.46 842.52L597.884 562.175L673.018 912.631Z" fill="url(#paint1_linear_207_35773)"/>
<path d="M357.512 431.171L51.1396 254.287C2.07323 319.247 -43.4049 483.456 167.214 620.605L227.91 655.648L357.512 431.171Z" fill="url(#paint2_linear_207_35773)"/>
<path d="M524.686 1857.06C637.884 1914.64 821.475 1925.53 957.873 1858.39C1103.24 1786.83 1156.88 1720.63 1223.47 1620.96L1525.67 1097.83L1460.64 729.887L1016.29 1499.52C944.202 1601.73 807.984 1670.79 669.437 1606.35C495.077 1525.25 437.378 1320.77 504.703 1204.16L673.018 912.631L597.884 562.175L289.869 1095.67C192.791 1261.19 201.272 1446.74 250.004 1558.54C315.666 1709.17 363.373 1760.04 510.235 1848.72L524.686 1857.06Z" fill="url(#paint3_linear_207_35773)"/>
</g>
<defs>
<linearGradient id="paint0_linear_207_35773" x1="1338.71" y1="1806.17" x2="-129.842" y2="-168.054" gradientUnits="userSpaceOnUse">
<stop stop-color="#02B977"/>
<stop offset="0.522158" stop-color="#9BFFCF"/>
<stop offset="1" stop-color="#B5FFC5"/>
</linearGradient>
<linearGradient id="paint1_linear_207_35773" x1="1115.62" y1="967.037" x2="459.983" y2="585.507" gradientUnits="userSpaceOnUse">
<stop stop-color="#31B998"/>
<stop offset="1" stop-color="#3EDE61"/>
</linearGradient>
<linearGradient id="paint2_linear_207_35773" x1="390.242" y1="475.965" x2="27.8311" y2="292.007" gradientUnits="userSpaceOnUse">
<stop stop-color="#19EA9F"/>
<stop offset="1" stop-color="#24BD8F"/>
</linearGradient>
<linearGradient id="paint3_linear_207_35773" x1="1710.67" y1="1338.11" x2="266.756" y2="1108.27" gradientUnits="userSpaceOnUse">
<stop stop-color="#47BA9E"/>
<stop offset="0.588542" stop-color="#7EFFD1"/>
<stop offset="1" stop-color="#30CC81"/>
</linearGradient>
</defs>
</svg>
