         <svg width="545" height="537" viewBox="0 0 545 537" fill="none"
                            xmlns="http://www.w3.org/2000/svg" xmlns:xlink="http://www.w3.org/1999/xlink">
                            <g filter="url(#filter0_d_172_34772)">
                                <rect x="65.7745" y="191.22" width="48.054" height="228.257" rx="19.3948" fill="white"
                                    shape-rendering="crispEdges" />
                                <path
                                    d="M71.7813 200.23C71.7813 198.571 73.126 197.227 74.7847 197.227H104.818C106.477 197.227 107.822 198.571 107.822 200.23V230.264C107.822 231.922 106.477 233.267 104.818 233.267H74.7847C73.126 233.267 71.7813 231.922 71.7813 230.264V200.23Z"
                                    fill="#23BC88" />
                                <path
                                    d="M91.3031 218.251C91.3031 219.58 90.7249 220.781 89.8014 221.599C89.0055 222.32 87.9543 222.756 86.798 222.756C84.3127 222.756 82.293 220.736 82.293 218.251C82.293 216.178 83.7046 214.421 85.6117 213.903C86.1298 215.21 87.241 216.216 88.6151 216.591C88.9905 216.696 89.3884 216.749 89.8014 216.749C90.2144 216.749 90.6123 216.696 90.9877 216.591C91.1905 217.102 91.3031 217.665 91.3031 218.251Z"
                                    stroke="white" stroke-width="1.12627" stroke-linecap="round"
                                    stroke-linejoin="round" />
                                <path
                                    d="M94.3065 212.244C94.3065 212.83 94.1938 213.393 93.9911 213.904C93.473 215.21 92.3618 216.216 90.9877 216.592C90.6123 216.697 90.2144 216.749 89.8014 216.749C89.3884 216.749 88.9905 216.697 88.6151 216.592C87.241 216.216 86.1298 215.21 85.6117 213.904C85.409 213.393 85.2963 212.83 85.2963 212.244C85.2963 209.759 87.3161 207.739 89.8014 207.739C92.2867 207.739 94.3065 209.759 94.3065 212.244Z"
                                    stroke="white" stroke-width="1.12627" stroke-linecap="round"
                                    stroke-linejoin="round" />
                                <path
                                    d="M97.3098 218.251C97.3098 220.736 95.2901 222.756 92.8048 222.756C91.6485 222.756 90.5973 222.32 89.8014 221.599C90.7249 220.781 91.3031 219.58 91.3031 218.251C91.3031 217.665 91.1905 217.102 90.9877 216.591C92.3618 216.216 93.473 215.21 93.9911 213.903C95.8982 214.421 97.3098 216.178 97.3098 218.251Z"
                                    stroke="white" stroke-width="1.12627" stroke-linecap="round"
                                    stroke-linejoin="round" />
                                <path
                                    d="M71.7815 236.271C71.7815 234.612 73.1262 233.268 74.7849 233.268H104.819C106.477 233.268 107.822 234.612 107.822 236.271V266.305C107.822 267.963 106.477 269.308 104.819 269.308H74.7849C73.1262 269.308 71.7815 267.963 71.7815 266.305V236.271Z"
                                    fill="white" />
                                <path
                                    d="M82.7962 247.661V246.294C82.7962 245.431 83.4945 244.74 84.3505 244.74H95.2527C96.1162 244.74 96.807 245.439 96.807 246.294V247.661"
                                    stroke="#0E0B3D" stroke-width="1.12627" stroke-linecap="round"
                                    stroke-linejoin="round" />
                                <path d="M89.8016 257.835V245.363" stroke="#0E0B3D" stroke-width="1.12627"
                                    stroke-linecap="round" stroke-linejoin="round" />
                                <path d="M86.8433 257.835H92.7599" stroke="#0E0B3D" stroke-width="1.12627"
                                    stroke-linecap="round" stroke-linejoin="round" />
                                <path
                                    d="M71.7815 272.311C71.7815 270.652 73.1262 269.308 74.7849 269.308H104.819C106.477 269.308 107.822 270.652 107.822 272.311V302.345C107.822 304.003 106.477 305.348 104.819 305.348H74.7849C73.1262 305.348 71.7815 304.003 71.7815 302.345V272.311Z"
                                    fill="white" />
                                <path
                                    d="M88.2999 281.696V291.833C88.2999 292.644 87.9695 293.387 87.4439 293.928L87.4139 293.958C87.3463 294.025 87.2713 294.093 87.2037 294.145C86.9784 294.341 86.7231 294.491 86.4603 294.596C86.3777 294.633 86.2952 294.664 86.2126 294.694C85.9197 294.791 85.6044 294.836 85.2965 294.836C85.0938 294.836 84.8911 294.814 84.6959 294.776C84.5983 294.754 84.5006 294.731 84.403 294.701C84.2829 294.664 84.1703 294.626 84.0576 294.573C84.0576 294.566 84.0576 294.566 84.0501 294.573C83.8399 294.468 83.6372 294.348 83.4495 294.206L83.4419 294.198C83.3443 294.123 83.2542 294.048 83.1716 293.958C83.0891 293.868 83.0065 293.778 82.9239 293.68C82.7812 293.492 82.6611 293.289 82.556 293.079C82.5635 293.072 82.5635 293.072 82.556 293.072C82.556 293.072 82.5559 293.064 82.5484 293.057C82.5034 292.952 82.4658 292.839 82.4283 292.726C82.3983 292.629 82.3757 292.531 82.3532 292.434C82.3157 292.238 82.2932 292.036 82.2932 291.833V281.696C82.2932 280.57 83.044 279.819 84.1703 279.819H86.4228C87.5491 279.819 88.2999 280.57 88.2999 281.696Z"
                                    stroke="#0E0B3D" stroke-width="1.12627" stroke-linecap="round"
                                    stroke-linejoin="round" />
                                <path
                                    d="M97.31 290.706V292.959C97.31 294.085 96.5592 294.836 95.4329 294.836H85.2965C85.6044 294.836 85.9197 294.791 86.2125 294.693C86.2951 294.663 86.3777 294.633 86.4603 294.596C86.7231 294.49 86.9784 294.34 87.2037 294.145C87.2712 294.093 87.3463 294.025 87.4139 293.957L87.4439 293.927L92.5497 288.829H95.4329C96.5592 288.829 97.31 289.58 97.31 290.706Z"
                                    stroke="#0E0B3D" stroke-width="1.12627" stroke-linecap="round"
                                    stroke-linejoin="round" />
                                <path
                                    d="M84.403 294.701C83.9525 294.566 83.5245 294.318 83.1716 293.958C82.8112 293.605 82.5634 293.177 82.4283 292.727C82.7211 293.665 83.4645 294.408 84.403 294.701Z"
                                    stroke="#0E0B3D" stroke-width="1.12627" stroke-linecap="round"
                                    stroke-linejoin="round" />
                                <path
                                    d="M94.5844 286.794L92.5497 288.829L87.4439 293.927C87.9695 293.386 88.2999 292.643 88.2999 291.832V284.579L90.3347 282.544C91.1306 281.748 92.1968 281.748 92.9927 282.544L94.5844 284.136C95.3803 284.932 95.3803 285.998 94.5844 286.794Z"
                                    stroke="#0E0B3D" stroke-width="1.12627" stroke-linecap="round"
                                    stroke-linejoin="round" />
                                <path
                                    d="M85.2965 292.584C85.7112 292.584 86.0473 292.248 86.0473 291.833C86.0473 291.418 85.7112 291.082 85.2965 291.082C84.8818 291.082 84.5457 291.418 84.5457 291.833C84.5457 292.248 84.8818 292.584 85.2965 292.584Z"
                                    stroke="#0E0B3D" stroke-width="1.12627" stroke-linecap="round"
                                    stroke-linejoin="round" />
                                <path
                                    d="M71.7815 308.352C71.7815 306.693 73.1262 305.349 74.7849 305.349H104.819C106.477 305.349 107.822 306.693 107.822 308.352V338.386C107.822 340.044 106.477 341.389 104.819 341.389H74.7849C73.1262 341.389 71.7815 340.044 71.7815 338.386V308.352Z"
                                    fill="white" />
                                <path
                                    d="M97.0697 327.093L94.7196 321.604C93.9237 319.742 92.4595 319.667 91.4759 321.439L90.0568 323.999C89.336 325.298 87.992 325.411 87.061 324.247L86.8958 324.037C85.9272 322.82 84.5607 322.971 83.8624 324.36L82.5709 326.95C81.6624 328.752 82.9764 330.877 84.9886 330.877H94.5694C96.5216 330.877 97.8356 328.887 97.0697 327.093Z"
                                    stroke="#0E0B3D" stroke-width="1.12627" stroke-linecap="round"
                                    stroke-linejoin="round" />
                                <path
                                    d="M86.0248 320.365C87.2688 320.365 88.2773 319.357 88.2773 318.113C88.2773 316.869 87.2688 315.86 86.0248 315.86C84.7808 315.86 83.7723 316.869 83.7723 318.113C83.7723 319.357 84.7808 320.365 86.0248 320.365Z"
                                    stroke="#0E0B3D" stroke-width="1.12627" stroke-linecap="round"
                                    stroke-linejoin="round" />
                                <path
                                    d="M71.7815 344.392C71.7815 342.733 73.1262 341.389 74.7849 341.389H104.819C106.477 341.389 107.822 342.733 107.822 344.392V374.426C107.822 376.084 106.477 377.429 104.819 377.429H74.7849C73.1262 377.429 71.7815 376.084 71.7815 374.426V344.392Z"
                                    fill="white" />
                                <path d="M87.5491 363.163V358.658L86.0474 360.16" stroke="#0E0B3D"
                                    stroke-width="1.12627" stroke-linecap="round" stroke-linejoin="round" />
                                <path d="M87.549 358.658L89.0507 360.16" stroke="#0E0B3D" stroke-width="1.12627"
                                    stroke-linecap="round" stroke-linejoin="round" />
                                <path
                                    d="M97.31 357.907V361.661C97.31 365.416 95.8083 366.917 92.0541 366.917H87.5491C83.7948 366.917 82.2932 365.416 82.2932 361.661V357.156C82.2932 353.402 83.7948 351.9 87.5491 351.9H91.3033"
                                    stroke="#0E0B3D" stroke-width="1.12627" stroke-linecap="round"
                                    stroke-linejoin="round" />
                                <path
                                    d="M97.31 357.907H94.3067C92.0541 357.907 91.3033 357.156 91.3033 354.904V351.9L97.31 357.907Z"
                                    stroke="#292D32" stroke-width="1.12627" stroke-linecap="round"
                                    stroke-linejoin="round" />
                                <path
                                    d="M71.7815 380.432C71.7815 378.773 73.1262 377.429 74.7849 377.429H104.819C106.477 377.429 107.822 378.773 107.822 380.432V410.466C107.822 412.124 106.477 413.469 104.819 413.469H74.7849C73.1262 413.469 71.7815 412.124 71.7815 410.466V380.432Z"
                                    fill="white" />
                                <path
                                    d="M86.235 391.695H93.3681V390.193C93.3681 388.691 92.8049 387.94 91.1155 387.94H88.4876C86.7982 387.94 86.235 388.691 86.235 390.193V391.695Z"
                                    stroke="#0E0B3D" stroke-width="1.12627" stroke-miterlimit="10"
                                    stroke-linecap="round" stroke-linejoin="round" />
                                <path
                                    d="M92.805 397.701V400.705C92.805 402.206 92.0541 402.957 90.5524 402.957H89.0507C87.5491 402.957 86.7982 402.206 86.7982 400.705V397.701H92.805Z"
                                    stroke="#0E0B3D" stroke-width="1.12627" stroke-miterlimit="10"
                                    stroke-linecap="round" stroke-linejoin="round" />
                                <path
                                    d="M96.5591 393.947V397.701C96.5591 399.203 95.8083 399.954 94.3066 399.954H92.8049V397.701H86.7982V399.954H85.2965C83.7948 399.954 83.0439 399.203 83.0439 397.701V393.947C83.0439 392.445 83.7948 391.694 85.2965 391.694H94.3066C95.8083 391.694 96.5591 392.445 96.5591 393.947Z"
                                    stroke="#0E0B3D" stroke-width="1.12627" stroke-miterlimit="10"
                                    stroke-linecap="round" stroke-linejoin="round" />
                                <path d="M93.5558 397.701H92.6473H86.0474" stroke="#292D32" stroke-width="1.12627"
                                    stroke-miterlimit="10" stroke-linecap="round" stroke-linejoin="round" />
                                <path d="M86.0474 394.698H88.2999" stroke="#292D32" stroke-width="1.12627"
                                    stroke-miterlimit="10" stroke-linecap="round" stroke-linejoin="round" />
                            </g>
                            <g filter="url(#filter1_d_172_34772)">
                                <rect x="138.691" y="191.22" width="268.501" height="257.946" rx="19.3948"
                                    fill="white" />
                            </g>
                            <g filter="url(#filter2_d_172_34772)">
                                <path
                                    d="M463.759 58.4287H217.064C212.567 58.4287 208.922 62.058 208.922 66.535V161.535C208.922 166.012 212.567 169.641 217.064 169.641H463.759C468.255 169.641 471.901 166.012 471.901 161.535V66.535C471.901 62.058 468.255 58.4287 463.759 58.4287Z"
                                    fill="white" />
                            </g>
                            <path
                                d="M454.732 113.607H226.088C225.851 113.607 225.658 113.8 225.658 114.037C225.658 114.275 225.851 114.467 226.088 114.467H454.732C454.97 114.467 455.162 114.275 455.162 114.037C455.162 113.8 454.97 113.607 454.732 113.607Z"
                                fill="#F0F4F5" />
                            <path
                                d="M242.774 131.432H233.624C230.466 131.432 227.905 133.981 227.905 137.127V146.239C227.905 149.384 230.466 151.934 233.624 151.934H242.774C245.933 151.934 248.493 149.384 248.493 146.239V137.127C248.493 133.981 245.933 131.432 242.774 131.432Z"
                                fill="#23BC88" stroke="#23BC88" stroke-width="1.12855" stroke-linecap="round"
                                stroke-linejoin="round" />
                            <path
                                d="M238.199 147.377C241.345 147.377 243.918 144.815 243.918 141.682C243.918 138.55 241.345 135.987 238.199 135.987C235.054 135.987 232.481 138.55 232.481 141.682C232.481 144.815 235.054 147.377 238.199 147.377Z"
                                stroke="white" stroke-width="1.12627" stroke-linecap="round" stroke-linejoin="round" />
                            <path d="M235.769 141.683L237.387 143.295L240.63 140.071" stroke="white"
                                stroke-width="1.12627" stroke-linecap="round" stroke-linejoin="round" />
                            <path d="M441.178 137.372L444.649 140.829L441.178 144.286" stroke="#0E0B3D"
                                stroke-width="1.12627" stroke-miterlimit="10" stroke-linecap="round"
                                stroke-linejoin="round" />
                            <path d="M434.927 140.828H444.552" stroke="#0E0B3D" stroke-width="1.12627"
                                stroke-miterlimit="10" stroke-linecap="round" stroke-linejoin="round" />
                            <path opacity="0.3"
                                d="M337.015 147.736H257.075C256.126 147.736 255.356 148.503 255.356 149.45V150.306C255.356 151.252 256.126 152.019 257.075 152.019H337.015C337.964 152.019 338.734 151.252 338.734 150.306V149.45C338.734 148.503 337.964 147.736 337.015 147.736Z"
                                fill="#445B78" />
                            <path
                                d="M258.539 140.714C257.831 140.714 257.229 140.553 256.731 140.23C256.241 139.908 255.897 139.466 255.701 138.906L256.742 138.296C257.036 139.123 257.646 139.536 258.571 139.536C259.026 139.536 259.366 139.449 259.59 139.274C259.822 139.091 259.937 138.857 259.937 138.569C259.937 138.268 259.815 138.04 259.569 137.886C259.324 137.725 258.889 137.55 258.266 137.361C257.915 137.255 257.632 137.157 257.414 137.066C257.197 136.975 256.966 136.849 256.721 136.688C256.482 136.52 256.304 136.313 256.184 136.068C256.065 135.822 256.006 135.535 256.006 135.206C256.006 134.554 256.237 134.039 256.7 133.66C257.162 133.275 257.719 133.082 258.371 133.082C258.96 133.082 259.475 133.226 259.916 133.513C260.358 133.801 260.698 134.196 260.936 134.701L259.916 135.29C259.608 134.603 259.093 134.26 258.371 134.26C258.021 134.26 257.74 134.344 257.53 134.512C257.32 134.673 257.215 134.894 257.215 135.174C257.215 135.447 257.32 135.665 257.53 135.826C257.747 135.98 258.136 136.145 258.697 136.32C258.977 136.411 259.18 136.481 259.306 136.53C259.44 136.572 259.622 136.642 259.853 136.74C260.091 136.838 260.27 136.937 260.389 137.035C260.508 137.133 260.634 137.255 260.768 137.403C260.908 137.55 261.006 137.718 261.062 137.907C261.118 138.096 261.146 138.31 261.146 138.548C261.146 139.214 260.904 139.743 260.421 140.136C259.944 140.521 259.317 140.714 258.539 140.714ZM267.974 135.321H269.172L267.522 140.577H266.407L265.314 137.035L264.21 140.577H263.096L261.446 135.321H262.644L263.664 138.948L264.768 135.321H265.85L266.944 138.948L267.974 135.321ZM270.696 138.433C270.78 138.832 270.973 139.141 271.274 139.358C271.576 139.568 271.944 139.673 272.378 139.673C272.981 139.673 273.433 139.456 273.734 139.021L274.67 139.568C274.151 140.332 273.384 140.714 272.368 140.714C271.513 140.714 270.822 140.455 270.297 139.936C269.771 139.41 269.508 138.748 269.508 137.949C269.508 137.164 269.768 136.509 270.286 135.983C270.805 135.451 271.471 135.185 272.284 135.185C273.054 135.185 273.685 135.454 274.176 135.994C274.673 136.534 274.922 137.189 274.922 137.96C274.922 138.079 274.908 138.237 274.88 138.433H270.696ZM270.686 137.508H273.776C273.699 137.08 273.52 136.758 273.24 136.541C272.967 136.323 272.644 136.215 272.273 136.215C271.853 136.215 271.502 136.33 271.222 136.562C270.942 136.793 270.763 137.108 270.686 137.508ZM280.053 135.321H281.188V140.577H280.053V139.82C279.625 140.416 279.012 140.714 278.213 140.714C277.491 140.714 276.875 140.448 276.363 139.915C275.852 139.375 275.596 138.72 275.596 137.949C275.596 137.171 275.852 136.516 276.363 135.983C276.875 135.451 277.491 135.185 278.213 135.185C279.012 135.185 279.625 135.479 280.053 136.068V135.321ZM277.204 139.158C277.519 139.473 277.915 139.631 278.392 139.631C278.868 139.631 279.264 139.473 279.58 139.158C279.895 138.836 280.053 138.433 280.053 137.949C280.053 137.466 279.895 137.066 279.58 136.751C279.264 136.428 278.868 136.267 278.392 136.267C277.915 136.267 277.519 136.428 277.204 136.751C276.889 137.066 276.731 137.466 276.731 137.949C276.731 138.433 276.889 138.836 277.204 139.158ZM285.444 136.414H284.141V138.937C284.141 139.155 284.19 139.312 284.288 139.41C284.386 139.501 284.53 139.554 284.719 139.568C284.915 139.575 285.157 139.572 285.444 139.558V140.577C284.575 140.682 283.951 140.609 283.573 140.356C283.195 140.097 283.005 139.624 283.005 138.937V136.414H282.038V135.321H283.005V134.186L284.141 133.85V135.321H285.444V136.414ZM287.298 136.772C287.298 136.947 287.393 137.087 287.582 137.192C287.778 137.29 288.013 137.378 288.287 137.455C288.567 137.525 288.847 137.609 289.127 137.707C289.408 137.806 289.643 137.974 289.832 138.212C290.028 138.443 290.126 138.738 290.126 139.095C290.126 139.6 289.93 139.995 289.537 140.283C289.152 140.57 288.665 140.714 288.076 140.714C287.558 140.714 287.113 140.605 286.741 140.388C286.37 140.171 286.1 139.869 285.932 139.484L286.909 138.916C287.092 139.421 287.481 139.673 288.076 139.673C288.672 139.673 288.97 139.477 288.97 139.084C288.97 138.916 288.872 138.78 288.675 138.675C288.486 138.569 288.251 138.482 287.971 138.412C287.698 138.335 287.421 138.247 287.141 138.149C286.86 138.051 286.622 137.89 286.426 137.665C286.237 137.434 286.142 137.143 286.142 136.793C286.142 136.309 286.324 135.92 286.689 135.626C287.06 135.332 287.519 135.185 288.066 135.185C288.5 135.185 288.886 135.283 289.222 135.479C289.565 135.668 289.828 135.934 290.01 136.278L289.054 136.814C288.872 136.414 288.542 136.215 288.066 136.215C287.849 136.215 287.666 136.264 287.519 136.362C287.372 136.453 287.298 136.59 287.298 136.772ZM293.827 135.185C294.43 135.185 294.917 135.377 295.288 135.763C295.66 136.148 295.845 136.677 295.845 137.35V140.577H294.71V137.466C294.71 137.073 294.605 136.772 294.395 136.562C294.184 136.351 293.897 136.246 293.533 136.246C293.133 136.246 292.811 136.372 292.566 136.625C292.32 136.87 292.198 137.248 292.198 137.76V140.577H291.062V133.219H292.198V135.994C292.541 135.454 293.084 135.185 293.827 135.185ZM298.14 134.323C298 134.463 297.832 134.533 297.635 134.533C297.439 134.533 297.267 134.463 297.12 134.323C296.98 134.175 296.91 134.004 296.91 133.808C296.91 133.611 296.98 133.443 297.12 133.303C297.26 133.156 297.432 133.082 297.635 133.082C297.839 133.082 298.01 133.156 298.15 133.303C298.291 133.443 298.361 133.611 298.361 133.808C298.361 134.004 298.287 134.175 298.14 134.323ZM297.068 140.577V135.321H298.203V140.577H297.068ZM300.656 136.204C300.944 135.553 301.483 135.227 302.275 135.227V136.457C301.841 136.428 301.462 136.534 301.14 136.772C300.818 137.003 300.656 137.389 300.656 137.928V140.577H299.521V135.321H300.656V136.204ZM306.18 136.414H304.877V138.937C304.877 139.155 304.926 139.312 305.024 139.41C305.122 139.501 305.266 139.554 305.455 139.568C305.651 139.575 305.893 139.572 306.18 139.558V140.577C305.311 140.682 304.688 140.609 304.309 140.356C303.931 140.097 303.742 139.624 303.742 138.937V136.414H302.775V135.321H303.742V134.186L304.877 133.85V135.321H306.18V136.414Z"
                                fill="#0E0B3D" />
                            <path
                                d="M462.092 190.366H441.504C435.819 190.366 431.21 194.955 431.21 200.616V221.116C431.21 226.776 435.819 231.365 441.504 231.365H462.092C467.777 231.365 472.386 226.776 472.386 221.116V200.616C472.386 194.955 467.777 190.366 462.092 190.366Z"
                                fill="#23BC88" />
                            <path
                                d="M451.797 219.409C456.515 219.409 460.376 215.565 460.376 210.867C460.376 206.168 456.515 202.324 451.797 202.324C447.079 202.324 443.219 206.168 443.219 210.867C443.219 215.565 447.079 219.409 451.797 219.409Z"
                                stroke="white" stroke-width="1.12627" stroke-linecap="round" stroke-linejoin="round" />
                            <path d="M448.366 210.867H455.229" stroke="white" stroke-width="1.12627"
                                stroke-linecap="round" stroke-linejoin="round" />
                            <path d="M451.797 214.284V207.45" stroke="white" stroke-width="1.12627"
                                stroke-linecap="round" stroke-linejoin="round" />
                            <rect x="40.0397" y="51.1436" width="154.409" height="100.787" rx="19.3948"
                                fill="url(#paint0_linear_172_34772)" />
                            <mask id="mask0_172_34772" style="mask-type:alpha" maskUnits="userSpaceOnUse" x="40" y="11"
                                width="155" height="141">
                                <rect x="40.0396" y="11" width="154.409" height="140.931" rx="19.3948"
                                    fill="url(#paint1_linear_172_34772)" />
                            </mask>
                            <g mask="url(#mask0_172_34772)">
                                <rect x="65.7745" y="7.58301" width="137.253" height="144.347" rx="19.3948"
                                    fill="url(#pattern0a132)" />
                                <rect x="32.3188" y="75.0596" width="89.2143" height="111.89" rx="19.3948"
                                    fill="url(#pattern141)" />
                            </g>
                            <path
                                d="M242.774 79.3311H233.624C230.465 79.3311 227.905 81.8808 227.905 85.0261V94.1381C227.905 97.2833 230.465 99.8331 233.624 99.8331H242.774C245.933 99.8331 248.493 97.2833 248.493 94.1381V85.0261C248.493 81.8808 245.933 79.3311 242.774 79.3311Z"
                                fill="#23BC88" stroke="#23BC88" stroke-width="1.12855" stroke-linecap="round"
                                stroke-linejoin="round" />
                            <path
                                d="M238.199 95.2758C241.345 95.2758 243.918 92.713 243.918 89.5807C243.918 86.4485 241.345 83.8857 238.199 83.8857C235.054 83.8857 232.481 86.4485 232.481 89.5807C232.481 92.713 235.054 95.2758 238.199 95.2758Z"
                                stroke="white" stroke-width="1.12627" stroke-linecap="round" stroke-linejoin="round" />
                            <path d="M235.769 89.5814L237.387 91.1931L240.63 87.9697" stroke="white"
                                stroke-width="1.12627" stroke-linecap="round" stroke-linejoin="round" />
                            <path d="M441.178 85.2715L444.649 88.7284L441.178 92.1852" stroke="#0E0B3D"
                                stroke-width="1.12627" stroke-miterlimit="10" stroke-linecap="round"
                                stroke-linejoin="round" />
                            <path d="M434.927 88.7275H444.552" stroke="#0E0B3D" stroke-width="1.12627"
                                stroke-miterlimit="10" stroke-linecap="round" stroke-linejoin="round" />
                            <path opacity="0.3"
                                d="M337.015 95.6348H257.075C256.126 95.6348 255.356 96.4018 255.356 97.3479V98.2045C255.356 99.1507 256.126 99.9177 257.075 99.9177H337.015C337.964 99.9177 338.734 99.1507 338.734 98.2045V97.3479C338.734 96.4018 337.964 95.6348 337.015 95.6348Z"
                                fill="#445B78" />
                            <path
                                d="M259.569 87.4359C260.032 87.4359 260.452 87.3308 260.831 87.1205C261.209 86.9033 261.493 86.6125 261.682 86.2481L262.733 86.8472C262.467 87.3238 262.096 87.7162 261.619 88.0246C261.149 88.3259 260.627 88.5116 260.053 88.5817V88.9601C260.291 89.0022 260.487 89.0933 260.641 89.2334C260.796 89.3806 260.873 89.5663 260.873 89.7905C260.873 90.5194 260.119 90.8382 258.613 90.7471V89.9167C259.461 89.9868 259.885 89.8992 259.885 89.6539C259.885 89.4647 259.629 89.3596 259.117 89.3385V88.5922C258.122 88.4871 257.306 88.0771 256.668 87.3623C256.037 86.6475 255.722 85.7925 255.722 84.7974C255.722 83.7182 256.086 82.8142 256.815 82.0854C257.544 81.3496 258.462 80.9816 259.569 80.9816C260.235 80.9816 260.848 81.1393 261.409 81.4547C261.976 81.77 262.418 82.1975 262.733 82.7371L261.682 83.3468C261.486 82.9824 261.199 82.6951 260.82 82.4848C260.449 82.2676 260.032 82.159 259.569 82.159C258.784 82.159 258.147 82.4077 257.656 82.9053C257.172 83.4029 256.931 84.0336 256.931 84.7974C256.931 85.5613 257.172 86.192 257.656 86.6896C258.147 87.1871 258.784 87.4359 259.569 87.4359ZM267.816 83.2207H268.952V88.4766H267.816V87.7197C267.389 88.3154 266.776 88.6132 265.977 88.6132C265.255 88.6132 264.638 88.3469 264.127 87.8143C263.615 87.2747 263.359 86.6195 263.359 85.8486C263.359 85.0707 263.615 84.4155 264.127 83.8829C264.638 83.3503 265.255 83.084 265.977 83.084C266.776 83.084 267.389 83.3783 267.816 83.967V83.2207ZM264.968 87.0575C265.283 87.3728 265.679 87.5305 266.155 87.5305C266.632 87.5305 267.028 87.3728 267.343 87.0575C267.659 86.7351 267.816 86.3322 267.816 85.8486C267.816 85.3651 267.659 84.9656 267.343 84.6503C267.028 84.3279 266.632 84.1667 266.155 84.1667C265.679 84.1667 265.283 84.3279 264.968 84.6503C264.652 84.9656 264.495 85.3651 264.495 85.8486C264.495 86.3322 264.652 86.7351 264.968 87.0575ZM273.039 83.084C273.642 83.084 274.129 83.2767 274.501 83.6622C274.872 84.0476 275.058 84.5767 275.058 85.2494V88.4766H273.922V85.3651C273.922 84.9726 273.817 84.6713 273.607 84.461C273.397 84.2508 273.11 84.1457 272.745 84.1457C272.346 84.1457 272.023 84.2718 271.778 84.5241C271.533 84.7694 271.41 85.1478 271.41 85.6594V88.4766H270.275V83.2207H271.41V83.8934C271.754 83.3538 272.297 83.084 273.039 83.084ZM279.213 84.3139H277.91V86.8367C277.91 87.054 277.959 87.2116 278.057 87.3098C278.155 87.4009 278.298 87.4534 278.488 87.4674C278.684 87.4744 278.926 87.4709 279.213 87.4569V88.4766C278.344 88.5817 277.72 88.5081 277.342 88.2558C276.963 87.9965 276.774 87.5235 276.774 86.8367V84.3139H275.807V83.2207H276.774V82.0854L277.91 81.749V83.2207H279.213V84.3139ZM284.19 83.2207H285.325V88.4766H284.19V87.7197C283.762 88.3154 283.149 88.6132 282.35 88.6132C281.628 88.6132 281.012 88.3469 280.5 87.8143C279.989 87.2747 279.733 86.6195 279.733 85.8486C279.733 85.0707 279.989 84.4155 280.5 83.8829C281.012 83.3503 281.628 83.084 282.35 83.084C283.149 83.084 283.762 83.3783 284.19 83.967V83.2207ZM281.341 87.0575C281.656 87.3728 282.052 87.5305 282.529 87.5305C283.005 87.5305 283.401 87.3728 283.717 87.0575C284.032 86.7351 284.19 86.3322 284.19 85.8486C284.19 85.3651 284.032 84.9656 283.717 84.6503C283.401 84.3279 283.005 84.1667 282.529 84.1667C282.052 84.1667 281.656 84.3279 281.341 84.6503C281.026 84.9656 280.868 85.3651 280.868 85.8486C280.868 86.3322 281.026 86.7351 281.341 87.0575Z"
                                fill="#0E0B3D" />
                            <path
                                d="M162.584 212.409C162.448 212.545 162.279 212.613 162.079 212.613C161.879 212.613 161.707 212.545 161.563 212.409C161.426 212.265 161.358 212.093 161.358 211.893C161.358 211.692 161.426 211.524 161.563 211.388C161.707 211.244 161.879 211.172 162.079 211.172C162.279 211.172 162.448 211.244 162.584 211.388C162.728 211.524 162.8 211.692 162.8 211.893C162.8 212.093 162.728 212.265 162.584 212.409ZM164.866 212.409C164.73 212.545 164.562 212.613 164.362 212.613C164.161 212.613 163.989 212.545 163.845 212.409C163.709 212.265 163.641 212.093 163.641 211.893C163.641 211.692 163.709 211.524 163.845 211.388C163.989 211.244 164.161 211.172 164.362 211.172C164.562 211.172 164.73 211.244 164.866 211.388C165.01 211.524 165.082 211.692 165.082 211.893C165.082 212.093 165.01 212.265 164.866 212.409ZM165.515 221.083C164.922 221.612 164.157 221.876 163.22 221.876C162.283 221.876 161.518 221.612 160.926 221.083C160.333 220.546 160.037 219.83 160.037 218.933V213.31H161.418V218.848C161.418 219.361 161.567 219.77 161.863 220.074C162.167 220.378 162.62 220.53 163.22 220.53C163.821 220.53 164.27 220.378 164.566 220.074C164.87 219.77 165.022 219.361 165.022 218.848V213.31H166.404V218.933C166.404 219.83 166.108 220.546 165.515 221.083ZM169.206 216.722C169.535 215.977 170.151 215.605 171.056 215.605V217.01C170.56 216.978 170.127 217.099 169.759 217.371C169.391 217.635 169.206 218.076 169.206 218.692V221.72H167.909V215.713H169.206V216.722ZM173.985 214.812C173.849 214.948 173.681 215.016 173.481 215.016C173.281 215.016 173.108 214.948 172.964 214.812C172.828 214.668 172.76 214.496 172.76 214.295C172.76 214.095 172.828 213.927 172.964 213.791C173.108 213.647 173.281 213.575 173.481 213.575C173.681 213.575 173.849 213.647 173.985 213.791C174.13 213.927 174.202 214.095 174.202 214.295C174.202 214.496 174.13 214.668 173.985 214.812ZM176.268 214.812C176.132 214.948 175.964 215.016 175.763 215.016C175.563 215.016 175.391 214.948 175.247 214.812C175.111 214.668 175.043 214.496 175.043 214.295C175.043 214.095 175.111 213.927 175.247 213.791C175.391 213.647 175.563 213.575 175.763 213.575C175.964 213.575 176.132 213.647 176.268 213.791C176.412 213.927 176.484 214.095 176.484 214.295C176.484 214.496 176.412 214.668 176.268 214.812ZM176.064 215.713H177.361V221.72H176.064V220.951C175.671 221.568 175.051 221.876 174.202 221.876C173.513 221.876 172.956 221.656 172.532 221.215C172.107 220.775 171.895 220.17 171.895 219.401V215.713H173.192V219.269C173.192 219.717 173.313 220.062 173.553 220.302C173.793 220.542 174.121 220.663 174.538 220.663C174.994 220.663 175.363 220.522 175.643 220.242C175.924 219.954 176.064 219.517 176.064 218.933V215.713ZM182.038 215.557C182.727 215.557 183.283 215.777 183.708 216.218C184.132 216.658 184.344 217.263 184.344 218.032V221.72H183.047V218.164C183.047 217.715 182.927 217.371 182.687 217.131C182.446 216.89 182.118 216.77 181.701 216.77C181.245 216.77 180.877 216.914 180.596 217.203C180.316 217.483 180.176 217.915 180.176 218.5V221.72H178.878V215.713H180.176V216.482C180.568 215.865 181.189 215.557 182.038 215.557ZM193.622 221.72L191.844 218.656H190.211V221.72H188.829V213.31H192.193C192.946 213.31 193.582 213.575 194.103 214.103C194.631 214.624 194.896 215.26 194.896 216.013C194.896 216.55 194.74 217.042 194.427 217.491C194.123 217.931 193.722 218.252 193.226 218.452L195.136 221.72H193.622ZM190.211 214.608V217.419H192.193C192.561 217.419 192.874 217.283 193.13 217.01C193.386 216.738 193.514 216.406 193.514 216.013C193.514 215.621 193.386 215.288 193.13 215.016C192.874 214.744 192.561 214.608 192.193 214.608H190.211ZM196.817 219.269C196.913 219.725 197.133 220.078 197.478 220.326C197.822 220.566 198.243 220.687 198.739 220.687C199.428 220.687 199.944 220.438 200.289 219.942L201.358 220.566C200.765 221.439 199.888 221.876 198.727 221.876C197.75 221.876 196.961 221.58 196.36 220.987C195.76 220.386 195.459 219.629 195.459 218.716C195.459 217.819 195.756 217.07 196.348 216.47C196.941 215.861 197.702 215.557 198.631 215.557C199.512 215.557 200.233 215.865 200.793 216.482C201.362 217.099 201.646 217.847 201.646 218.728C201.646 218.865 201.63 219.045 201.598 219.269H196.817ZM196.805 218.212H200.337C200.249 217.723 200.045 217.355 199.724 217.107C199.412 216.858 199.043 216.734 198.619 216.734C198.138 216.734 197.738 216.866 197.418 217.131C197.097 217.395 196.893 217.755 196.805 218.212ZM205.948 215.557C206.636 215.557 207.193 215.777 207.617 216.218C208.042 216.658 208.254 217.263 208.254 218.032V221.72H206.957V218.164C206.957 217.715 206.837 217.371 206.596 217.131C206.356 216.89 206.028 216.77 205.611 216.77C205.155 216.77 204.786 216.914 204.506 217.203C204.226 217.483 204.085 217.915 204.085 218.5V221.72H202.788V215.713H204.085V216.482C204.478 215.865 205.099 215.557 205.948 215.557ZM214.433 215.713H215.706V221.443C215.706 222.356 215.406 223.057 214.805 223.546C214.204 224.034 213.475 224.279 212.619 224.279C211.233 224.279 210.284 223.794 209.771 222.825L210.889 222.176C211.201 222.793 211.786 223.101 212.643 223.101C213.203 223.101 213.64 222.953 213.952 222.657C214.272 222.368 214.433 221.964 214.433 221.443V220.711C213.944 221.407 213.247 221.756 212.342 221.756C211.493 221.756 210.776 221.455 210.192 220.855C209.607 220.246 209.315 219.513 209.315 218.656C209.315 217.799 209.607 217.07 210.192 216.47C210.776 215.861 211.493 215.557 212.342 215.557C213.247 215.557 213.944 215.905 214.433 216.602V215.713ZM211.153 220.002C211.521 220.362 211.978 220.542 212.522 220.542C213.067 220.542 213.52 220.362 213.88 220.002C214.248 219.641 214.433 219.193 214.433 218.656C214.433 218.12 214.248 217.671 213.88 217.311C213.52 216.95 213.067 216.77 212.522 216.77C211.978 216.77 211.521 216.95 211.153 217.311C210.792 217.671 210.612 218.12 210.612 218.656C210.612 219.193 210.792 219.641 211.153 220.002ZM218.444 214.572C218.283 214.732 218.091 214.812 217.867 214.812C217.643 214.812 217.447 214.732 217.278 214.572C217.118 214.404 217.038 214.207 217.038 213.983C217.038 213.759 217.118 213.567 217.278 213.406C217.439 213.238 217.635 213.154 217.867 213.154C218.099 213.154 218.295 213.238 218.456 213.406C218.616 213.567 218.696 213.759 218.696 213.983C218.696 214.207 218.612 214.404 218.444 214.572ZM217.218 221.72V215.713H218.516V221.72H217.218ZM223.182 215.557C223.871 215.557 224.427 215.777 224.852 216.218C225.276 216.658 225.488 217.263 225.488 218.032V221.72H224.191V218.164C224.191 217.715 224.071 217.371 223.831 217.131C223.59 216.89 223.262 216.77 222.845 216.77C222.389 216.77 222.02 216.914 221.74 217.203C221.46 217.483 221.32 217.915 221.32 218.5V221.72H220.022V215.713H221.32V216.482C221.712 215.865 222.333 215.557 223.182 215.557ZM228.111 214.572C227.951 214.732 227.758 214.812 227.534 214.812C227.31 214.812 227.114 214.732 226.945 214.572C226.785 214.404 226.705 214.207 226.705 213.983C226.705 213.759 226.785 213.567 226.945 213.406C227.106 213.238 227.302 213.154 227.534 213.154C227.766 213.154 227.963 213.238 228.123 213.406C228.283 213.567 228.363 213.759 228.363 213.983C228.363 214.207 228.279 214.404 228.111 214.572ZM226.885 221.72V215.713H228.183V221.72H226.885ZM237.726 217.359C238.095 217.551 238.383 217.815 238.591 218.152C238.8 218.488 238.904 218.877 238.904 219.317C238.904 220.006 238.659 220.578 238.171 221.035C237.682 221.491 237.086 221.72 236.381 221.72H232.777V213.31H236.117C236.805 213.31 237.386 213.535 237.859 213.983C238.339 214.424 238.579 214.976 238.579 215.641C238.579 216.37 238.295 216.942 237.726 217.359ZM236.117 214.608H234.158V216.818H236.117C236.421 216.818 236.677 216.714 236.885 216.506C237.094 216.29 237.198 216.025 237.198 215.713C237.198 215.401 237.094 215.14 236.885 214.932C236.677 214.716 236.421 214.608 236.117 214.608ZM236.381 220.422C236.701 220.422 236.97 220.31 237.186 220.086C237.41 219.854 237.522 219.573 237.522 219.245C237.522 218.917 237.41 218.64 237.186 218.416C236.97 218.184 236.701 218.068 236.381 218.068H234.158V220.422H236.381ZM241.105 219.269C241.201 219.725 241.421 220.078 241.766 220.326C242.11 220.566 242.531 220.687 243.027 220.687C243.716 220.687 244.233 220.438 244.577 219.942L245.646 220.566C245.053 221.439 244.176 221.876 243.015 221.876C242.038 221.876 241.249 221.58 240.648 220.987C240.048 220.386 239.747 219.629 239.747 218.716C239.747 217.819 240.044 217.07 240.636 216.47C241.229 215.861 241.99 215.557 242.919 215.557C243.8 215.557 244.521 215.865 245.081 216.482C245.65 217.099 245.934 217.847 245.934 218.728C245.934 218.865 245.918 219.045 245.886 219.269H241.105ZM241.093 218.212H244.625C244.537 217.723 244.333 217.355 244.012 217.107C243.7 216.858 243.331 216.734 242.907 216.734C242.426 216.734 242.026 216.866 241.706 217.131C241.385 217.395 241.181 217.755 241.093 218.212ZM247.076 221.72V212.95H248.374V221.72H247.076ZM251.105 214.572C250.945 214.732 250.753 214.812 250.529 214.812C250.304 214.812 250.108 214.732 249.94 214.572C249.78 214.404 249.7 214.207 249.7 213.983C249.7 213.759 249.78 213.567 249.94 213.406C250.1 213.238 250.296 213.154 250.529 213.154C250.761 213.154 250.957 213.238 251.117 213.406C251.278 213.567 251.358 213.759 251.358 213.983C251.358 214.207 251.274 214.404 251.105 214.572ZM249.88 221.72V215.713H251.177V221.72H249.88ZM253.981 216.722C254.31 215.977 254.926 215.605 255.831 215.605V217.01C255.335 216.978 254.902 217.099 254.534 217.371C254.166 217.635 253.981 218.076 253.981 218.692V221.72H252.684V215.713H253.981V216.722ZM256.79 221.72V212.95H258.088V221.72H256.79ZM260.615 219.269C260.711 219.725 260.932 220.078 261.276 220.326C261.62 220.566 262.041 220.687 262.537 220.687C263.226 220.687 263.743 220.438 264.087 219.942L265.156 220.566C264.564 221.439 263.687 221.876 262.525 221.876C261.548 221.876 260.759 221.58 260.159 220.987C259.558 220.386 259.258 219.629 259.258 218.716C259.258 217.819 259.554 217.07 260.147 216.47C260.739 215.861 261.5 215.557 262.429 215.557C263.31 215.557 264.031 215.865 264.592 216.482C265.16 217.099 265.445 217.847 265.445 218.728C265.445 218.865 265.429 219.045 265.397 219.269H260.615ZM260.603 218.212H264.135C264.047 217.723 263.843 217.355 263.522 217.107C263.21 216.858 262.842 216.734 262.417 216.734C261.937 216.734 261.536 216.866 261.216 217.131C260.896 217.395 260.691 217.755 260.603 218.212ZM270.4 215.713H271.782L269.475 221.912C268.899 223.466 267.921 224.203 266.544 224.122V222.909C266.952 222.933 267.281 222.845 267.529 222.645C267.777 222.453 267.981 222.148 268.142 221.732L268.202 221.612L265.655 215.713H267.072L268.862 220.074L270.4 215.713ZM273.818 214.572C273.658 214.732 273.466 214.812 273.242 214.812C273.018 214.812 272.821 214.732 272.653 214.572C272.493 214.404 272.413 214.207 272.413 213.983C272.413 213.759 272.493 213.567 272.653 213.406C272.813 213.238 273.01 213.154 273.242 213.154C273.474 213.154 273.67 213.238 273.83 213.406C273.991 213.567 274.071 213.759 274.071 213.983C274.071 214.207 273.987 214.404 273.818 214.572ZM272.593 221.72V215.713H273.89V221.72H272.593ZM278.557 215.557C279.245 215.557 279.802 215.777 280.226 216.218C280.651 216.658 280.863 217.263 280.863 218.032V221.72H279.566V218.164C279.566 217.715 279.446 217.371 279.205 217.131C278.965 216.89 278.637 216.77 278.22 216.77C277.764 216.77 277.395 216.914 277.115 217.203C276.835 217.483 276.694 217.915 276.694 218.5V221.72H275.397V215.713H276.694V216.482C277.087 215.865 277.708 215.557 278.557 215.557Z"
                                fill="#0E0B3D" />
                            <path
                                d="M162.465 242.354C161.757 242.354 161.155 242.193 160.657 241.871C160.166 241.549 159.823 241.107 159.627 240.546L160.668 239.937C160.962 240.764 161.572 241.177 162.497 241.177C162.952 241.177 163.292 241.09 163.516 240.914C163.747 240.732 163.863 240.497 163.863 240.21C163.863 239.909 163.74 239.681 163.495 239.527C163.25 239.366 162.815 239.19 162.192 239.001C161.841 238.896 161.558 238.798 161.34 238.707C161.123 238.616 160.892 238.49 160.647 238.328C160.408 238.16 160.23 237.953 160.11 237.708C159.991 237.463 159.932 237.176 159.932 236.846C159.932 236.195 160.163 235.679 160.625 235.301C161.088 234.916 161.645 234.723 162.297 234.723C162.886 234.723 163.401 234.867 163.842 235.154C164.284 235.441 164.623 235.837 164.862 236.342L163.842 236.93C163.534 236.244 163.019 235.9 162.297 235.9C161.946 235.9 161.666 235.984 161.456 236.152C161.246 236.314 161.141 236.534 161.141 236.815C161.141 237.088 161.246 237.305 161.456 237.466C161.673 237.621 162.062 237.785 162.623 237.96C162.903 238.052 163.106 238.122 163.232 238.171C163.366 238.213 163.548 238.283 163.779 238.381C164.017 238.479 164.196 238.577 164.315 238.675C164.434 238.773 164.56 238.896 164.694 239.043C164.834 239.19 164.932 239.359 164.988 239.548C165.044 239.737 165.072 239.951 165.072 240.189C165.072 240.855 164.83 241.384 164.347 241.776C163.87 242.162 163.243 242.354 162.465 242.354ZM171.9 236.962H173.098L171.448 242.218H170.333L169.24 238.675L168.136 242.218H167.022L165.372 236.962H166.57L167.59 240.588L168.694 236.962H169.776L170.869 240.588L171.9 236.962ZM174.622 240.073C174.706 240.473 174.899 240.781 175.2 240.998C175.502 241.209 175.87 241.314 176.304 241.314C176.907 241.314 177.359 241.097 177.66 240.662L178.596 241.209C178.077 241.972 177.31 242.354 176.294 242.354C175.439 242.354 174.748 242.095 174.223 241.577C173.697 241.051 173.434 240.389 173.434 239.59C173.434 238.805 173.694 238.15 174.212 237.624C174.731 237.092 175.397 236.825 176.209 236.825C176.98 236.825 177.611 237.095 178.102 237.635C178.599 238.174 178.848 238.829 178.848 239.6C178.848 239.719 178.834 239.877 178.806 240.073H174.622ZM174.612 239.148H177.702C177.625 238.721 177.446 238.398 177.166 238.181C176.893 237.964 176.57 237.855 176.199 237.855C175.779 237.855 175.428 237.971 175.148 238.202C174.867 238.434 174.689 238.749 174.612 239.148ZM183.979 236.962H185.114V242.218H183.979V241.461C183.551 242.057 182.938 242.354 182.139 242.354C181.417 242.354 180.801 242.088 180.289 241.556C179.778 241.016 179.522 240.361 179.522 239.59C179.522 238.812 179.778 238.157 180.289 237.624C180.801 237.092 181.417 236.825 182.139 236.825C182.938 236.825 183.551 237.12 183.979 237.708V236.962ZM181.13 240.799C181.445 241.114 181.841 241.272 182.318 241.272C182.794 241.272 183.19 241.114 183.506 240.799C183.821 240.476 183.979 240.073 183.979 239.59C183.979 239.106 183.821 238.707 183.506 238.391C183.19 238.069 182.794 237.908 182.318 237.908C181.841 237.908 181.445 238.069 181.13 238.391C180.815 238.707 180.657 239.106 180.657 239.59C180.657 240.073 180.815 240.476 181.13 240.799ZM189.37 238.055H188.067V240.578C188.067 240.795 188.116 240.953 188.214 241.051C188.312 241.142 188.456 241.195 188.645 241.209C188.841 241.216 189.083 241.212 189.37 241.198V242.218C188.501 242.323 187.877 242.249 187.499 241.997C187.121 241.738 186.931 241.265 186.931 240.578V238.055H185.964V236.962H186.931V235.827L188.067 235.49V236.962H189.37V238.055ZM191.224 238.412C191.224 238.588 191.319 238.728 191.508 238.833C191.704 238.931 191.939 239.019 192.213 239.096C192.493 239.166 192.773 239.25 193.053 239.348C193.334 239.446 193.569 239.614 193.758 239.853C193.954 240.084 194.052 240.378 194.052 240.736C194.052 241.24 193.856 241.636 193.463 241.923C193.078 242.211 192.591 242.354 192.002 242.354C191.484 242.354 191.039 242.246 190.667 242.029C190.296 241.811 190.026 241.51 189.858 241.125L190.835 240.557C191.018 241.061 191.407 241.314 192.002 241.314C192.598 241.314 192.896 241.118 192.896 240.725C192.896 240.557 192.798 240.42 192.601 240.315C192.412 240.21 192.177 240.122 191.897 240.052C191.624 239.975 191.347 239.888 191.067 239.79C190.786 239.691 190.548 239.53 190.352 239.306C190.163 239.075 190.068 238.784 190.068 238.434C190.068 237.95 190.25 237.561 190.615 237.267C190.986 236.972 191.445 236.825 191.992 236.825C192.426 236.825 192.812 236.923 193.148 237.12C193.491 237.309 193.754 237.575 193.936 237.918L192.98 238.455C192.798 238.055 192.468 237.855 191.992 237.855C191.775 237.855 191.592 237.904 191.445 238.003C191.298 238.094 191.224 238.23 191.224 238.412ZM197.753 236.825C198.356 236.825 198.843 237.018 199.214 237.403C199.586 237.789 199.771 238.318 199.771 238.991V242.218H198.636V239.106C198.636 238.714 198.531 238.412 198.321 238.202C198.11 237.992 197.823 237.887 197.459 237.887C197.059 237.887 196.737 238.013 196.492 238.265C196.246 238.511 196.124 238.889 196.124 239.401V242.218H194.988V234.86H196.124V237.635C196.467 237.095 197.01 236.825 197.753 236.825ZM202.066 235.963C201.926 236.103 201.758 236.173 201.561 236.173C201.365 236.173 201.193 236.103 201.046 235.963C200.906 235.816 200.836 235.644 200.836 235.448C200.836 235.252 200.906 235.084 201.046 234.944C201.186 234.796 201.358 234.723 201.561 234.723C201.765 234.723 201.936 234.796 202.076 234.944C202.217 235.084 202.287 235.252 202.287 235.448C202.287 235.644 202.213 235.816 202.066 235.963ZM200.994 242.218V236.962H202.129V242.218H200.994ZM204.582 237.845C204.87 237.193 205.409 236.867 206.201 236.867V238.097C205.767 238.069 205.388 238.174 205.066 238.412C204.744 238.644 204.582 239.029 204.582 239.569V242.218H203.447V236.962H204.582V237.845ZM210.106 238.055H208.803V240.578C208.803 240.795 208.852 240.953 208.95 241.051C209.048 241.142 209.192 241.195 209.381 241.209C209.577 241.216 209.819 241.212 210.106 241.198V242.218C209.237 242.323 208.614 242.249 208.235 241.997C207.857 241.738 207.668 241.265 207.668 240.578V238.055H206.7V236.962H207.668V235.827L208.803 235.49V236.962H210.106V238.055ZM215.539 236.173C215.42 236.293 215.273 236.352 215.098 236.352C214.923 236.352 214.772 236.293 214.646 236.173C214.527 236.047 214.467 235.897 214.467 235.721C214.467 235.546 214.527 235.399 214.646 235.28C214.772 235.154 214.923 235.091 215.098 235.091C215.273 235.091 215.42 235.154 215.539 235.28C215.665 235.399 215.728 235.546 215.728 235.721C215.728 235.897 215.665 236.047 215.539 236.173ZM217.536 236.173C217.417 236.293 217.27 236.352 217.095 236.352C216.92 236.352 216.769 236.293 216.643 236.173C216.524 236.047 216.464 235.897 216.464 235.721C216.464 235.546 216.524 235.399 216.643 235.28C216.769 235.154 216.92 235.091 217.095 235.091C217.27 235.091 217.417 235.154 217.536 235.28C217.663 235.399 217.726 235.546 217.726 235.721C217.726 235.897 217.663 236.047 217.536 236.173ZM217.358 236.962H218.493V242.218H217.358V241.545C217.014 242.085 216.471 242.354 215.728 242.354C215.126 242.354 214.639 242.162 214.267 241.776C213.896 241.391 213.71 240.862 213.71 240.189V236.962H214.845V240.073C214.845 240.466 214.951 240.767 215.161 240.977C215.371 241.188 215.658 241.293 216.023 241.293C216.422 241.293 216.745 241.17 216.99 240.925C217.235 240.673 217.358 240.291 217.358 239.779V236.962ZM220.956 237.845C221.243 237.193 221.783 236.867 222.575 236.867V238.097C222.14 238.069 221.762 238.174 221.439 238.412C221.117 238.644 220.956 239.029 220.956 239.569V242.218H219.821V236.962H220.956V237.845ZM225.137 236.173C225.018 236.293 224.871 236.352 224.696 236.352C224.521 236.352 224.37 236.293 224.244 236.173C224.125 236.047 224.065 235.897 224.065 235.721C224.065 235.546 224.125 235.399 224.244 235.28C224.37 235.154 224.521 235.091 224.696 235.091C224.871 235.091 225.018 235.154 225.137 235.28C225.264 235.399 225.327 235.546 225.327 235.721C225.327 235.897 225.264 236.047 225.137 236.173ZM227.135 236.173C227.016 236.293 226.868 236.352 226.693 236.352C226.518 236.352 226.367 236.293 226.241 236.173C226.122 236.047 226.062 235.897 226.062 235.721C226.062 235.546 226.122 235.399 226.241 235.28C226.367 235.154 226.518 235.091 226.693 235.091C226.868 235.091 227.016 235.154 227.135 235.28C227.261 235.399 227.324 235.546 227.324 235.721C227.324 235.897 227.261 236.047 227.135 236.173ZM226.956 236.962H228.091V242.218H226.956V241.545C226.613 242.085 226.069 242.354 225.327 242.354C224.724 242.354 224.237 242.162 223.865 241.776C223.494 241.391 223.308 240.862 223.308 240.189V236.962H224.444V240.073C224.444 240.466 224.549 240.767 224.759 240.977C224.969 241.188 225.257 241.293 225.621 241.293C226.02 241.293 226.343 241.17 226.588 240.925C226.833 240.673 226.956 240.291 226.956 239.779V236.962ZM232.183 236.825C232.786 236.825 233.273 237.018 233.644 237.403C234.016 237.789 234.202 238.318 234.202 238.991V242.218H233.066V239.106C233.066 238.714 232.961 238.412 232.751 238.202C232.541 237.992 232.253 237.887 231.889 237.887C231.49 237.887 231.167 238.013 230.922 238.265C230.677 238.511 230.554 238.889 230.554 239.401V242.218H229.419V236.962H230.554V237.635C230.897 237.095 231.441 236.825 232.183 236.825ZM237.148 236.173C237.029 236.293 236.882 236.352 236.706 236.352C236.531 236.352 236.381 236.293 236.254 236.173C236.135 236.047 236.076 235.897 236.076 235.721C236.076 235.546 236.135 235.399 236.254 235.28C236.381 235.154 236.531 235.091 236.706 235.091C236.882 235.091 237.029 235.154 237.148 235.28C237.274 235.399 237.337 235.546 237.337 235.721C237.337 235.897 237.274 236.047 237.148 236.173ZM239.145 236.173C239.026 236.293 238.879 236.352 238.704 236.352C238.529 236.352 238.378 236.293 238.252 236.173C238.133 236.047 238.073 235.897 238.073 235.721C238.073 235.546 238.133 235.399 238.252 235.28C238.378 235.154 238.529 235.091 238.704 235.091C238.879 235.091 239.026 235.154 239.145 235.28C239.271 235.399 239.334 235.546 239.334 235.721C239.334 235.897 239.271 236.047 239.145 236.173ZM238.967 236.962H240.102V242.218H238.967V241.545C238.623 242.085 238.08 242.354 237.337 242.354C236.735 242.354 236.247 242.162 235.876 241.776C235.505 241.391 235.319 240.862 235.319 240.189V236.962H236.454V240.073C236.454 240.466 236.559 240.767 236.77 240.977C236.98 241.188 237.267 241.293 237.632 241.293C238.031 241.293 238.353 241.17 238.599 240.925C238.844 240.673 238.967 240.291 238.967 239.779V236.962ZM244.194 236.825C244.797 236.825 245.284 237.018 245.655 237.403C246.026 237.789 246.212 238.318 246.212 238.991V242.218H245.077V239.106C245.077 238.714 244.972 238.412 244.762 238.202C244.551 237.992 244.264 237.887 243.9 237.887C243.5 237.887 243.178 238.013 242.933 238.265C242.687 238.511 242.565 238.889 242.565 239.401V242.218H241.429V236.962H242.565V237.635C242.908 237.095 243.451 236.825 244.194 236.825ZM249.159 236.173C249.039 236.293 248.892 236.352 248.717 236.352C248.542 236.352 248.391 236.293 248.265 236.173C248.146 236.047 248.086 235.897 248.086 235.721C248.086 235.546 248.146 235.399 248.265 235.28C248.391 235.154 248.542 235.091 248.717 235.091C248.892 235.091 249.039 235.154 249.159 235.28C249.285 235.399 249.348 235.546 249.348 235.721C249.348 235.897 249.285 236.047 249.159 236.173ZM251.156 236.173C251.037 236.293 250.889 236.352 250.714 236.352C250.539 236.352 250.388 236.293 250.262 236.173C250.143 236.047 250.084 235.897 250.084 235.721C250.084 235.546 250.143 235.399 250.262 235.28C250.388 235.154 250.539 235.091 250.714 235.091C250.889 235.091 251.037 235.154 251.156 235.28C251.282 235.399 251.345 235.546 251.345 235.721C251.345 235.897 251.282 236.047 251.156 236.173ZM250.977 236.962H252.112V242.218H250.977V241.545C250.634 242.085 250.091 242.354 249.348 242.354C248.745 242.354 248.258 242.162 247.887 241.776C247.515 241.391 247.329 240.862 247.329 240.189V236.962H248.465V240.073C248.465 240.466 248.57 240.767 248.78 240.977C248.99 241.188 249.278 241.293 249.642 241.293C250.042 241.293 250.364 241.17 250.609 240.925C250.854 240.673 250.977 240.291 250.977 239.779V236.962ZM254.796 241.146H257.35V242.218H253.251V241.461L255.71 238.034H253.356V236.962H257.245V237.719L254.796 241.146ZM262.109 235.963C261.968 236.103 261.8 236.173 261.604 236.173C261.408 236.173 261.236 236.103 261.089 235.963C260.949 235.816 260.879 235.644 260.879 235.448C260.879 235.252 260.949 235.084 261.089 234.944C261.229 234.796 261.401 234.723 261.604 234.723C261.807 234.723 261.979 234.796 262.119 234.944C262.259 235.084 262.329 235.252 262.329 235.448C262.329 235.644 262.256 235.816 262.109 235.963ZM261.036 242.218V236.962H262.172V242.218H261.036ZM268.336 240.988C268.154 241.338 267.894 241.629 267.558 241.86C267.228 242.092 266.861 242.242 266.454 242.312V242.701C266.692 242.743 266.889 242.834 267.043 242.975C267.197 243.122 267.274 243.307 267.274 243.532C267.274 244.261 266.521 244.579 265.014 244.488V243.658C265.862 243.728 266.286 243.64 266.286 243.395C266.286 243.206 266.03 243.101 265.519 243.08V242.323C264.839 242.218 264.282 241.913 263.847 241.408C263.413 240.897 263.195 240.291 263.195 239.59C263.195 238.805 263.458 238.15 263.984 237.624C264.516 237.092 265.179 236.825 265.971 236.825C266.482 236.825 266.948 236.948 267.369 237.193C267.789 237.438 268.104 237.768 268.315 238.181L267.337 238.749C267.218 238.497 267.036 238.3 266.79 238.16C266.552 238.013 266.275 237.939 265.96 237.939C265.498 237.939 265.109 238.097 264.793 238.412C264.485 238.728 264.331 239.12 264.331 239.59C264.331 240.059 264.485 240.452 264.793 240.767C265.109 241.082 265.498 241.24 265.96 241.24C266.268 241.24 266.545 241.167 266.79 241.019C267.043 240.872 267.232 240.676 267.358 240.431L268.336 240.988ZM270.228 235.963C270.088 236.103 269.92 236.173 269.724 236.173C269.528 236.173 269.356 236.103 269.209 235.963C269.069 235.816 268.999 235.644 268.999 235.448C268.999 235.252 269.069 235.084 269.209 234.944C269.349 234.796 269.521 234.723 269.724 234.723C269.927 234.723 270.099 234.796 270.239 234.944C270.379 235.084 270.449 235.252 270.449 235.448C270.449 235.644 270.376 235.816 270.228 235.963ZM269.156 242.218V236.962H270.292V242.218H269.156ZM274.374 236.825C274.977 236.825 275.464 237.018 275.835 237.403C276.207 237.789 276.393 238.318 276.393 238.991V242.218H275.257V239.106C275.257 238.714 275.152 238.412 274.942 238.202C274.732 237.992 274.444 237.887 274.08 237.887C273.681 237.887 273.358 238.013 273.113 238.265C272.868 238.511 272.745 238.889 272.745 239.401V242.218H271.61V236.962H272.745V237.635C273.088 237.095 273.632 236.825 274.374 236.825ZM281.263 238.412C281.263 238.588 281.357 238.728 281.546 238.833C281.743 238.931 281.977 239.019 282.251 239.096C282.531 239.166 282.811 239.25 283.092 239.348C283.372 239.446 283.607 239.614 283.796 239.853C283.992 240.084 284.09 240.378 284.09 240.736C284.09 241.24 283.894 241.636 283.502 241.923C283.116 242.211 282.629 242.354 282.04 242.354C281.522 242.354 281.077 242.246 280.705 242.029C280.334 241.811 280.064 241.51 279.896 241.125L280.874 240.557C281.056 241.061 281.445 241.314 282.04 241.314C282.636 241.314 282.934 241.118 282.934 240.725C282.934 240.557 282.836 240.42 282.64 240.315C282.45 240.21 282.216 240.122 281.935 240.052C281.662 239.975 281.385 239.888 281.105 239.79C280.825 239.691 280.586 239.53 280.39 239.306C280.201 239.075 280.106 238.784 280.106 238.434C280.106 237.95 280.289 237.561 280.653 237.267C281.024 236.972 281.483 236.825 282.03 236.825C282.464 236.825 282.85 236.923 283.186 237.12C283.53 237.309 283.792 237.575 283.975 237.918L283.018 238.455C282.836 238.055 282.507 237.855 282.03 237.855C281.813 237.855 281.631 237.904 281.483 238.003C281.336 238.094 281.263 238.23 281.263 238.412ZM285.848 240.073C285.932 240.473 286.125 240.781 286.426 240.998C286.728 241.209 287.096 241.314 287.53 241.314C288.133 241.314 288.585 241.097 288.886 240.662L289.822 241.209C289.303 241.972 288.536 242.354 287.52 242.354C286.665 242.354 285.974 242.095 285.449 241.577C284.923 241.051 284.66 240.389 284.66 239.59C284.66 238.805 284.92 238.15 285.438 237.624C285.957 237.092 286.623 236.825 287.436 236.825C288.206 236.825 288.837 237.095 289.328 237.635C289.825 238.174 290.074 238.829 290.074 239.6C290.074 239.719 290.06 239.877 290.032 240.073H285.848ZM285.838 239.148H288.928C288.851 238.721 288.672 238.398 288.392 238.181C288.119 237.964 287.797 237.855 287.425 237.855C287.005 237.855 286.654 237.971 286.374 238.202C286.094 238.434 285.915 238.749 285.838 239.148ZM295.888 240.988C295.706 241.338 295.447 241.629 295.11 241.86C294.781 242.092 294.413 242.242 294.007 242.312V242.701C294.245 242.743 294.441 242.834 294.595 242.975C294.749 243.122 294.826 243.307 294.826 243.532C294.826 244.261 294.073 244.579 292.566 244.488V243.658C293.414 243.728 293.838 243.64 293.838 243.395C293.838 243.206 293.583 243.101 293.071 243.08V242.323C292.391 242.218 291.834 241.913 291.4 241.408C290.965 240.897 290.748 240.291 290.748 239.59C290.748 238.805 291.011 238.15 291.536 237.624C292.069 237.092 292.731 236.825 293.523 236.825C294.035 236.825 294.501 236.948 294.921 237.193C295.342 237.438 295.657 237.768 295.867 238.181L294.89 238.749C294.77 238.497 294.588 238.3 294.343 238.16C294.105 238.013 293.828 237.939 293.512 237.939C293.05 237.939 292.661 238.097 292.346 238.412C292.037 238.728 291.883 239.12 291.883 239.59C291.883 240.059 292.037 240.452 292.346 240.767C292.661 241.082 293.05 241.24 293.512 241.24C293.821 241.24 294.098 241.167 294.343 241.019C294.595 240.872 294.784 240.676 294.911 240.431L295.888 240.988ZM297.781 235.963C297.641 236.103 297.473 236.173 297.276 236.173C297.08 236.173 296.908 236.103 296.761 235.963C296.621 235.816 296.551 235.644 296.551 235.448C296.551 235.252 296.621 235.084 296.761 234.944C296.901 234.796 297.073 234.723 297.276 234.723C297.48 234.723 297.651 234.796 297.791 234.944C297.932 235.084 298.002 235.252 298.002 235.448C298.002 235.644 297.928 235.816 297.781 235.963ZM296.709 242.218V236.962H297.844V242.218H296.709ZM304.902 236.825C305.497 236.825 305.977 237.018 306.342 237.403C306.706 237.789 306.888 238.307 306.888 238.959V242.218H305.753V239.033C305.753 238.668 305.662 238.388 305.48 238.192C305.298 237.989 305.049 237.887 304.733 237.887C304.383 237.887 304.103 238.003 303.893 238.234C303.689 238.465 303.588 238.812 303.588 239.274V242.218H302.452V239.033C302.452 238.668 302.365 238.388 302.19 238.192C302.021 237.989 301.78 237.887 301.464 237.887C301.121 237.887 300.841 238.006 300.623 238.244C300.406 238.476 300.297 238.819 300.297 239.274V242.218H299.162V236.962H300.297V237.593C300.634 237.081 301.135 236.825 301.801 236.825C302.473 236.825 302.971 237.102 303.293 237.656C303.644 237.102 304.18 236.825 304.902 236.825ZM314.274 236.962H315.483L313.464 242.386C312.96 243.745 312.105 244.39 310.9 244.32V243.258C311.257 243.279 311.544 243.202 311.761 243.027C311.979 242.859 312.157 242.593 312.298 242.228L312.35 242.123L310.122 236.962H311.362L312.928 240.778L314.274 236.962ZM320.15 236.962H321.285V242.218H320.15V241.461C319.722 242.057 319.109 242.354 318.31 242.354C317.589 242.354 316.972 242.088 316.46 241.556C315.949 241.016 315.693 240.361 315.693 239.59C315.693 238.812 315.949 238.157 316.46 237.624C316.972 237.092 317.589 236.825 318.31 236.825C319.109 236.825 319.722 237.12 320.15 237.708V236.962ZM317.301 240.799C317.617 241.114 318.013 241.272 318.489 241.272C318.966 241.272 319.362 241.114 319.677 240.799C319.992 240.476 320.15 240.073 320.15 239.59C320.15 239.106 319.992 238.707 319.677 238.391C319.362 238.069 318.966 237.908 318.489 237.908C318.013 237.908 317.617 238.069 317.301 238.391C316.986 238.707 316.828 239.106 316.828 239.59C316.828 240.073 316.986 240.476 317.301 240.799ZM325.583 236.825C326.305 236.825 326.922 237.095 327.433 237.635C327.945 238.167 328.201 238.819 328.201 239.59C328.201 240.368 327.945 241.023 327.433 241.556C326.922 242.088 326.305 242.354 325.583 242.354C324.784 242.354 324.171 242.06 323.744 241.471V244.32H322.608V236.962H323.744V237.719C324.171 237.123 324.784 236.825 325.583 236.825ZM324.217 240.799C324.532 241.114 324.928 241.272 325.405 241.272C325.881 241.272 326.277 241.114 326.592 240.799C326.908 240.476 327.065 240.073 327.065 239.59C327.065 239.106 326.908 238.707 326.592 238.391C326.277 238.069 325.881 237.908 325.405 237.908C324.928 237.908 324.532 238.069 324.217 238.391C323.901 238.707 323.744 239.106 323.744 239.59C323.744 240.073 323.901 240.476 324.217 240.799ZM329.23 242.218V236.962H330.365V242.218H329.23ZM334.448 236.825C335.05 236.825 335.537 237.018 335.909 237.403C336.28 237.789 336.466 238.318 336.466 238.991V242.218H335.331V239.106C335.331 238.714 335.226 238.412 335.015 238.202C334.805 237.992 334.518 237.887 334.153 237.887C333.754 237.887 333.432 238.013 333.186 238.265C332.941 238.511 332.818 238.889 332.818 239.401V242.218H331.683V236.962H332.818V237.635C333.162 237.095 333.705 236.825 334.448 236.825ZM337.92 239.905L337.688 236.962V234.86H339.055V236.962L338.813 239.905H337.92ZM338.929 242.113C338.775 242.267 338.589 242.344 338.372 242.344C338.154 242.344 337.969 242.267 337.815 242.113C337.66 241.958 337.583 241.773 337.583 241.556C337.583 241.338 337.657 241.153 337.804 240.998C337.958 240.844 338.147 240.767 338.372 240.767C338.589 240.767 338.775 240.844 338.929 240.998C339.083 241.153 339.16 241.338 339.16 241.556C339.16 241.773 339.083 241.958 338.929 242.113Z"
                                fill="#445B78" />
                            <path opacity="0.1"
                                d="M197.88 336.848H159.278C158.331 336.848 157.562 337.613 157.562 338.557V339.412C157.562 340.356 158.331 341.122 159.278 341.122H197.88C198.828 341.122 199.596 340.356 199.596 339.412V338.557C199.596 337.613 198.828 336.848 197.88 336.848Z"
                                fill="#445B78" />
                            <path opacity="0.25"
                                d="M390.892 336.42H311.972C311.024 336.42 310.256 337.185 310.256 338.129V339.838C310.256 340.782 311.024 341.547 311.972 341.547H390.892C391.84 341.547 392.608 340.782 392.608 339.838V338.129C392.608 337.185 391.84 336.42 390.892 336.42Z"
                                fill="#445B78" />
                            <path
                                d="M392.179 359.481H157.991C157.754 359.481 157.562 359.673 157.562 359.91C157.562 360.147 157.754 360.339 157.991 360.339H392.179C392.416 360.339 392.608 360.147 392.608 359.91C392.608 359.673 392.416 359.481 392.179 359.481Z"
                                fill="#445B78" fill-opacity="0.15" />
                            <path opacity="0.1"
                                d="M188.445 376.138H159.278C158.331 376.138 157.563 376.903 157.563 377.847V378.702C157.563 379.647 158.331 380.412 159.278 380.412H188.445C189.392 380.412 190.16 379.647 190.16 378.702V377.847C190.16 376.903 189.392 376.138 188.445 376.138Z"
                                fill="#445B78" />
                            <path opacity="0.25"
                                d="M390.893 375.71H341.139C340.191 375.71 339.423 376.475 339.423 377.419V379.128C339.423 380.072 340.191 380.837 341.139 380.837H390.893C391.841 380.837 392.609 380.072 392.609 379.128V377.419C392.609 376.475 391.841 375.71 390.893 375.71Z"
                                fill="#445B78" />
                            <rect opacity="0.2" x="157.562" y="394.501" width="235.045" height="34.1674" rx="17.0837"
                                fill="#23BC88" />
                            <path
                                d="M239.668 414.888C238.96 414.888 238.358 414.726 237.86 414.404C237.37 414.082 237.026 413.64 236.83 413.08L237.871 412.47C238.165 413.297 238.775 413.71 239.7 413.71C240.155 413.71 240.495 413.623 240.719 413.448C240.951 413.265 241.066 413.031 241.066 412.743C241.066 412.442 240.944 412.214 240.698 412.06C240.453 411.899 240.019 411.724 239.395 411.534C239.045 411.429 238.761 411.331 238.543 411.24C238.326 411.149 238.095 411.023 237.85 410.862C237.611 410.693 237.433 410.487 237.314 410.241C237.194 409.996 237.135 409.709 237.135 409.379C237.135 408.728 237.366 408.213 237.829 407.834C238.291 407.449 238.848 407.256 239.5 407.256C240.089 407.256 240.604 407.4 241.045 407.687C241.487 407.974 241.827 408.37 242.065 408.875L241.045 409.464C240.737 408.777 240.222 408.433 239.5 408.433C239.15 408.433 238.869 408.517 238.659 408.686C238.449 408.847 238.344 409.068 238.344 409.348C238.344 409.621 238.449 409.838 238.659 410C238.876 410.154 239.265 410.318 239.826 410.494C240.106 410.585 240.309 410.655 240.436 410.704C240.569 410.746 240.751 410.816 240.982 410.914C241.22 411.012 241.399 411.11 241.518 411.208C241.637 411.307 241.764 411.429 241.897 411.576C242.037 411.724 242.135 411.892 242.191 412.081C242.247 412.27 242.275 412.484 242.275 412.722C242.275 413.388 242.033 413.917 241.55 414.309C241.073 414.695 240.446 414.888 239.668 414.888ZM244.28 412.607C244.364 413.006 244.557 413.314 244.858 413.532C245.16 413.742 245.528 413.847 245.962 413.847C246.565 413.847 247.017 413.63 247.318 413.195L248.254 413.742C247.735 414.506 246.968 414.888 245.952 414.888C245.097 414.888 244.406 414.628 243.881 414.11C243.355 413.584 243.092 412.922 243.092 412.123C243.092 411.338 243.352 410.683 243.87 410.157C244.389 409.625 245.055 409.358 245.868 409.358C246.638 409.358 247.269 409.628 247.76 410.168C248.257 410.707 248.506 411.363 248.506 412.134C248.506 412.253 248.492 412.41 248.464 412.607H244.28ZM244.27 411.682H247.36C247.283 411.254 247.104 410.932 246.824 410.714C246.551 410.497 246.228 410.389 245.857 410.389C245.437 410.389 245.086 410.504 244.806 410.735C244.526 410.967 244.347 411.282 244.27 411.682ZM254.32 413.521C254.138 413.871 253.879 414.162 253.542 414.394C253.213 414.625 252.845 414.776 252.439 414.846V415.235C252.677 415.277 252.873 415.368 253.027 415.508C253.181 415.655 253.258 415.841 253.258 416.065C253.258 416.794 252.505 417.113 250.998 417.022V416.191C251.846 416.261 252.27 416.174 252.27 415.928C252.27 415.739 252.015 415.634 251.503 415.613V414.856C250.823 414.751 250.266 414.446 249.832 413.942C249.397 413.43 249.18 412.824 249.18 412.123C249.18 411.338 249.443 410.683 249.968 410.157C250.501 409.625 251.163 409.358 251.955 409.358C252.467 409.358 252.933 409.481 253.353 409.726C253.774 409.972 254.089 410.301 254.299 410.714L253.322 411.282C253.202 411.03 253.02 410.834 252.775 410.693C252.537 410.546 252.26 410.473 251.944 410.473C251.482 410.473 251.093 410.63 250.778 410.946C250.469 411.261 250.315 411.653 250.315 412.123C250.315 412.593 250.469 412.985 250.778 413.3C251.093 413.616 251.482 413.773 251.944 413.773C252.253 413.773 252.53 413.7 252.775 413.553C253.027 413.405 253.216 413.209 253.343 412.964L254.32 413.521ZM256.213 408.496C256.073 408.637 255.905 408.707 255.708 408.707C255.512 408.707 255.34 408.637 255.193 408.496C255.053 408.349 254.983 408.178 254.983 407.981C254.983 407.785 255.053 407.617 255.193 407.477C255.333 407.33 255.505 407.256 255.708 407.256C255.912 407.256 256.083 407.33 256.223 407.477C256.364 407.617 256.434 407.785 256.434 407.981C256.434 408.178 256.36 408.349 256.213 408.496ZM255.141 414.751V409.495H256.276V414.751H255.141ZM263.334 409.358C263.929 409.358 264.409 409.551 264.774 409.937C265.138 410.322 265.32 410.841 265.32 411.492V414.751H264.185V411.566C264.185 411.201 264.094 410.921 263.912 410.725C263.73 410.522 263.481 410.42 263.165 410.42C262.815 410.42 262.535 410.536 262.324 410.767C262.121 410.998 262.02 411.345 262.02 411.808V414.751H260.884V411.566C260.884 411.201 260.797 410.921 260.622 410.725C260.453 410.522 260.212 410.42 259.896 410.42C259.553 410.42 259.273 410.539 259.055 410.778C258.838 411.009 258.729 411.352 258.729 411.808V414.751H257.594V409.495H258.729V410.126C259.066 409.614 259.567 409.358 260.233 409.358C260.905 409.358 261.403 409.635 261.725 410.189C262.076 409.635 262.612 409.358 263.334 409.358ZM267.608 408.496C267.467 408.637 267.299 408.707 267.103 408.707C266.907 408.707 266.735 408.637 266.588 408.496C266.448 408.349 266.378 408.178 266.378 407.981C266.378 407.785 266.448 407.617 266.588 407.477C266.728 407.33 266.9 407.256 267.103 407.256C267.306 407.256 267.478 407.33 267.618 407.477C267.758 407.617 267.828 407.785 267.828 407.981C267.828 408.178 267.755 408.349 267.608 408.496ZM266.535 414.751V409.495H267.671V414.751H266.535ZM276.41 414.194C275.892 414.656 275.222 414.888 274.402 414.888C273.582 414.888 272.913 414.656 272.395 414.194C271.876 413.724 271.617 413.097 271.617 412.312V407.393H272.826V412.239C272.826 412.687 272.955 413.045 273.215 413.311C273.481 413.577 273.877 413.71 274.402 413.71C274.928 413.71 275.32 413.577 275.58 413.311C275.846 413.045 275.979 412.687 275.979 412.239V407.393H277.188V412.312C277.188 413.097 276.929 413.724 276.41 414.194ZM282.047 409.495H283.256L281.238 414.919C280.733 416.279 279.878 416.923 278.673 416.853V415.792C279.03 415.813 279.318 415.736 279.535 415.56C279.752 415.392 279.931 415.126 280.071 414.761L280.124 414.656L277.895 409.495H279.136L280.702 413.311L282.047 409.495ZM287.944 409.495H289.059V414.509C289.059 415.308 288.796 415.921 288.27 416.349C287.745 416.776 287.107 416.99 286.357 416.99C285.145 416.99 284.314 416.566 283.866 415.718L284.844 415.15C285.117 415.69 285.628 415.96 286.378 415.96C286.869 415.96 287.251 415.83 287.524 415.571C287.804 415.319 287.944 414.965 287.944 414.509V413.868C287.517 414.478 286.907 414.783 286.115 414.783C285.373 414.783 284.745 414.52 284.234 413.994C283.722 413.462 283.466 412.82 283.466 412.07C283.466 411.321 283.722 410.683 284.234 410.157C284.745 409.625 285.373 409.358 286.115 409.358C286.907 409.358 287.517 409.663 287.944 410.273V409.495ZM285.075 413.248C285.397 413.563 285.797 413.721 286.273 413.721C286.75 413.721 287.146 413.563 287.461 413.248C287.783 412.932 287.944 412.54 287.944 412.07C287.944 411.601 287.783 411.208 287.461 410.893C287.146 410.578 286.75 410.42 286.273 410.42C285.797 410.42 285.397 410.578 285.075 410.893C284.759 411.208 284.602 411.601 284.602 412.07C284.602 412.54 284.759 412.932 285.075 413.248ZM293.924 409.495H295.06V414.751H293.924V414.078C293.581 414.618 293.038 414.888 292.295 414.888C291.692 414.888 291.205 414.695 290.834 414.309C290.463 413.924 290.277 413.395 290.277 412.722V409.495H291.412V412.607C291.412 412.999 291.517 413.3 291.728 413.511C291.938 413.721 292.225 413.826 292.589 413.826C292.989 413.826 293.311 413.703 293.557 413.458C293.802 413.206 293.924 412.824 293.924 412.312V409.495ZM296.387 414.751V407.077H297.523V414.751H296.387ZM303.003 409.495H304.139V414.751H303.003V413.994C302.576 414.59 301.963 414.888 301.164 414.888C300.442 414.888 299.825 414.621 299.314 414.089C298.802 413.549 298.546 412.894 298.546 412.123C298.546 411.345 298.802 410.69 299.314 410.157C299.825 409.625 300.442 409.358 301.164 409.358C301.963 409.358 302.576 409.653 303.003 410.241V409.495ZM300.155 413.332C300.47 413.647 300.866 413.805 301.343 413.805C301.819 413.805 302.215 413.647 302.53 413.332C302.846 413.01 303.003 412.607 303.003 412.123C303.003 411.639 302.846 411.24 302.53 410.925C302.215 410.602 301.819 410.441 301.343 410.441C300.866 410.441 300.47 410.602 300.155 410.925C299.839 411.24 299.682 411.639 299.682 412.123C299.682 412.607 299.839 413.01 300.155 413.332Z"
                                fill="#23BC88" />
                            <rect x="159.28" y="259.55" width="68.6264" height="68.33" rx="19.3948" fill="white" />
                            <rect x="159.655" y="259.925" width="67.8755" height="67.5792" rx="19.0194" stroke="#445B78"
                                stroke-opacity="0.15" stroke-width="0.750844" />
                            <rect x="173.003" y="262.967" width="42.0337" height="61.4986" rx="19.3948"
                                fill="url(#pattern20123)" />
                            <ellipse cx="251.068" cy="293.717" rx="10.294" ry="10.251" fill="#CF3434" />
                            <ellipse cx="285.378" cy="293.716" rx="10.294" ry="10.251" fill="#8ADA88" />
                            <path
                                d="M285.379 299.411C288.524 299.411 291.098 296.848 291.098 293.716C291.098 290.583 288.524 288.021 285.379 288.021C282.233 288.021 279.66 290.583 279.66 293.716C279.66 296.848 282.233 299.411 285.379 299.411Z"
                                stroke="white" stroke-width="1.12627" stroke-linecap="round" stroke-linejoin="round" />
                            <path d="M282.948 293.716L284.567 295.328L287.809 292.104" stroke="white"
                                stroke-width="1.12627" stroke-linecap="round" stroke-linejoin="round" />
                            <ellipse cx="319.693" cy="293.717" rx="10.294" ry="10.251" fill="#4BA3E2" />
                            <ellipse cx="354.005" cy="293.717" rx="10.294" ry="10.251" fill="#F58721" />
                            <defs>
                                <filter id="filter0_d_172_34772" x="0.199013" y="139.306" width="179.205"
                                    height="359.408" filterUnits="userSpaceOnUse" color-interpolation-filters="sRGB">
                                    <feFlood flood-opacity="0" result="BackgroundImageFix" />
                                    <feColorMatrix in="SourceAlpha" type="matrix"
                                        values="0 0 0 0 0 0 0 0 0 0 0 0 0 0 0 0 0 0 127 0" result="hardAlpha" />
                                    <feOffset dy="13.6616" />
                                    <feGaussianBlur stdDeviation="32.7878" />
                                    <feComposite in2="hardAlpha" operator="out" />
                                    <feColorMatrix type="matrix" values="0 0 0 0 0 0 0 0 0 0 0 0 0 0 0 0 0 0 0.04 0" />
                                    <feBlend mode="normal" in2="BackgroundImageFix"
                                        result="effect1_dropShadow_172_34772" />
                                    <feBlend mode="normal" in="SourceGraphic" in2="effect1_dropShadow_172_34772"
                                        result="shape" />
                                </filter>
                                <filter id="filter1_d_172_34772" x="66.0331" y="133.699" width="413.816"
                                    height="403.261" filterUnits="userSpaceOnUse" color-interpolation-filters="sRGB">
                                    <feFlood flood-opacity="0" result="BackgroundImageFix" />
                                    <feColorMatrix in="SourceAlpha" type="matrix"
                                        values="0 0 0 0 0 0 0 0 0 0 0 0 0 0 0 0 0 0 127 0" result="hardAlpha" />
                                    <feOffset dy="15.137" />
                                    <feGaussianBlur stdDeviation="36.3288" />
                                    <feComposite in2="hardAlpha" operator="out" />
                                    <feColorMatrix type="matrix" values="0 0 0 0 0 0 0 0 0 0 0 0 0 0 0 0 0 0 0.04 0" />
                                    <feBlend mode="normal" in2="BackgroundImageFix"
                                        result="effect1_dropShadow_172_34772" />
                                    <feBlend mode="normal" in="SourceGraphic" in2="effect1_dropShadow_172_34772"
                                        result="shape" />
                                </filter>
                                <filter id="filter2_d_172_34772" x="136.265" y="0.90805" width="408.294"
                                    height="256.527" filterUnits="userSpaceOnUse" color-interpolation-filters="sRGB">
                                    <feFlood flood-opacity="0" result="BackgroundImageFix" />
                                    <feColorMatrix in="SourceAlpha" type="matrix"
                                        values="0 0 0 0 0 0 0 0 0 0 0 0 0 0 0 0 0 0 127 0" result="hardAlpha" />
                                    <feOffset dy="15.137" />
                                    <feGaussianBlur stdDeviation="36.3288" />
                                    <feComposite in2="hardAlpha" operator="out" />
                                    <feColorMatrix type="matrix" values="0 0 0 0 0 0 0 0 0 0 0 0 0 0 0 0 0 0 0.04 0" />
                                    <feBlend mode="normal" in2="BackgroundImageFix"
                                        result="effect1_dropShadow_172_34772" />
                                    <feBlend mode="normal" in="SourceGraphic" in2="effect1_dropShadow_172_34772"
                                        result="shape" />
                                </filter>
                                <pattern id="pattern0a132" patternContentUnits="objectBoundingBox" width="1" height="1">
                                    <use xlink:href="#image0_172_34772as213"
                                        transform="matrix(0.00074359 0 0 0.000708181 -0.613807 0)" />
                                </pattern>
                                <pattern id="pattern141" patternContentUnits="objectBoundingBox" width="1" height="1">
                                    <use xlink:href="#image1_172_3477212324z"
                                        transform="matrix(0.000306758 0 0 0.000244548 0 -0.000834725)" />
                                </pattern>
                                <pattern id="0123" patternContentUnits="objectBoundingBox" width="1" height="1">
                                    <use xlink:href="#image0_172_34772"
                                        transform="matrix(0.00074359 0 0 0.000519835 -0.613807 0)" />
                                </pattern>
                                <linearGradient id="paint0_linear_172_34772" x1="73.6879" y1="127.871" x2="74.4104"
                                    y2="151.979" gradientUnits="userSpaceOnUse">
                                    <stop stop-color="#19EA9F" />
                                    <stop offset="1" stop-color="#24BD8F" />
                                </linearGradient>
                                <linearGradient id="paint1_linear_172_34772" x1="73.6877" y1="118.289" x2="75.0991"
                                    y2="151.97" gradientUnits="userSpaceOnUse">
                                    <stop stop-color="#19EA9F" />
                                    <stop offset="1" stop-color="#24BD8F" />
                                </linearGradient>
                                <image id="image0_172_34772as213" width="3000" height="1500" xlink:href="./Hoodie_Mockup1.png"></image>
                                <image id="image1_172_3477212324z" width="3594" height="4096" xlink:href="./bag.png"></image>
                            </defs>
                        </svg>