    <svg width="399" height="417" viewBox="0 0 399 417" fill="none"
                            xmlns="http://www.w3.org/2000/svg" xmlns:xlink="http://www.w3.org/1999/xlink">
                            <rect x="13.6284" y="12.6895" width="134.828" height="134.828" rx="19.0345"
                                fill="url(#paint0_linear_172_34904)" />
                            <rect opacity="0.5" x="0.000915527" y="109.461" width="60.9797" height="53.3572"
                                transform="rotate(-15 0.000915527 109.461)" fill="url(#pattern13z9913z99)" />
                            <rect opacity="0.5" x="103.222" width="61.5692" height="53.873"
                                transform="rotate(15 103.222 0)" fill="url(#pattern1)" />
                            <rect x="36.6289" y="31.7236" width="109.448" height="95.9655" fill="url(#pattern2)" />
                            <g filter="url(#filter0_d_172_34904)">
                                <rect x="121.001" y="76.9746" width="241.705" height="296.089" rx="18.1279"
                                    fill="white" />
                            </g>
                            <path
                                d="M149.191 99.5854V109.103H147.627V102.318L144.731 107.104H144.541L141.645 102.305V109.103H140.082V99.5854H141.767L144.636 104.344L147.519 99.5854H149.191ZM156.377 102.305H157.846V109.103H156.377V108.124C155.824 108.894 155.031 109.279 153.998 109.279C153.064 109.279 152.267 108.935 151.605 108.246C150.943 107.548 150.613 106.701 150.613 105.704C150.613 104.697 150.943 103.85 151.605 103.161C152.267 102.472 153.064 102.128 153.998 102.128C155.031 102.128 155.824 102.509 156.377 103.27V102.305ZM152.693 107.267C153.101 107.675 153.613 107.879 154.229 107.879C154.845 107.879 155.358 107.675 155.765 107.267C156.173 106.85 156.377 106.329 156.377 105.704C156.377 105.078 156.173 104.562 155.765 104.154C155.358 103.737 154.845 103.528 154.229 103.528C153.613 103.528 153.101 103.737 152.693 104.154C152.285 104.562 152.081 105.078 152.081 105.704C152.081 106.329 152.285 106.85 152.693 107.267ZM162.793 101.53C162.113 101.53 161.583 101.366 161.202 101.04C160.831 100.705 160.645 100.233 160.645 99.6262H161.977C161.977 100.161 162.249 100.428 162.793 100.428C163.328 100.428 163.595 100.161 163.595 99.6262H164.927C164.927 100.233 164.737 100.705 164.356 101.04C163.985 101.366 163.464 101.53 162.793 101.53ZM164.968 102.305H166.409V108.79C166.409 109.823 166.07 110.616 165.39 111.169C164.71 111.722 163.885 111.998 162.915 111.998C161.347 111.998 160.273 111.45 159.693 110.353L160.957 109.619C161.311 110.317 161.973 110.666 162.942 110.666C163.577 110.666 164.071 110.498 164.424 110.163C164.787 109.837 164.968 109.379 164.968 108.79V107.96C164.415 108.749 163.627 109.143 162.603 109.143C161.642 109.143 160.831 108.803 160.169 108.124C159.507 107.435 159.176 106.605 159.176 105.636C159.176 104.666 159.507 103.841 160.169 103.161C160.831 102.472 161.642 102.128 162.603 102.128C163.627 102.128 164.415 102.522 164.968 103.311V102.305ZM161.257 107.158C161.674 107.566 162.19 107.77 162.807 107.77C163.423 107.77 163.935 107.566 164.343 107.158C164.76 106.75 164.968 106.243 164.968 105.636C164.968 105.028 164.76 104.521 164.343 104.113C163.935 103.705 163.423 103.501 162.807 103.501C162.19 103.501 161.674 103.705 161.257 104.113C160.849 104.521 160.645 105.028 160.645 105.636C160.645 106.243 160.849 106.75 161.257 107.158ZM173.505 102.305H174.973V109.103H173.505V108.124C172.952 108.894 172.159 109.279 171.126 109.279C170.192 109.279 169.394 108.935 168.733 108.246C168.071 107.548 167.74 106.701 167.74 105.704C167.74 104.697 168.071 103.85 168.733 103.161C169.394 102.472 170.192 102.128 171.126 102.128C172.159 102.128 172.952 102.509 173.505 103.27V102.305ZM169.82 107.267C170.228 107.675 170.74 107.879 171.357 107.879C171.973 107.879 172.485 107.675 172.893 107.267C173.301 106.85 173.505 106.329 173.505 105.704C173.505 105.078 173.301 104.562 172.893 104.154C172.485 103.737 171.973 103.528 171.357 103.528C170.74 103.528 170.228 103.737 169.82 104.154C169.413 104.562 169.209 105.078 169.209 105.704C169.209 106.329 169.413 106.85 169.82 107.267ZM178.439 107.716H181.742V109.103H176.44V108.124L179.621 103.691H176.576V102.305H181.606V103.283L178.439 107.716ZM188.083 102.305H189.552V109.103H188.083V108.124C187.53 108.894 186.737 109.279 185.704 109.279C184.77 109.279 183.973 108.935 183.311 108.246C182.649 107.548 182.319 106.701 182.319 105.704C182.319 104.697 182.649 103.85 183.311 103.161C183.973 102.472 184.77 102.128 185.704 102.128C186.737 102.128 187.53 102.509 188.083 103.27V102.305ZM184.399 107.267C184.807 107.675 185.319 107.879 185.935 107.879C186.552 107.879 187.064 107.675 187.472 107.267C187.879 106.85 188.083 106.329 188.083 105.704C188.083 105.078 187.879 104.562 187.472 104.154C187.064 103.737 186.552 103.528 185.935 103.528C185.319 103.528 184.807 103.737 184.399 104.154C183.991 104.562 183.787 105.078 183.787 105.704C183.787 106.329 183.991 106.85 184.399 107.267ZM194.839 102.128C195.618 102.128 196.248 102.377 196.729 102.876C197.209 103.374 197.449 104.058 197.449 104.929V109.103H195.981V105.078C195.981 104.571 195.845 104.181 195.573 103.909C195.301 103.637 194.93 103.501 194.458 103.501C193.942 103.501 193.525 103.664 193.207 103.99C192.89 104.308 192.732 104.797 192.732 105.459V109.103H191.263V102.305H192.732V103.175C193.176 102.477 193.878 102.128 194.839 102.128ZM199.03 109.103V102.305H200.499V109.103H199.03ZM203.958 107.716H207.261V109.103H201.959V108.124L205.14 103.691H202.095V102.305H207.125V103.283L203.958 107.716ZM208.63 109.103V102.305H210.098V109.103H208.63ZM220.899 104.167C221.316 104.385 221.642 104.684 221.878 105.065C222.113 105.445 222.231 105.885 222.231 106.383C222.231 107.163 221.955 107.811 221.402 108.328C220.849 108.844 220.174 109.103 219.376 109.103H215.297V99.5854H219.077C219.856 99.5854 220.514 99.8392 221.048 100.347C221.592 100.845 221.864 101.471 221.864 102.223C221.864 103.048 221.542 103.696 220.899 104.167ZM219.077 101.054H216.861V103.555H219.077C219.421 103.555 219.711 103.438 219.947 103.202C220.183 102.957 220.301 102.658 220.301 102.305C220.301 101.951 220.183 101.657 219.947 101.421C219.711 101.176 219.421 101.054 219.077 101.054ZM219.376 107.634C219.739 107.634 220.042 107.507 220.287 107.253C220.541 106.991 220.668 106.673 220.668 106.302C220.668 105.93 220.541 105.617 220.287 105.364C220.042 105.101 219.739 104.969 219.376 104.969H216.861V107.634H219.376ZM228.951 102.305H230.419V109.103H228.951V108.124C228.398 108.894 227.605 109.279 226.571 109.279C225.638 109.279 224.84 108.935 224.179 108.246C223.517 107.548 223.186 106.701 223.186 105.704C223.186 104.697 223.517 103.85 224.179 103.161C224.84 102.472 225.638 102.128 226.571 102.128C227.605 102.128 228.398 102.509 228.951 103.27V102.305ZM225.266 107.267C225.674 107.675 226.186 107.879 226.803 107.879C227.419 107.879 227.931 107.675 228.339 107.267C228.747 106.85 228.951 106.329 228.951 105.704C228.951 105.078 228.747 104.562 228.339 104.154C227.931 103.737 227.419 103.528 226.803 103.528C226.186 103.528 225.674 103.737 225.266 104.154C224.858 104.562 224.654 105.078 224.654 105.704C224.654 106.329 224.858 106.85 225.266 107.267ZM235.366 101.53C234.687 101.53 234.156 101.366 233.776 101.04C233.404 100.705 233.218 100.233 233.218 99.6262H234.551C234.551 100.161 234.823 100.428 235.366 100.428C235.901 100.428 236.169 100.161 236.169 99.6262H237.501C237.501 100.233 237.311 100.705 236.93 101.04C236.558 101.366 236.037 101.53 235.366 101.53ZM237.542 102.305H238.983V108.79C238.983 109.823 238.643 110.616 237.963 111.169C237.283 111.722 236.459 111.998 235.489 111.998C233.921 111.998 232.847 111.45 232.267 110.353L233.531 109.619C233.884 110.317 234.546 110.666 235.516 110.666C236.15 110.666 236.644 110.498 236.998 110.163C237.36 109.837 237.542 109.379 237.542 108.79V107.96C236.989 108.749 236.2 109.143 235.176 109.143C234.215 109.143 233.404 108.803 232.742 108.124C232.081 107.435 231.75 106.605 231.75 105.636C231.75 104.666 232.081 103.841 232.742 103.161C233.404 102.472 234.215 102.128 235.176 102.128C236.2 102.128 236.989 102.522 237.542 103.311V102.305ZM233.83 107.158C234.247 107.566 234.764 107.77 235.38 107.77C235.996 107.77 236.508 107.566 236.916 107.158C237.333 106.75 237.542 106.243 237.542 105.636C237.542 105.028 237.333 104.521 236.916 104.113C236.508 103.705 235.996 103.501 235.38 103.501C234.764 103.501 234.247 103.705 233.83 104.113C233.422 104.521 233.218 105.028 233.218 105.636C233.218 106.243 233.422 106.75 233.83 107.158ZM240.694 109.103V99.1775H242.163V109.103H240.694ZM249.252 102.305H250.72V109.103H249.252V108.124C248.699 108.894 247.906 109.279 246.872 109.279C245.939 109.279 245.141 108.935 244.479 108.246C243.818 107.548 243.487 106.701 243.487 105.704C243.487 104.697 243.818 103.85 244.479 103.161C245.141 102.472 245.939 102.128 246.872 102.128C247.906 102.128 248.699 102.509 249.252 103.27V102.305ZM245.567 107.267C245.975 107.675 246.487 107.879 247.103 107.879C247.72 107.879 248.232 107.675 248.64 107.267C249.048 106.85 249.252 106.329 249.252 105.704C249.252 105.078 249.048 104.562 248.64 104.154C248.232 103.737 247.72 103.528 247.103 103.528C246.487 103.528 245.975 103.737 245.567 104.154C245.159 104.562 244.955 105.078 244.955 105.704C244.955 106.329 245.159 106.85 245.567 107.267ZM257.013 102.305H258.577L255.966 109.32C255.314 111.078 254.208 111.912 252.649 111.822V110.449C253.111 110.476 253.483 110.376 253.764 110.149C254.045 109.932 254.276 109.587 254.457 109.116L254.525 108.98L251.643 102.305H253.247L255.273 107.24L257.013 102.305ZM259.495 109.103V102.305H260.963V109.103H259.495ZM266.244 102.128C267.023 102.128 267.653 102.377 268.134 102.876C268.614 103.374 268.854 104.058 268.854 104.929V109.103H267.386V105.078C267.386 104.571 267.25 104.181 266.978 103.909C266.706 103.637 266.335 103.501 265.863 103.501C265.347 103.501 264.93 103.664 264.612 103.99C264.295 104.308 264.137 104.797 264.137 105.459V109.103H262.668V102.305H264.137V103.175C264.581 102.477 265.283 102.128 266.244 102.128Z"
                                fill="#0E0B3D" />
                            <path
                                d="M144.227 128.435C144.551 128.604 144.805 128.837 144.988 129.133C145.171 129.429 145.263 129.771 145.263 130.159C145.263 130.765 145.048 131.269 144.618 131.671C144.188 132.073 143.663 132.273 143.042 132.273H139.87V124.871H142.81C143.416 124.871 143.927 125.069 144.343 125.463C144.766 125.851 144.978 126.338 144.978 126.923C144.978 127.564 144.727 128.068 144.227 128.435ZM142.81 126.013H141.086V127.959H142.81C143.078 127.959 143.303 127.867 143.487 127.684C143.67 127.494 143.762 127.261 143.762 126.986C143.762 126.711 143.67 126.482 143.487 126.299C143.303 126.108 143.078 126.013 142.81 126.013ZM143.042 131.131C143.324 131.131 143.561 131.033 143.751 130.835C143.948 130.631 144.047 130.384 144.047 130.095C144.047 129.806 143.948 129.563 143.751 129.365C143.561 129.161 143.324 129.059 143.042 129.059H141.086V131.131H143.042ZM148.088 126.193C147.968 126.313 147.82 126.373 147.644 126.373C147.467 126.373 147.316 126.313 147.189 126.193C147.069 126.066 147.009 125.915 147.009 125.738C147.009 125.562 147.069 125.414 147.189 125.294C147.316 125.167 147.467 125.104 147.644 125.104C147.82 125.104 147.968 125.167 148.088 125.294C148.215 125.414 148.278 125.562 148.278 125.738C148.278 125.915 148.215 126.066 148.088 126.193ZM150.097 126.193C149.977 126.313 149.829 126.373 149.653 126.373C149.477 126.373 149.325 126.313 149.198 126.193C149.078 126.066 149.018 125.915 149.018 125.738C149.018 125.562 149.078 125.414 149.198 125.294C149.325 125.167 149.477 125.104 149.653 125.104C149.829 125.104 149.977 125.167 150.097 125.294C150.224 125.414 150.287 125.562 150.287 125.738C150.287 125.915 150.224 126.066 150.097 126.193ZM149.917 126.986H151.059V132.273H149.917V131.597C149.572 132.139 149.025 132.411 148.278 132.411C147.672 132.411 147.182 132.217 146.808 131.829C146.435 131.442 146.248 130.909 146.248 130.233V126.986H147.39V130.116C147.39 130.511 147.496 130.814 147.707 131.026C147.919 131.237 148.208 131.343 148.574 131.343C148.976 131.343 149.3 131.22 149.547 130.973C149.794 130.719 149.917 130.335 149.917 129.82V126.986ZM155.958 126.986H157.174L155.144 132.443C154.637 133.81 153.776 134.459 152.564 134.388V133.32C152.923 133.341 153.212 133.264 153.431 133.088C153.65 132.918 153.829 132.651 153.97 132.284L154.023 132.178L151.781 126.986H153.029L154.605 130.825L155.958 126.986ZM159.623 126.193C159.503 126.313 159.355 126.373 159.179 126.373C159.002 126.373 158.851 126.313 158.724 126.193C158.604 126.066 158.544 125.915 158.544 125.738C158.544 125.562 158.604 125.414 158.724 125.294C158.851 125.167 159.002 125.104 159.179 125.104C159.355 125.104 159.503 125.167 159.623 125.294C159.75 125.414 159.813 125.562 159.813 125.738C159.813 125.915 159.75 126.066 159.623 126.193ZM161.632 126.193C161.512 126.313 161.364 126.373 161.188 126.373C161.012 126.373 160.86 126.313 160.733 126.193C160.613 126.066 160.553 125.915 160.553 125.738C160.553 125.562 160.613 125.414 160.733 125.294C160.86 125.167 161.012 125.104 161.188 125.104C161.364 125.104 161.512 125.167 161.632 125.294C161.759 125.414 161.822 125.562 161.822 125.738C161.822 125.915 161.759 126.066 161.632 126.193ZM161.452 126.986H162.594V132.273H161.452V131.597C161.107 132.139 160.56 132.411 159.813 132.411C159.207 132.411 158.717 132.217 158.343 131.829C157.97 131.442 157.783 130.909 157.783 130.233V126.986H158.925V130.116C158.925 130.511 159.031 130.814 159.242 131.026C159.454 131.237 159.743 131.343 160.109 131.343C160.511 131.343 160.835 131.22 161.082 130.973C161.329 130.719 161.452 130.335 161.452 129.82V126.986ZM168.604 132.273H167.24L165.072 129.831V132.273H163.93V124.871H165.072V129.323L167.123 126.986H168.519L166.193 129.577L168.604 132.273ZM172.914 130.116C172.999 130.518 173.193 130.828 173.496 131.047C173.799 131.258 174.169 131.364 174.606 131.364C175.213 131.364 175.667 131.145 175.97 130.708L176.912 131.258C176.39 132.027 175.618 132.411 174.596 132.411C173.736 132.411 173.041 132.15 172.513 131.628C171.984 131.1 171.719 130.433 171.719 129.63C171.719 128.84 171.98 128.181 172.502 127.652C173.024 127.117 173.693 126.849 174.511 126.849C175.287 126.849 175.921 127.12 176.415 127.663C176.915 128.206 177.165 128.865 177.165 129.64C177.165 129.76 177.151 129.919 177.123 130.116H172.914ZM172.904 129.186H176.013C175.935 128.756 175.755 128.431 175.473 128.213C175.198 127.994 174.874 127.885 174.501 127.885C174.078 127.885 173.725 128.001 173.443 128.234C173.161 128.467 172.981 128.784 172.904 129.186ZM178.244 129.609V128.509H182.157V129.609H178.244ZM186.408 128.086H185.097V130.624C185.097 130.842 185.146 131.001 185.245 131.1C185.343 131.191 185.488 131.244 185.678 131.258C185.876 131.265 186.119 131.262 186.408 131.248V132.273C185.534 132.379 184.906 132.305 184.526 132.051C184.145 131.791 183.955 131.315 183.955 130.624V128.086H182.982V126.986H183.955V125.844L185.097 125.506V126.986H186.408V128.086ZM188.522 125.982C188.381 126.123 188.212 126.193 188.015 126.193C187.817 126.193 187.645 126.123 187.497 125.982C187.356 125.834 187.285 125.661 187.285 125.463C187.285 125.266 187.356 125.097 187.497 124.956C187.638 124.808 187.81 124.734 188.015 124.734C188.219 124.734 188.392 124.808 188.533 124.956C188.674 125.097 188.744 125.266 188.744 125.463C188.744 125.661 188.67 125.834 188.522 125.982ZM187.444 132.273V126.986H188.586V132.273H187.444ZM192.407 132.411C191.611 132.411 190.945 132.143 190.409 131.607C189.88 131.071 189.616 130.412 189.616 129.63C189.616 128.84 189.88 128.181 190.409 127.652C190.945 127.117 191.611 126.849 192.407 126.849C192.922 126.849 193.391 126.972 193.814 127.219C194.237 127.466 194.554 127.797 194.766 128.213L193.782 128.784C193.662 128.53 193.479 128.333 193.232 128.192C192.993 128.044 192.714 127.97 192.397 127.97C191.932 127.97 191.54 128.128 191.223 128.445C190.913 128.763 190.758 129.157 190.758 129.63C190.758 130.102 190.913 130.497 191.223 130.814C191.54 131.131 191.932 131.29 192.397 131.29C192.707 131.29 192.985 131.216 193.232 131.068C193.486 130.92 193.676 130.722 193.803 130.476L194.787 131.036C194.561 131.459 194.237 131.794 193.814 132.041C193.391 132.288 192.922 132.411 192.407 132.411ZM199.717 126.986H200.859V132.273H199.717V131.512C199.287 132.111 198.67 132.411 197.867 132.411C197.14 132.411 196.52 132.143 196.005 131.607C195.491 131.064 195.233 130.405 195.233 129.63C195.233 128.847 195.491 128.188 196.005 127.652C196.52 127.117 197.14 126.849 197.867 126.849C198.67 126.849 199.287 127.145 199.717 127.737V126.986ZM196.851 130.846C197.169 131.163 197.567 131.322 198.046 131.322C198.526 131.322 198.924 131.163 199.241 130.846C199.558 130.522 199.717 130.116 199.717 129.63C199.717 129.143 199.558 128.742 199.241 128.424C198.924 128.1 198.526 127.938 198.046 127.938C197.567 127.938 197.169 128.1 196.851 128.424C196.534 128.742 196.376 129.143 196.376 129.63C196.376 130.116 196.534 130.522 196.851 130.846ZM203.332 127.874C203.621 127.219 204.164 126.891 204.961 126.891V128.128C204.524 128.1 204.143 128.206 203.819 128.445C203.495 128.678 203.332 129.066 203.332 129.609V132.273H202.19V126.986H203.332V127.874ZM206.456 130.116C206.54 130.518 206.734 130.828 207.037 131.047C207.34 131.258 207.711 131.364 208.148 131.364C208.754 131.364 209.209 131.145 209.512 130.708L210.453 131.258C209.931 132.027 209.159 132.411 208.137 132.411C207.277 132.411 206.583 132.15 206.054 131.628C205.525 131.1 205.261 130.433 205.261 129.63C205.261 128.84 205.522 128.181 206.043 127.652C206.565 127.117 207.235 126.849 208.052 126.849C208.828 126.849 209.462 127.12 209.956 127.663C210.456 128.206 210.707 128.865 210.707 129.64C210.707 129.76 210.693 129.919 210.664 130.116H206.456ZM206.445 129.186H209.554C209.476 128.756 209.297 128.431 209.015 128.213C208.74 127.994 208.416 127.885 208.042 127.885C207.619 127.885 207.266 128.001 206.984 128.234C206.702 128.467 206.523 128.784 206.445 129.186ZM214.497 128.086H213.185V130.624C213.185 130.842 213.235 131.001 213.333 131.1C213.432 131.191 213.577 131.244 213.767 131.258C213.964 131.265 214.208 131.262 214.497 131.248V132.273C213.623 132.379 212.995 132.305 212.614 132.051C212.234 131.791 212.043 131.315 212.043 130.624V128.086H211.071V126.986H212.043V125.844L213.185 125.506V126.986H214.497V128.086ZM221.22 126.849C221.947 126.849 222.567 127.12 223.082 127.663C223.596 128.199 223.853 128.854 223.853 129.63C223.853 130.412 223.596 131.071 223.082 131.607C222.567 132.143 221.947 132.411 221.22 132.411C220.417 132.411 219.8 132.115 219.37 131.523V134.388H218.228V126.986H219.37V127.748C219.8 127.148 220.417 126.849 221.22 126.849ZM219.846 130.846C220.163 131.163 220.561 131.322 221.041 131.322C221.52 131.322 221.918 131.163 222.236 130.846C222.553 130.522 222.711 130.116 222.711 129.63C222.711 129.143 222.553 128.742 222.236 128.424C221.918 128.1 221.52 127.938 221.041 127.938C220.561 127.938 220.163 128.1 219.846 128.424C219.528 128.742 219.37 129.143 219.37 129.63C219.37 130.116 219.528 130.522 219.846 130.846ZM224.889 132.273V124.554H226.031V132.273H224.889ZM231.544 126.986H232.686V132.273H231.544V131.512C231.114 132.111 230.497 132.411 229.694 132.411C228.967 132.411 228.347 132.143 227.832 131.607C227.318 131.064 227.061 130.405 227.061 129.63C227.061 128.847 227.318 128.188 227.832 127.652C228.347 127.117 228.967 126.849 229.694 126.849C230.497 126.849 231.114 127.145 231.544 127.737V126.986ZM228.678 130.846C228.996 131.163 229.394 131.322 229.873 131.322C230.353 131.322 230.751 131.163 231.068 130.846C231.386 130.522 231.544 130.116 231.544 129.63C231.544 129.143 231.386 128.742 231.068 128.424C230.751 128.1 230.353 127.938 229.873 127.938C229.394 127.938 228.996 128.1 228.678 128.424C228.361 128.742 228.203 129.143 228.203 129.63C228.203 130.116 228.361 130.522 228.678 130.846ZM236.968 128.086H235.656V130.624C235.656 130.842 235.706 131.001 235.804 131.1C235.903 131.191 236.048 131.244 236.238 131.258C236.435 131.265 236.679 131.262 236.968 131.248V132.273C236.094 132.379 235.466 132.305 235.085 132.051C234.705 131.791 234.514 131.315 234.514 130.624V128.086H233.542V126.986H234.514V125.844L235.656 125.506V126.986H236.968V128.086ZM240.495 125.834C239.663 125.756 239.247 126.105 239.247 126.88V126.986H240.495V128.086H239.247V132.273H238.105V128.086H237.302V126.986H238.105V126.88C238.105 126.154 238.306 125.604 238.708 125.231C239.117 124.85 239.713 124.684 240.495 124.734V125.834ZM243.411 132.411C242.636 132.411 241.977 132.143 241.434 131.607C240.891 131.071 240.62 130.412 240.62 129.63C240.62 128.847 240.891 128.188 241.434 127.652C241.977 127.117 242.636 126.849 243.411 126.849C244.194 126.849 244.853 127.117 245.389 127.652C245.932 128.188 246.203 128.847 246.203 129.63C246.203 130.412 245.932 131.071 245.389 131.607C244.853 132.143 244.194 132.411 243.411 132.411ZM242.237 130.825C242.555 131.142 242.946 131.301 243.411 131.301C243.877 131.301 244.268 131.142 244.585 130.825C244.902 130.507 245.061 130.109 245.061 129.63C245.061 129.15 244.902 128.752 244.585 128.435C244.268 128.118 243.877 127.959 243.411 127.959C242.946 127.959 242.555 128.118 242.237 128.435C241.92 128.752 241.762 129.15 241.762 129.63C241.762 130.109 241.92 130.507 242.237 130.825ZM248.378 127.874C248.667 127.219 249.21 126.891 250.006 126.891V128.128C249.569 128.1 249.188 128.206 248.864 128.445C248.54 128.678 248.378 129.066 248.378 129.609V132.273H247.236V126.986H248.378V127.874ZM256.624 126.849C257.223 126.849 257.706 127.043 258.072 127.43C258.439 127.818 258.622 128.34 258.622 128.995V132.273H257.48V129.069C257.48 128.703 257.389 128.421 257.205 128.223C257.022 128.019 256.772 127.917 256.455 127.917C256.102 127.917 255.82 128.033 255.609 128.266C255.404 128.498 255.302 128.847 255.302 129.313V132.273H254.16V129.069C254.16 128.703 254.072 128.421 253.895 128.223C253.726 128.019 253.483 127.917 253.166 127.917C252.82 127.917 252.538 128.037 252.32 128.276C252.101 128.509 251.992 128.854 251.992 129.313V132.273H250.85V126.986H251.992V127.621C252.33 127.106 252.834 126.849 253.504 126.849C254.181 126.849 254.682 127.127 255.006 127.684C255.358 127.127 255.898 126.849 256.624 126.849ZM259.845 132.273V124.554H260.987V132.273H259.845ZM266.5 126.986H267.642V132.273H266.5V131.512C266.07 132.111 265.453 132.411 264.65 132.411C263.924 132.411 263.303 132.143 262.789 131.607C262.274 131.064 262.017 130.405 262.017 129.63C262.017 128.847 262.274 128.188 262.789 127.652C263.303 127.117 263.924 126.849 264.65 126.849C265.453 126.849 266.07 127.145 266.5 127.737V126.986ZM263.635 130.846C263.952 131.163 264.35 131.322 264.829 131.322C265.309 131.322 265.707 131.163 266.024 130.846C266.342 130.522 266.5 130.116 266.5 129.63C266.5 129.143 266.342 128.742 266.024 128.424C265.707 128.1 265.309 127.938 264.829 127.938C264.35 127.938 263.952 128.1 263.635 128.424C263.317 128.742 263.159 129.143 263.159 129.63C263.159 130.116 263.317 130.522 263.635 130.846ZM270.116 127.874C270.405 127.219 270.947 126.891 271.744 126.891V128.128C271.307 128.1 270.926 128.206 270.602 128.445C270.278 128.678 270.116 129.066 270.116 129.609V132.273H268.973V126.986H270.116V127.874ZM272.588 132.273V126.986H273.73V132.273H272.588ZM281.284 126.986H282.532L280.47 132.273H279.148L277.086 126.986H278.334L279.814 131.004L281.284 126.986ZM283.948 130.116C284.032 130.518 284.226 130.828 284.529 131.047C284.832 131.258 285.203 131.364 285.64 131.364C286.246 131.364 286.701 131.145 287.004 130.708L287.945 131.258C287.423 132.027 286.651 132.411 285.629 132.411C284.769 132.411 284.075 132.15 283.546 131.628C283.017 131.1 282.753 130.433 282.753 129.63C282.753 128.84 283.014 128.181 283.535 127.652C284.057 127.117 284.727 126.849 285.544 126.849C286.32 126.849 286.954 127.12 287.448 127.663C287.948 128.206 288.199 128.865 288.199 129.64C288.199 129.76 288.185 129.919 288.156 130.116H283.948ZM283.937 129.186H287.046C286.968 128.756 286.789 128.431 286.507 128.213C286.232 127.994 285.907 127.885 285.534 127.885C285.111 127.885 284.758 128.001 284.476 128.234C284.194 128.467 284.015 128.784 283.937 129.186ZM142.789 144.849C143.515 144.849 144.135 145.12 144.65 145.663C145.164 146.199 145.422 146.854 145.422 147.63C145.422 148.412 145.164 149.071 144.65 149.607C144.135 150.143 143.515 150.411 142.789 150.411C141.985 150.411 141.368 150.115 140.938 149.523V152.388H139.796V144.986H140.938V145.748C141.368 145.148 141.985 144.849 142.789 144.849ZM141.414 148.846C141.731 149.163 142.13 149.322 142.609 149.322C143.088 149.322 143.487 149.163 143.804 148.846C144.121 148.522 144.28 148.116 144.28 147.63C144.28 147.143 144.121 146.742 143.804 146.424C143.487 146.1 143.088 145.938 142.609 145.938C142.13 145.938 141.731 146.1 141.414 146.424C141.097 146.742 140.938 147.143 140.938 147.63C140.938 148.116 141.097 148.522 141.414 148.846ZM150.644 144.986H151.786V150.273H150.644V149.512C150.214 150.111 149.597 150.411 148.794 150.411C148.068 150.411 147.447 150.143 146.933 149.607C146.418 149.064 146.161 148.405 146.161 147.63C146.161 146.847 146.418 146.188 146.933 145.652C147.447 145.117 148.068 144.849 148.794 144.849C149.597 144.849 150.214 145.145 150.644 145.737V144.986ZM147.779 148.846C148.096 149.163 148.494 149.322 148.974 149.322C149.453 149.322 149.851 149.163 150.169 148.846C150.486 148.522 150.644 148.116 150.644 147.63C150.644 147.143 150.486 146.742 150.169 146.424C149.851 146.1 149.453 145.938 148.974 145.938C148.494 145.938 148.096 146.1 147.779 146.424C147.461 146.742 147.303 147.143 147.303 147.63C147.303 148.116 147.461 148.522 147.779 148.846ZM154.482 149.195H157.051V150.273H152.927V149.512L155.402 146.065H153.033V144.986H156.946V145.748L154.482 149.195ZM161.983 144.986H163.125V150.273H161.983V149.512C161.553 150.111 160.936 150.411 160.133 150.411C159.406 150.411 158.786 150.143 158.271 149.607C157.757 149.064 157.5 148.405 157.5 147.63C157.5 146.847 157.757 146.188 158.271 145.652C158.786 145.117 159.406 144.849 160.133 144.849C160.936 144.849 161.553 145.145 161.983 145.737V144.986ZM159.117 148.846C159.435 149.163 159.833 149.322 160.312 149.322C160.792 149.322 161.19 149.163 161.507 148.846C161.825 148.522 161.983 148.116 161.983 147.63C161.983 147.143 161.825 146.742 161.507 146.424C161.19 146.1 160.792 145.938 160.312 145.938C159.833 145.938 159.435 146.1 159.117 146.424C158.8 146.742 158.642 147.143 158.642 147.63C158.642 148.116 158.8 148.522 159.117 148.846ZM165.598 145.874C165.887 145.219 166.43 144.891 167.227 144.891V146.128C166.79 146.1 166.409 146.206 166.085 146.445C165.761 146.678 165.598 147.066 165.598 147.609V150.273H164.456V144.986H165.598V145.874ZM174.278 144.986H175.494L173.464 150.443C172.956 151.81 172.096 152.459 170.884 152.388V151.32C171.243 151.341 171.532 151.264 171.751 151.088C171.969 150.918 172.149 150.651 172.29 150.284L172.343 150.178L170.101 144.986H171.349L172.924 148.825L174.278 144.986ZM176.901 148.116C176.985 148.518 177.179 148.828 177.482 149.047C177.785 149.258 178.155 149.364 178.592 149.364C179.199 149.364 179.653 149.145 179.957 148.708L180.898 149.258C180.376 150.027 179.604 150.411 178.582 150.411C177.722 150.411 177.027 150.15 176.499 149.628C175.97 149.1 175.706 148.433 175.706 147.63C175.706 146.84 175.966 146.181 176.488 145.652C177.01 145.117 177.68 144.849 178.497 144.849C179.273 144.849 179.907 145.12 180.401 145.663C180.901 146.206 181.152 146.865 181.152 147.64C181.152 147.76 181.137 147.919 181.109 148.116H176.901ZM176.89 147.186H179.999C179.921 146.756 179.742 146.431 179.46 146.213C179.185 145.994 178.86 145.885 178.487 145.885C178.064 145.885 177.711 146.001 177.429 146.234C177.147 146.467 176.967 146.784 176.89 147.186ZM183.298 145.874C183.588 145.219 184.13 144.891 184.927 144.891V146.128C184.49 146.1 184.109 146.206 183.785 146.445C183.461 146.678 183.298 147.066 183.298 147.609V150.273H182.156V144.986H183.298V145.874ZM185.771 150.273V142.554H186.913V150.273H185.771ZM189.138 148.116C189.222 148.518 189.416 148.828 189.719 149.047C190.022 149.258 190.393 149.364 190.83 149.364C191.436 149.364 191.891 149.145 192.194 148.708L193.135 149.258C192.613 150.027 191.841 150.411 190.819 150.411C189.959 150.411 189.265 150.15 188.736 149.628C188.207 149.1 187.943 148.433 187.943 147.63C187.943 146.84 188.204 146.181 188.725 145.652C189.247 145.117 189.917 144.849 190.734 144.849C191.51 144.849 192.144 145.12 192.638 145.663C193.138 146.206 193.389 146.865 193.389 147.64C193.389 147.76 193.375 147.919 193.346 148.116H189.138ZM189.127 147.186H192.236C192.159 146.756 191.979 146.431 191.697 146.213C191.422 145.994 191.098 145.885 190.724 145.885C190.301 145.885 189.948 146.001 189.666 146.234C189.384 146.467 189.205 146.784 189.127 147.186ZM195.536 145.874C195.825 145.219 196.368 144.891 197.164 144.891V146.128C196.727 146.1 196.346 146.206 196.022 146.445C195.698 146.678 195.536 147.066 195.536 147.609V150.273H194.394V144.986H195.536V145.874ZM199.087 143.982C198.946 144.123 198.776 144.193 198.579 144.193C198.382 144.193 198.209 144.123 198.061 143.982C197.92 143.834 197.849 143.661 197.849 143.463C197.849 143.266 197.92 143.097 198.061 142.956C198.202 142.808 198.375 142.734 198.579 142.734C198.783 142.734 198.956 142.808 199.097 142.956C199.238 143.097 199.309 143.266 199.309 143.463C199.309 143.661 199.235 143.834 199.087 143.982ZM198.008 150.273V144.986H199.15V150.273H198.008ZM204.198 143.982C204.057 144.123 203.888 144.193 203.691 144.193C203.493 144.193 203.321 144.123 203.173 143.982C203.032 143.834 202.961 143.661 202.961 143.463C202.961 143.266 203.032 143.097 203.173 142.956C203.314 142.808 203.486 142.734 203.691 142.734C203.895 142.734 204.068 142.808 204.209 142.956C204.35 143.097 204.42 143.266 204.42 143.463C204.42 143.661 204.346 143.834 204.198 143.982ZM203.12 150.273V144.986H204.262V150.273H203.12ZM205.588 150.273V142.554H206.73V150.273H205.588ZM208.955 148.116C209.039 148.518 209.233 148.828 209.536 149.047C209.839 149.258 210.21 149.364 210.647 149.364C211.253 149.364 211.708 149.145 212.011 148.708L212.952 149.258C212.43 150.027 211.658 150.411 210.636 150.411C209.776 150.411 209.082 150.15 208.553 149.628C208.024 149.1 207.76 148.433 207.76 147.63C207.76 146.84 208.021 146.181 208.542 145.652C209.064 145.117 209.734 144.849 210.552 144.849C211.327 144.849 211.961 145.12 212.455 145.663C212.955 146.206 213.206 146.865 213.206 147.64C213.206 147.76 213.192 147.919 213.163 148.116H208.955ZM208.944 147.186H212.053C211.976 146.756 211.796 146.431 211.514 146.213C211.239 145.994 210.915 145.885 210.541 145.885C210.118 145.885 209.765 146.001 209.483 146.234C209.201 146.467 209.022 146.784 208.944 147.186ZM221.528 150.273H220.164L217.996 147.831V150.273H216.854V142.871H217.996V147.323L220.048 144.986H221.444L219.117 147.577L221.528 150.273ZM224.369 150.411C223.593 150.411 222.934 150.143 222.391 149.607C221.848 149.071 221.577 148.412 221.577 147.63C221.577 146.847 221.848 146.188 222.391 145.652C222.934 145.117 223.593 144.849 224.369 144.849C225.151 144.849 225.81 145.117 226.346 145.652C226.889 146.188 227.16 146.847 227.16 147.63C227.16 148.412 226.889 149.071 226.346 149.607C225.81 150.143 225.151 150.411 224.369 150.411ZM223.195 148.825C223.512 149.142 223.903 149.301 224.369 149.301C224.834 149.301 225.225 149.142 225.543 148.825C225.86 148.507 226.018 148.109 226.018 147.63C226.018 147.15 225.86 146.752 225.543 146.435C225.225 146.118 224.834 145.959 224.369 145.959C223.903 145.959 223.512 146.118 223.195 146.435C222.878 146.752 222.719 147.15 222.719 147.63C222.719 148.109 222.878 148.507 223.195 148.825ZM228.193 150.273V142.554H229.335V150.273H228.193ZM234.849 144.986H235.991V150.273H234.849V149.512C234.419 150.111 233.802 150.411 232.998 150.411C232.272 150.411 231.652 150.143 231.137 149.607C230.622 149.064 230.365 148.405 230.365 147.63C230.365 146.847 230.622 146.188 231.137 145.652C231.652 145.117 232.272 144.849 232.998 144.849C233.802 144.849 234.419 145.145 234.849 145.737V144.986ZM231.983 148.846C232.3 149.163 232.699 149.322 233.178 149.322C233.657 149.322 234.056 149.163 234.373 148.846C234.69 148.522 234.849 148.116 234.849 147.63C234.849 147.143 234.69 146.742 234.373 146.424C234.056 146.1 233.657 145.938 233.178 145.938C232.699 145.938 232.3 146.1 231.983 146.424C231.666 146.742 231.507 147.143 231.507 147.63C231.507 148.116 231.666 148.522 231.983 148.846ZM240.886 144.986H242.102L240.071 150.443C239.564 151.81 238.704 152.459 237.491 152.388V151.32C237.851 151.341 238.14 151.264 238.358 151.088C238.577 150.918 238.757 150.651 238.898 150.284L238.95 150.178L236.709 144.986H237.956L239.532 148.825L240.886 144.986ZM245.105 150.411C244.308 150.411 243.642 150.143 243.106 149.607C242.578 149.071 242.313 148.412 242.313 147.63C242.313 146.84 242.578 146.181 243.106 145.652C243.642 145.117 244.308 144.849 245.105 144.849C245.619 144.849 246.088 144.972 246.511 145.219C246.934 145.466 247.251 145.797 247.463 146.213L246.48 146.784C246.36 146.53 246.176 146.333 245.93 146.192C245.69 146.044 245.412 145.97 245.094 145.97C244.629 145.97 244.238 146.128 243.92 146.445C243.61 146.763 243.455 147.157 243.455 147.63C243.455 148.102 243.61 148.497 243.92 148.814C244.238 149.131 244.629 149.29 245.094 149.29C245.404 149.29 245.683 149.216 245.93 149.068C246.183 148.92 246.374 148.722 246.501 148.476L247.484 149.036C247.259 149.459 246.934 149.794 246.511 150.041C246.088 150.288 245.619 150.411 245.105 150.411ZM252.415 144.986H253.557V150.273H252.415V149.512C251.985 150.111 251.368 150.411 250.564 150.411C249.838 150.411 249.217 150.143 248.703 149.607C248.188 149.064 247.931 148.405 247.931 147.63C247.931 146.847 248.188 146.188 248.703 145.652C249.217 145.117 249.838 144.849 250.564 144.849C251.368 144.849 251.985 145.145 252.415 145.737V144.986ZM249.549 148.846C249.866 149.163 250.264 149.322 250.744 149.322C251.223 149.322 251.621 149.163 251.939 148.846C252.256 148.522 252.415 148.116 252.415 147.63C252.415 147.143 252.256 146.742 251.939 146.424C251.621 146.1 251.223 145.938 250.744 145.938C250.264 145.938 249.866 146.1 249.549 146.424C249.232 146.742 249.073 147.143 249.073 147.63C249.073 148.116 249.232 148.522 249.549 148.846ZM258.43 148.116C258.515 148.518 258.709 148.828 259.012 149.047C259.315 149.258 259.685 149.364 260.122 149.364C260.728 149.364 261.183 149.145 261.486 148.708L262.427 149.258C261.906 150.027 261.134 150.411 260.112 150.411C259.252 150.411 258.557 150.15 258.028 149.628C257.5 149.1 257.235 148.433 257.235 147.63C257.235 146.84 257.496 146.181 258.018 145.652C258.54 145.117 259.209 144.849 260.027 144.849C260.802 144.849 261.437 145.12 261.93 145.663C262.431 146.206 262.681 146.865 262.681 147.64C262.681 147.76 262.667 147.919 262.639 148.116H258.43ZM258.42 147.186H261.529C261.451 146.756 261.271 146.431 260.989 146.213C260.714 145.994 260.39 145.885 260.016 145.885C259.593 145.885 259.241 146.001 258.959 146.234C258.677 146.467 258.497 146.784 258.42 147.186ZM266.467 144.849C267.074 144.849 267.564 145.043 267.937 145.43C268.311 145.818 268.498 146.35 268.498 147.027V150.273H267.356V147.143C267.356 146.749 267.25 146.445 267.038 146.234C266.827 146.022 266.538 145.917 266.171 145.917C265.769 145.917 265.445 146.044 265.198 146.297C264.952 146.544 264.828 146.925 264.828 147.439V150.273H263.686V144.986H264.828V145.663C265.174 145.12 265.72 144.849 266.467 144.849ZM272.678 146.086H271.366V148.624C271.366 148.842 271.416 149.001 271.514 149.1C271.613 149.191 271.758 149.244 271.948 149.258C272.145 149.265 272.389 149.262 272.678 149.248V150.273C271.803 150.379 271.176 150.305 270.795 150.051C270.415 149.791 270.224 149.315 270.224 148.624V146.086H269.251V144.986H270.224V143.844L271.366 143.506V144.986H272.678V146.086ZM274.395 148.116C274.48 148.518 274.674 148.828 274.977 149.047C275.28 149.258 275.65 149.364 276.087 149.364C276.694 149.364 277.148 149.145 277.451 148.708L278.393 149.258C277.871 150.027 277.099 150.411 276.077 150.411C275.217 150.411 274.522 150.15 273.994 149.628C273.465 149.1 273.2 148.433 273.2 147.63C273.2 146.84 273.461 146.181 273.983 145.652C274.505 145.117 275.174 144.849 275.992 144.849C276.768 144.849 277.402 145.12 277.896 145.663C278.396 146.206 278.646 146.865 278.646 147.64C278.646 147.76 278.632 147.919 278.604 148.116H274.395ZM274.385 147.186H277.494C277.416 146.756 277.236 146.431 276.954 146.213C276.68 145.994 276.355 145.885 275.982 145.885C275.559 145.885 275.206 146.001 274.924 146.234C274.642 146.467 274.462 146.784 274.385 147.186ZM283.829 144.986H284.95V150.03C284.95 150.834 284.686 151.451 284.157 151.881C283.628 152.311 282.987 152.526 282.232 152.526C281.013 152.526 280.177 152.099 279.726 151.246L280.71 150.675C280.984 151.218 281.499 151.49 282.253 151.49C282.747 151.49 283.131 151.359 283.406 151.098C283.688 150.844 283.829 150.488 283.829 150.03V149.385C283.399 149.998 282.786 150.305 281.989 150.305C281.242 150.305 280.611 150.041 280.096 149.512C279.582 148.976 279.324 148.331 279.324 147.577C279.324 146.823 279.582 146.181 280.096 145.652C280.611 145.117 281.242 144.849 281.989 144.849C282.786 144.849 283.399 145.155 283.829 145.769V144.986ZM280.942 148.761C281.266 149.079 281.668 149.237 282.148 149.237C282.627 149.237 283.025 149.079 283.343 148.761C283.667 148.444 283.829 148.049 283.829 147.577C283.829 147.105 283.667 146.71 283.343 146.393C283.025 146.075 282.627 145.917 282.148 145.917C281.668 145.917 281.266 146.075 280.942 146.393C280.625 146.71 280.466 147.105 280.466 147.577C280.466 148.049 280.625 148.444 280.942 148.761ZM287.423 145.874C287.712 145.219 288.255 144.891 289.052 144.891V146.128C288.615 146.1 288.234 146.206 287.91 146.445C287.585 146.678 287.423 147.066 287.423 147.609V150.273H286.281V144.986H287.423V145.874ZM290.546 148.116C290.631 148.518 290.825 148.828 291.128 149.047C291.431 149.258 291.801 149.364 292.238 149.364C292.845 149.364 293.299 149.145 293.603 148.708L294.544 149.258C294.022 150.027 293.25 150.411 292.228 150.411C291.368 150.411 290.673 150.15 290.145 149.628C289.616 149.1 289.352 148.433 289.352 147.63C289.352 146.84 289.612 146.181 290.134 145.652C290.656 145.117 291.325 144.849 292.143 144.849C292.919 144.849 293.553 145.12 294.047 145.663C294.547 146.206 294.797 146.865 294.797 147.64C294.797 147.76 294.783 147.919 294.755 148.116H290.546ZM290.536 147.186H293.645C293.567 146.756 293.387 146.431 293.106 146.213C292.831 145.994 292.506 145.885 292.133 145.885C291.71 145.885 291.357 146.001 291.075 146.234C290.793 146.467 290.613 146.784 290.536 147.186ZM300.942 150.411C300.166 150.411 299.507 150.143 298.964 149.607C298.421 149.071 298.15 148.412 298.15 147.63C298.15 146.847 298.421 146.188 298.964 145.652C299.507 145.117 300.166 144.849 300.942 144.849C301.724 144.849 302.383 145.117 302.919 145.652C303.462 146.188 303.733 146.847 303.733 147.63C303.733 148.412 303.462 149.071 302.919 149.607C302.383 150.143 301.724 150.411 300.942 150.411ZM299.768 148.825C300.085 149.142 300.476 149.301 300.942 149.301C301.407 149.301 301.798 149.142 302.115 148.825C302.433 148.507 302.591 148.109 302.591 147.63C302.591 147.15 302.433 146.752 302.115 146.435C301.798 146.118 301.407 145.959 300.942 145.959C300.476 145.959 300.085 146.118 299.768 146.435C299.451 146.752 299.292 147.15 299.292 147.63C299.292 148.109 299.451 148.507 299.768 148.825ZM304.766 150.273V142.554H305.908V150.273H304.766ZM310.798 144.986H311.94V150.273H310.798V149.597C310.452 150.139 309.906 150.411 309.159 150.411C308.552 150.411 308.062 150.217 307.689 149.829C307.315 149.442 307.128 148.909 307.128 148.233V144.986H308.27V148.116C308.27 148.511 308.376 148.814 308.588 149.026C308.799 149.237 309.088 149.343 309.455 149.343C309.857 149.343 310.181 149.22 310.428 148.973C310.674 148.719 310.798 148.335 310.798 147.82V144.986ZM316.056 144.849C316.663 144.849 317.153 145.043 317.526 145.43C317.9 145.818 318.087 146.35 318.087 147.027V150.273H316.945V147.143C316.945 146.749 316.839 146.445 316.627 146.234C316.416 146.022 316.127 145.917 315.76 145.917C315.358 145.917 315.034 146.044 314.787 146.297C314.541 146.544 314.417 146.925 314.417 147.439V150.273H313.275V144.986H314.417V145.663C314.763 145.12 315.309 144.849 316.056 144.849Z"
                                fill="#445B78" />
                            <rect x="139.128" y="173.656" width="205.449" height="36.2558" rx="12.0853" fill="white" />
                            <rect x="139.505" y="174.034" width="204.694" height="35.5004" rx="11.7076" stroke="#445B78"
                                stroke-opacity="0.15" stroke-width="0.755328" />
                            <path
                                d="M180.933 188.318V189.481H178.85V195.72H177.634V189.481H175.54V188.318H180.933ZM182.209 191.321C182.498 190.665 183.04 190.337 183.837 190.337V191.574C183.4 191.546 183.019 191.652 182.695 191.892C182.371 192.124 182.209 192.512 182.209 193.055V195.72H181.067V190.432H182.209V191.321ZM185.332 193.563C185.416 193.964 185.61 194.275 185.913 194.493C186.217 194.705 186.587 194.81 187.024 194.81C187.63 194.81 188.085 194.592 188.388 194.155L189.329 194.705C188.807 195.473 188.035 195.857 187.013 195.857C186.153 195.857 185.459 195.596 184.93 195.075C184.401 194.546 184.137 193.88 184.137 193.076C184.137 192.287 184.398 191.627 184.919 191.099C185.441 190.563 186.111 190.295 186.929 190.295C187.704 190.295 188.339 190.566 188.832 191.109C189.333 191.652 189.583 192.311 189.583 193.087C189.583 193.206 189.569 193.365 189.541 193.563H185.332ZM185.321 192.632H188.43C188.353 192.202 188.173 191.878 187.891 191.659C187.616 191.441 187.292 191.331 186.918 191.331C186.495 191.331 186.143 191.448 185.861 191.68C185.579 191.913 185.399 192.23 185.321 192.632ZM193.369 190.295C193.975 190.295 194.465 190.489 194.839 190.877C195.212 191.264 195.399 191.797 195.399 192.473V195.72H194.257V192.59C194.257 192.195 194.151 191.892 193.94 191.68C193.728 191.469 193.439 191.363 193.073 191.363C192.671 191.363 192.347 191.49 192.1 191.744C191.853 191.99 191.73 192.371 191.73 192.886V195.72H190.588V190.432H191.73V191.109C192.075 190.566 192.622 190.295 193.369 190.295ZM200.816 188.318H201.959V195.72H200.816V194.958C200.386 195.558 199.77 195.857 198.966 195.857C198.24 195.857 197.619 195.589 197.105 195.054C196.59 194.511 196.333 193.852 196.333 193.076C196.333 192.294 196.59 191.634 197.105 191.099C197.619 190.563 198.24 190.295 198.966 190.295C199.77 190.295 200.386 190.591 200.816 191.183V188.318ZM197.951 194.292C198.268 194.609 198.666 194.768 199.146 194.768C199.625 194.768 200.023 194.609 200.341 194.292C200.658 193.968 200.816 193.563 200.816 193.076C200.816 192.59 200.658 192.188 200.341 191.871C200.023 191.546 199.625 191.384 199.146 191.384C198.666 191.384 198.268 191.546 197.951 191.871C197.634 192.188 197.475 192.59 197.475 193.076C197.475 193.563 197.634 193.968 197.951 194.292ZM206.853 190.432H208.069L206.039 195.889C205.531 197.257 204.671 197.905 203.459 197.835V196.767C203.818 196.788 204.107 196.71 204.326 196.534C204.545 196.365 204.724 196.097 204.865 195.73L204.918 195.625L202.676 190.432H203.924L205.5 194.271L206.853 190.432ZM211.073 195.857C210.297 195.857 209.638 195.589 209.095 195.054C208.552 194.518 208.281 193.859 208.281 193.076C208.281 192.294 208.552 191.634 209.095 191.099C209.638 190.563 210.297 190.295 211.073 190.295C211.855 190.295 212.514 190.563 213.05 191.099C213.593 191.634 213.864 192.294 213.864 193.076C213.864 193.859 213.593 194.518 213.05 195.054C212.514 195.589 211.855 195.857 211.073 195.857ZM209.899 194.271C210.216 194.588 210.607 194.747 211.073 194.747C211.538 194.747 211.929 194.588 212.246 194.271C212.564 193.954 212.722 193.555 212.722 193.076C212.722 192.597 212.564 192.198 212.246 191.881C211.929 191.564 211.538 191.405 211.073 191.405C210.607 191.405 210.216 191.564 209.899 191.881C209.582 192.198 209.423 192.597 209.423 193.076C209.423 193.555 209.582 193.954 209.899 194.271ZM214.897 195.72V188H216.039V195.72H214.897Z"
                                fill="#0E0B3D" />
                            <rect x="148.19" y="182.72" width="18.1279" height="18.1279" rx="6.04263"
                                fill="url(#pattern123z19)" />
                            <path
                                d="M291.541 191.451C291.819 191.596 292.037 191.795 292.194 192.049C292.351 192.303 292.43 192.596 292.43 192.928C292.43 193.448 292.245 193.88 291.877 194.225C291.508 194.569 291.058 194.741 290.526 194.741H287.807V188.396H290.327C290.847 188.396 291.285 188.566 291.641 188.904C292.004 189.236 292.185 189.653 292.185 190.155C292.185 190.705 291.971 191.137 291.541 191.451ZM290.327 189.375H288.849V191.043H290.327C290.557 191.043 290.75 190.965 290.907 190.807C291.064 190.644 291.143 190.445 291.143 190.209C291.143 189.974 291.064 189.777 290.907 189.62C290.75 189.457 290.557 189.375 290.327 189.375ZM290.526 193.762C290.768 193.762 290.97 193.678 291.134 193.509C291.303 193.333 291.387 193.122 291.387 192.874C291.387 192.626 291.303 192.418 291.134 192.249C290.97 192.073 290.768 191.986 290.526 191.986H288.849V193.762H290.526ZM296.909 190.209H297.888V194.741H296.909V194.089C296.541 194.602 296.012 194.859 295.323 194.859C294.701 194.859 294.169 194.629 293.728 194.17C293.287 193.705 293.066 193.14 293.066 192.475C293.066 191.804 293.287 191.24 293.728 190.78C294.169 190.321 294.701 190.091 295.323 190.091C296.012 190.091 296.541 190.345 296.909 190.853V190.209ZM294.453 193.518C294.725 193.789 295.066 193.925 295.477 193.925C295.888 193.925 296.23 193.789 296.502 193.518C296.774 193.24 296.909 192.892 296.909 192.475C296.909 192.058 296.774 191.714 296.502 191.442C296.23 191.164 295.888 191.025 295.477 191.025C295.066 191.025 294.725 191.164 294.453 191.442C294.181 191.714 294.045 192.058 294.045 192.475C294.045 192.892 294.181 193.24 294.453 193.518ZM301.187 189.693C300.733 189.693 300.38 189.584 300.126 189.366C299.878 189.143 299.754 188.829 299.754 188.424H300.643C300.643 188.78 300.824 188.958 301.187 188.958C301.543 188.958 301.721 188.78 301.721 188.424H302.61C302.61 188.829 302.483 189.143 302.229 189.366C301.981 189.584 301.634 189.693 301.187 189.693ZM302.637 190.209H303.598V194.533C303.598 195.222 303.371 195.75 302.918 196.119C302.465 196.488 301.915 196.672 301.268 196.672C300.223 196.672 299.507 196.306 299.12 195.575L299.963 195.086C300.199 195.551 300.64 195.784 301.286 195.784C301.709 195.784 302.039 195.672 302.274 195.448C302.516 195.231 302.637 194.926 302.637 194.533V193.98C302.268 194.506 301.743 194.768 301.06 194.768C300.419 194.768 299.878 194.542 299.437 194.089C298.996 193.629 298.776 193.076 298.776 192.43C298.776 191.783 298.996 191.233 299.437 190.78C299.878 190.321 300.419 190.091 301.06 190.091C301.743 190.091 302.268 190.354 302.637 190.88V190.209ZM300.162 193.445C300.44 193.717 300.785 193.853 301.196 193.853C301.607 193.853 301.948 193.717 302.22 193.445C302.498 193.173 302.637 192.835 302.637 192.43C302.637 192.025 302.498 191.687 302.22 191.415C301.948 191.143 301.607 191.007 301.196 191.007C300.785 191.007 300.44 191.143 300.162 191.415C299.89 191.687 299.754 192.025 299.754 192.43C299.754 192.835 299.89 193.173 300.162 193.445ZM304.739 194.741V188.125H305.717V194.741H304.739ZM306.854 194.741V190.209H307.833V194.741H306.854Z"
                                fill="#23BC88" />
                            <path fill-rule="evenodd" clip-rule="evenodd"
                                d="M278.176 188.694C277.397 187.915 276.133 187.915 275.353 188.694L274.514 189.534C274.367 189.681 274.128 189.681 273.98 189.534C273.833 189.386 273.833 189.147 273.98 189L274.819 188.16C275.894 187.086 277.636 187.086 278.71 188.16C279.785 189.235 279.785 190.977 278.71 192.052L277.871 192.891C277.724 193.038 277.485 193.038 277.337 192.891C277.19 192.743 277.19 192.504 277.337 192.357L278.176 191.517C278.956 190.738 278.956 189.474 278.176 188.694ZM276.422 190.449C276.569 190.597 276.569 190.836 276.422 190.983L274.285 193.12C274.138 193.267 273.899 193.267 273.751 193.12C273.604 192.972 273.604 192.733 273.751 192.585L275.888 190.449C276.035 190.302 276.274 190.302 276.422 190.449ZM274.819 194.874C274.04 195.654 272.776 195.654 271.996 194.874C271.217 194.094 271.217 192.831 271.996 192.051L272.836 191.212C272.983 191.064 272.983 190.825 272.836 190.678C272.688 190.53 272.449 190.53 272.301 190.678L271.462 191.517C270.388 192.591 270.388 194.334 271.462 195.408C272.537 196.483 274.279 196.483 275.353 195.408L276.193 194.569C276.34 194.421 276.34 194.182 276.193 194.035C276.045 193.887 275.806 193.887 275.659 194.035L274.819 194.874Z"
                                fill="#23BC88" />
                            <rect x="139.128" y="221.998" width="205.449" height="36.2558" rx="12.0853" fill="white" />
                            <rect x="139.505" y="222.376" width="204.694" height="35.5004" rx="11.7076" stroke="#445B78"
                                stroke-opacity="0.15" stroke-width="0.755328" />
                            <path
                                d="M180.944 244.062L180.426 242.571H177.274L176.756 244.062H175.434L178.12 236.66H179.58L182.255 244.062H180.944ZM177.676 241.429H180.024L178.85 238.088L177.676 241.429ZM188.751 238.638C189.35 238.638 189.833 238.832 190.199 239.219C190.566 239.607 190.749 240.129 190.749 240.784V244.062H189.607V240.858C189.607 240.492 189.516 240.21 189.332 240.012C189.149 239.808 188.899 239.706 188.581 239.706C188.229 239.706 187.947 239.822 187.736 240.055C187.531 240.287 187.429 240.636 187.429 241.102V244.062H186.287V240.858C186.287 240.492 186.199 240.21 186.022 240.012C185.853 239.808 185.61 239.706 185.293 239.706C184.947 239.706 184.665 239.826 184.447 240.065C184.228 240.298 184.119 240.643 184.119 241.102V244.062H182.977V238.775H184.119V239.41C184.457 238.895 184.961 238.638 185.631 238.638C186.308 238.638 186.808 238.916 187.133 239.473C187.485 238.916 188.025 238.638 188.751 238.638ZM196.159 238.775H197.301V244.062H196.159V243.301C195.729 243.9 195.112 244.2 194.309 244.2C193.582 244.2 192.962 243.932 192.447 243.396C191.933 242.853 191.675 242.194 191.675 241.419C191.675 240.636 191.933 239.977 192.447 239.441C192.962 238.906 193.582 238.638 194.309 238.638C195.112 238.638 195.729 238.934 196.159 239.526V238.775ZM193.293 242.635C193.611 242.952 194.009 243.111 194.488 243.111C194.968 243.111 195.366 242.952 195.683 242.635C196 242.311 196.159 241.905 196.159 241.419C196.159 240.932 196 240.531 195.683 240.213C195.366 239.889 194.968 239.727 194.488 239.727C194.009 239.727 193.611 239.889 193.293 240.213C192.976 240.531 192.818 240.932 192.818 241.419C192.818 241.905 192.976 242.311 193.293 242.635ZM199.996 242.984H202.566V244.062H198.442V243.301L200.916 239.854H198.548V238.775H202.46V239.537L199.996 242.984ZM205.806 244.2C205.03 244.2 204.371 243.932 203.828 243.396C203.286 242.861 203.014 242.201 203.014 241.419C203.014 240.636 203.286 239.977 203.828 239.441C204.371 238.906 205.03 238.638 205.806 238.638C206.588 238.638 207.248 238.906 207.783 239.441C208.326 239.977 208.598 240.636 208.598 241.419C208.598 242.201 208.326 242.861 207.783 243.396C207.248 243.932 206.588 244.2 205.806 244.2ZM204.632 242.614C204.949 242.931 205.341 243.09 205.806 243.09C206.271 243.09 206.662 242.931 206.98 242.614C207.297 242.297 207.456 241.898 207.456 241.419C207.456 240.939 207.297 240.541 206.98 240.224C206.662 239.907 206.271 239.748 205.806 239.748C205.341 239.748 204.949 239.907 204.632 240.224C204.315 240.541 204.156 240.939 204.156 241.419C204.156 241.898 204.315 242.297 204.632 242.614ZM212.411 238.638C213.018 238.638 213.508 238.832 213.881 239.219C214.255 239.607 214.442 240.139 214.442 240.816V244.062H213.3V240.932C213.3 240.538 213.194 240.234 212.982 240.023C212.771 239.812 212.482 239.706 212.115 239.706C211.714 239.706 211.389 239.833 211.142 240.086C210.896 240.333 210.772 240.714 210.772 241.229V244.062H209.63V238.775H210.772V239.452C211.118 238.909 211.664 238.638 212.411 238.638Z"
                                fill="#0E0B3D" />
                            <rect x="148.19" y="231.062" width="18.1279" height="18.1279" rx="6.04263"
                                fill="url(#pattern423asd)" />
                            <path
                                d="M291.541 239.793C291.819 239.938 292.037 240.137 292.194 240.391C292.351 240.645 292.43 240.938 292.43 241.27C292.43 241.79 292.245 242.222 291.877 242.566C291.508 242.911 291.058 243.083 290.526 243.083H287.807V236.738H290.327C290.847 236.738 291.285 236.907 291.641 237.246C292.004 237.578 292.185 237.995 292.185 238.497C292.185 239.047 291.971 239.479 291.541 239.793ZM290.327 237.717H288.849V239.385H290.327C290.557 239.385 290.75 239.306 290.907 239.149C291.064 238.986 291.143 238.787 291.143 238.551C291.143 238.315 291.064 238.119 290.907 237.962C290.75 237.799 290.557 237.717 290.327 237.717ZM290.526 242.104C290.768 242.104 290.97 242.02 291.134 241.85C291.303 241.675 291.387 241.464 291.387 241.216C291.387 240.968 291.303 240.76 291.134 240.59C290.97 240.415 290.768 240.328 290.526 240.328H288.849V242.104H290.526ZM296.909 238.551H297.888V243.083H296.909V242.43C296.541 242.944 296.012 243.201 295.323 243.201C294.701 243.201 294.169 242.971 293.728 242.512C293.287 242.047 293.066 241.482 293.066 240.817C293.066 240.146 293.287 239.581 293.728 239.122C294.169 238.663 294.701 238.433 295.323 238.433C296.012 238.433 296.541 238.687 296.909 239.195V238.551ZM294.453 241.859C294.725 242.131 295.066 242.267 295.477 242.267C295.888 242.267 296.23 242.131 296.502 241.859C296.774 241.581 296.909 241.234 296.909 240.817C296.909 240.4 296.774 240.056 296.502 239.784C296.23 239.506 295.888 239.367 295.477 239.367C295.066 239.367 294.725 239.506 294.453 239.784C294.181 240.056 294.045 240.4 294.045 240.817C294.045 241.234 294.181 241.581 294.453 241.859ZM301.187 238.034C300.733 238.034 300.38 237.926 300.126 237.708C299.878 237.485 299.754 237.17 299.754 236.765H300.643C300.643 237.122 300.824 237.3 301.187 237.3C301.543 237.3 301.721 237.122 301.721 236.765H302.61C302.61 237.17 302.483 237.485 302.229 237.708C301.981 237.926 301.634 238.034 301.187 238.034ZM302.637 238.551H303.598V242.875C303.598 243.563 303.371 244.092 302.918 244.461C302.465 244.829 301.915 245.014 301.268 245.014C300.223 245.014 299.507 244.648 299.12 243.917L299.963 243.427C300.199 243.893 300.64 244.125 301.286 244.125C301.709 244.125 302.039 244.014 302.274 243.79C302.516 243.572 302.637 243.267 302.637 242.875V242.322C302.268 242.847 301.743 243.11 301.06 243.11C300.419 243.11 299.878 242.884 299.437 242.43C298.996 241.971 298.776 241.418 298.776 240.772C298.776 240.125 298.996 239.575 299.437 239.122C299.878 238.663 300.419 238.433 301.06 238.433C301.743 238.433 302.268 238.696 302.637 239.222V238.551ZM300.162 241.787C300.44 242.059 300.785 242.195 301.196 242.195C301.607 242.195 301.948 242.059 302.22 241.787C302.498 241.515 302.637 241.177 302.637 240.772C302.637 240.367 302.498 240.028 302.22 239.757C301.948 239.485 301.607 239.349 301.196 239.349C300.785 239.349 300.44 239.485 300.162 239.757C299.89 240.028 299.754 240.367 299.754 240.772C299.754 241.177 299.89 241.515 300.162 241.787ZM304.739 243.083V236.466H305.717V243.083H304.739ZM306.854 243.083V238.551H307.833V243.083H306.854Z"
                                fill="#23BC88" />
                            <path fill-rule="evenodd" clip-rule="evenodd"
                                d="M278.176 237.036C277.397 236.257 276.133 236.257 275.353 237.036L274.514 237.876C274.367 238.023 274.128 238.023 273.98 237.876C273.833 237.728 273.833 237.489 273.98 237.341L274.819 236.502C275.894 235.428 277.636 235.428 278.71 236.502C279.785 237.577 279.785 239.319 278.71 240.393L277.871 241.233C277.724 241.38 277.485 241.38 277.337 241.233C277.19 241.085 277.19 240.846 277.337 240.698L278.176 239.859C278.956 239.08 278.956 237.816 278.176 237.036ZM276.422 238.791C276.569 238.938 276.569 239.177 276.422 239.325L274.285 241.461C274.138 241.609 273.899 241.609 273.751 241.461C273.604 241.314 273.604 241.075 273.751 240.927L275.888 238.791C276.035 238.643 276.274 238.643 276.422 238.791ZM274.819 243.216C274.04 243.995 272.776 243.995 271.996 243.216C271.217 242.436 271.217 241.172 271.996 240.393L272.836 239.554C272.983 239.406 272.983 239.167 272.836 239.02C272.688 238.872 272.449 238.872 272.301 239.02L271.462 239.859C270.388 240.933 270.388 242.675 271.462 243.75C272.537 244.824 274.279 244.824 275.353 243.75L276.193 242.911C276.34 242.763 276.34 242.524 276.193 242.377C276.045 242.229 275.806 242.229 275.659 242.377L274.819 243.216Z"
                                fill="#23BC88" />
                            <rect x="139.505" y="270.717" width="204.694" height="35.5004" rx="11.7076" fill="white"
                                stroke="#23BC88" stroke-width="0.755328" />
                            <path
                                d="M180.51 285H181.726V292.402H180.51V289.198H177.338V292.402H176.122V285H177.338V288.035H180.51V285ZM184.031 290.245C184.115 290.647 184.309 290.957 184.612 291.176C184.915 291.387 185.286 291.493 185.723 291.493C186.329 291.493 186.784 291.274 187.087 290.837L188.028 291.387C187.506 292.156 186.734 292.54 185.712 292.54C184.852 292.54 184.158 292.279 183.629 291.757C183.1 291.229 182.836 290.562 182.836 289.759C182.836 288.969 183.097 288.31 183.618 287.781C184.14 287.245 184.81 286.978 185.627 286.978C186.403 286.978 187.037 287.249 187.531 287.792C188.031 288.335 188.282 288.994 188.282 289.769C188.282 289.889 188.268 290.048 188.239 290.245H184.031ZM184.02 289.315H187.129C187.052 288.885 186.872 288.56 186.59 288.342C186.315 288.123 185.991 288.014 185.617 288.014C185.194 288.014 184.841 288.13 184.559 288.363C184.277 288.595 184.098 288.913 184.02 289.315ZM192.279 286.978C193.005 286.978 193.626 287.249 194.14 287.792C194.655 288.328 194.912 288.983 194.912 289.759C194.912 290.541 194.655 291.2 194.14 291.736C193.626 292.272 193.005 292.54 192.279 292.54C191.476 292.54 190.859 292.244 190.429 291.652V294.517H189.287V287.115H190.429V287.876C190.859 287.277 191.476 286.978 192.279 286.978ZM190.905 290.975C191.222 291.292 191.62 291.451 192.099 291.451C192.579 291.451 192.977 291.292 193.294 290.975C193.612 290.65 193.77 290.245 193.77 289.759C193.77 289.272 193.612 288.87 193.294 288.553C192.977 288.229 192.579 288.067 192.099 288.067C191.62 288.067 191.222 288.229 190.905 288.553C190.587 288.87 190.429 289.272 190.429 289.759C190.429 290.245 190.587 290.65 190.905 290.975ZM196.87 288.574C196.87 288.751 196.965 288.892 197.155 288.997C197.353 289.096 197.589 289.184 197.864 289.262C198.146 289.332 198.428 289.417 198.71 289.515C198.992 289.614 199.228 289.783 199.418 290.023C199.616 290.256 199.714 290.552 199.714 290.911C199.714 291.419 199.517 291.817 199.122 292.106C198.734 292.395 198.245 292.54 197.652 292.54C197.131 292.54 196.683 292.431 196.309 292.212C195.936 291.993 195.664 291.69 195.495 291.303L196.479 290.732C196.662 291.239 197.053 291.493 197.652 291.493C198.252 291.493 198.551 291.296 198.551 290.901C198.551 290.732 198.452 290.594 198.255 290.488C198.065 290.383 197.829 290.294 197.547 290.224C197.272 290.146 196.993 290.058 196.711 289.96C196.429 289.861 196.19 289.699 195.992 289.473C195.802 289.241 195.707 288.948 195.707 288.595C195.707 288.109 195.89 287.718 196.256 287.422C196.63 287.126 197.092 286.978 197.642 286.978C198.079 286.978 198.467 287.076 198.805 287.274C199.15 287.464 199.415 287.732 199.598 288.077L198.636 288.617C198.452 288.215 198.121 288.014 197.642 288.014C197.423 288.014 197.24 288.063 197.092 288.162C196.944 288.254 196.87 288.391 196.87 288.574ZM201.735 286.11C201.594 286.251 201.425 286.322 201.227 286.322C201.03 286.322 200.857 286.251 200.709 286.11C200.568 285.962 200.498 285.79 200.498 285.592C200.498 285.395 200.568 285.226 200.709 285.085C200.85 284.937 201.023 284.863 201.227 284.863C201.432 284.863 201.605 284.937 201.746 285.085C201.887 285.226 201.957 285.395 201.957 285.592C201.957 285.79 201.883 285.962 201.735 286.11ZM200.656 292.402V287.115H201.798V292.402H200.656ZM206.117 286.978C206.843 286.978 207.464 287.245 207.978 287.781C208.493 288.317 208.75 288.976 208.75 289.759C208.75 290.534 208.493 291.193 207.978 291.736C207.464 292.272 206.843 292.54 206.117 292.54C205.313 292.54 204.697 292.24 204.267 291.641V292.402H203.124V285H204.267V287.866C204.697 287.274 205.313 286.978 206.117 286.978ZM204.742 290.975C205.06 291.292 205.458 291.451 205.937 291.451C206.417 291.451 206.815 291.292 207.132 290.975C207.449 290.65 207.608 290.245 207.608 289.759C207.608 289.272 207.449 288.87 207.132 288.553C206.815 288.229 206.417 288.067 205.937 288.067C205.458 288.067 205.06 288.229 204.742 288.553C204.425 288.87 204.267 289.272 204.267 289.759C204.267 290.245 204.425 290.65 204.742 290.975ZM213.349 287.115H214.491V292.402H213.349V291.726C213.003 292.268 212.457 292.54 211.71 292.54C211.104 292.54 210.614 292.346 210.24 291.958C209.866 291.57 209.679 291.038 209.679 290.361V287.115H210.822V290.245C210.822 290.64 210.927 290.943 211.139 291.155C211.35 291.366 211.639 291.472 212.006 291.472C212.408 291.472 212.732 291.348 212.979 291.102C213.225 290.848 213.349 290.464 213.349 289.949V287.115ZM216.968 288.003C217.257 287.348 217.8 287.02 218.597 287.02V288.257C218.16 288.229 217.779 288.335 217.455 288.574C217.131 288.807 216.968 289.195 216.968 289.738V292.402H215.826V287.115H216.968V288.003ZM223.38 287.115H224.522V292.402H223.38V291.641C222.95 292.24 222.334 292.54 221.53 292.54C220.804 292.54 220.183 292.272 219.669 291.736C219.154 291.193 218.897 290.534 218.897 289.759C218.897 288.976 219.154 288.317 219.669 287.781C220.183 287.245 220.804 286.978 221.53 286.978C222.334 286.978 222.95 287.274 223.38 287.866V287.115ZM220.515 290.975C220.832 291.292 221.23 291.451 221.71 291.451C222.189 291.451 222.587 291.292 222.905 290.975C223.222 290.65 223.38 290.245 223.38 289.759C223.38 289.272 223.222 288.87 222.905 288.553C222.587 288.229 222.189 288.067 221.71 288.067C221.23 288.067 220.832 288.229 220.515 288.553C220.197 288.87 220.039 289.272 220.039 289.759C220.039 290.245 220.197 290.65 220.515 290.975ZM230.041 285H231.183V292.402H230.041V291.641C229.611 292.24 228.994 292.54 228.191 292.54C227.465 292.54 226.844 292.272 226.329 291.736C225.815 291.193 225.558 290.534 225.558 289.759C225.558 288.976 225.815 288.317 226.329 287.781C226.844 287.245 227.465 286.978 228.191 286.978C228.994 286.978 229.611 287.274 230.041 287.866V285ZM227.175 290.975C227.493 291.292 227.891 291.451 228.37 291.451C228.85 291.451 229.248 291.292 229.565 290.975C229.883 290.65 230.041 290.245 230.041 289.759C230.041 289.272 229.883 288.87 229.565 288.553C229.248 288.229 228.85 288.067 228.37 288.067C227.891 288.067 227.493 288.229 227.175 288.553C226.858 288.87 226.7 289.272 226.7 289.759C226.7 290.245 226.858 290.65 227.175 290.975ZM236.702 287.115H237.844V292.402H236.702V291.641C236.272 292.24 235.655 292.54 234.851 292.54C234.125 292.54 233.505 292.272 232.99 291.736C232.476 291.193 232.218 290.534 232.218 289.759C232.218 288.976 232.476 288.317 232.99 287.781C233.505 287.245 234.125 286.978 234.851 286.978C235.655 286.978 236.272 287.274 236.702 287.866V287.115ZM233.836 290.975C234.153 291.292 234.552 291.451 235.031 291.451C235.511 291.451 235.909 291.292 236.226 290.975C236.543 290.65 236.702 290.245 236.702 289.759C236.702 289.272 236.543 288.87 236.226 288.553C235.909 288.229 235.511 288.067 235.031 288.067C234.552 288.067 234.153 288.229 233.836 288.553C233.519 288.87 233.36 289.272 233.36 289.759C233.36 290.245 233.519 290.65 233.836 290.975Z"
                                fill="#0E0B3D" />
                            <rect x="148.19" y="279.402" width="18.1279" height="18.1279" rx="6.04263"
                                fill="url(#pattern512z)" />
                            <path
                                d="M291.541 288.134C291.819 288.279 292.037 288.478 292.194 288.732C292.351 288.986 292.43 289.279 292.43 289.611C292.43 290.131 292.245 290.563 291.877 290.907C291.508 291.252 291.058 291.424 290.526 291.424H287.807V285.079H290.327C290.847 285.079 291.285 285.248 291.641 285.587C292.004 285.919 292.185 286.336 292.185 286.837C292.185 287.387 291.971 287.819 291.541 288.134ZM290.327 286.058H288.849V287.726H290.327C290.557 287.726 290.75 287.647 290.907 287.49C291.064 287.327 291.143 287.128 291.143 286.892C291.143 286.656 291.064 286.46 290.907 286.303C290.75 286.14 290.557 286.058 290.327 286.058ZM290.526 290.445C290.768 290.445 290.97 290.36 291.134 290.191C291.303 290.016 291.387 289.804 291.387 289.557C291.387 289.309 291.303 289.1 291.134 288.931C290.97 288.756 290.768 288.668 290.526 288.668H288.849V290.445H290.526ZM296.909 286.892H297.888V291.424H296.909V290.771C296.541 291.285 296.012 291.542 295.323 291.542C294.701 291.542 294.169 291.312 293.728 290.853C293.287 290.388 293.066 289.823 293.066 289.158C293.066 288.487 293.287 287.922 293.728 287.463C294.169 287.004 294.701 286.774 295.323 286.774C296.012 286.774 296.541 287.028 296.909 287.535V286.892ZM294.453 290.2C294.725 290.472 295.066 290.608 295.477 290.608C295.888 290.608 296.23 290.472 296.502 290.2C296.774 289.922 296.909 289.575 296.909 289.158C296.909 288.741 296.774 288.396 296.502 288.125C296.23 287.847 295.888 287.708 295.477 287.708C295.066 287.708 294.725 287.847 294.453 288.125C294.181 288.396 294.045 288.741 294.045 289.158C294.045 289.575 294.181 289.922 294.453 290.2ZM301.187 286.375C300.733 286.375 300.38 286.266 300.126 286.049C299.878 285.825 299.754 285.511 299.754 285.106H300.643C300.643 285.463 300.824 285.641 301.187 285.641C301.543 285.641 301.721 285.463 301.721 285.106H302.61C302.61 285.511 302.483 285.825 302.229 286.049C301.981 286.266 301.634 286.375 301.187 286.375ZM302.637 286.892H303.598V291.215C303.598 291.904 303.371 292.433 302.918 292.802C302.465 293.17 301.915 293.354 301.268 293.354C300.223 293.354 299.507 292.989 299.12 292.258L299.963 291.768C300.199 292.234 300.64 292.466 301.286 292.466C301.709 292.466 302.039 292.354 302.274 292.131C302.516 291.913 302.637 291.608 302.637 291.215V290.662C302.268 291.188 301.743 291.451 301.06 291.451C300.419 291.451 299.878 291.224 299.437 290.771C298.996 290.312 298.776 289.759 298.776 289.113C298.776 288.466 298.996 287.916 299.437 287.463C299.878 287.004 300.419 286.774 301.06 286.774C301.743 286.774 302.268 287.037 302.637 287.563V286.892ZM300.162 290.128C300.44 290.4 300.785 290.536 301.196 290.536C301.607 290.536 301.948 290.4 302.22 290.128C302.498 289.856 302.637 289.517 302.637 289.113C302.637 288.708 302.498 288.369 302.22 288.097C301.948 287.825 301.607 287.689 301.196 287.689C300.785 287.689 300.44 287.825 300.162 288.097C299.89 288.369 299.754 288.708 299.754 289.113C299.754 289.517 299.89 289.856 300.162 290.128ZM304.739 291.424V284.807H305.717V291.424H304.739ZM306.854 291.424V286.892H307.833V291.424H306.854ZM313.792 285.079C314.662 285.079 315.384 285.384 315.958 285.995C316.538 286.605 316.828 287.357 316.828 288.251C316.828 289.14 316.538 289.892 315.958 290.508C315.384 291.119 314.662 291.424 313.792 291.424H311.299V285.079H313.792ZM313.792 290.427C314.39 290.427 314.876 290.221 315.251 289.81C315.632 289.4 315.822 288.88 315.822 288.251C315.822 287.617 315.632 287.097 315.251 286.692C314.876 286.282 314.39 286.076 313.792 286.076H312.341V290.427H313.792ZM318.485 289.575C318.558 289.919 318.724 290.185 318.984 290.372C319.244 290.554 319.561 290.644 319.936 290.644C320.455 290.644 320.845 290.457 321.105 290.082L321.911 290.554C321.464 291.212 320.803 291.542 319.926 291.542C319.189 291.542 318.594 291.318 318.141 290.871C317.688 290.418 317.461 289.847 317.461 289.158C317.461 288.481 317.685 287.916 318.132 287.463C318.579 287.004 319.153 286.774 319.854 286.774C320.519 286.774 321.063 287.007 321.485 287.472C321.915 287.937 322.129 288.502 322.129 289.167C322.129 289.27 322.117 289.406 322.093 289.575H318.485ZM318.476 288.777H321.141C321.075 288.409 320.921 288.131 320.679 287.943C320.443 287.756 320.165 287.662 319.845 287.662C319.482 287.662 319.18 287.762 318.939 287.961C318.697 288.161 318.543 288.433 318.476 288.777ZM325.121 286.375C324.668 286.375 324.314 286.266 324.061 286.049C323.813 285.825 323.689 285.511 323.689 285.106H324.577C324.577 285.463 324.758 285.641 325.121 285.641C325.478 285.641 325.656 285.463 325.656 285.106H326.544C326.544 285.511 326.417 285.825 326.163 286.049C325.916 286.266 325.568 286.375 325.121 286.375ZM326.571 286.892H327.532V291.215C327.532 291.904 327.305 292.433 326.852 292.802C326.399 293.17 325.849 293.354 325.203 293.354C324.157 293.354 323.441 292.989 323.054 292.258L323.897 291.768C324.133 292.234 324.574 292.466 325.221 292.466C325.644 292.466 325.973 292.354 326.209 292.131C326.45 291.913 326.571 291.608 326.571 291.215V290.662C326.203 291.188 325.677 291.451 324.994 291.451C324.354 291.451 323.813 291.224 323.372 290.771C322.931 290.312 322.71 289.759 322.71 289.113C322.71 288.466 322.931 287.916 323.372 287.463C323.813 287.004 324.354 286.774 324.994 286.774C325.677 286.774 326.203 287.037 326.571 287.563V286.892ZM324.097 290.128C324.375 290.4 324.719 290.536 325.13 290.536C325.541 290.536 325.882 290.4 326.154 290.128C326.432 289.856 326.571 289.517 326.571 289.113C326.571 288.708 326.432 288.369 326.154 288.097C325.882 287.825 325.541 287.689 325.13 287.689C324.719 287.689 324.375 287.825 324.097 288.097C323.825 288.369 323.689 288.708 323.689 289.113C323.689 289.517 323.825 289.856 324.097 290.128ZM329.598 286.031C329.477 286.152 329.332 286.212 329.163 286.212C328.993 286.212 328.845 286.152 328.718 286.031C328.598 285.904 328.537 285.756 328.537 285.587C328.537 285.417 328.598 285.272 328.718 285.152C328.839 285.025 328.987 284.961 329.163 284.961C329.338 284.961 329.486 285.025 329.607 285.152C329.727 285.272 329.788 285.417 329.788 285.587C329.788 285.756 329.724 285.904 329.598 286.031ZM328.673 291.424V286.892H329.652V291.424H328.673ZM330.789 291.424V284.807H331.767V291.424H330.789Z"
                                fill="#445B78" />
                            <path fill-rule="evenodd" clip-rule="evenodd"
                                d="M270.512 285.95C270.512 285.741 270.681 285.572 270.89 285.572L272.191 285.572L272.191 284.271C272.191 284.063 272.36 283.894 272.569 283.894C272.777 283.894 272.946 284.063 272.946 284.271V285.95C272.946 286.158 272.777 286.327 272.569 286.327H270.89C270.681 286.327 270.512 286.158 270.512 285.95ZM277.604 293.041C277.813 293.041 277.982 292.872 277.982 292.664L277.982 291.363H279.283C279.491 291.363 279.66 291.194 279.66 290.985C279.66 290.777 279.491 290.608 279.283 290.608L277.604 290.608C277.395 290.608 277.226 290.777 277.226 290.985V292.664C277.226 292.872 277.395 293.041 277.604 293.041ZM276.612 287.476C276.76 287.328 276.76 287.089 276.612 286.942C276.465 286.794 276.226 286.794 276.078 286.942L273.56 289.46C273.413 289.607 273.413 289.846 273.56 289.994C273.708 290.141 273.947 290.141 274.094 289.994L276.612 287.476ZM278.176 285.378C277.397 284.598 276.133 284.598 275.353 285.378L274.514 286.217C274.367 286.364 274.128 286.364 273.98 286.217C273.833 286.07 273.833 285.83 273.98 285.683L274.819 284.844C275.894 283.769 277.636 283.769 278.71 284.844C279.785 285.918 279.785 287.66 278.71 288.735L277.871 289.574C277.724 289.722 277.485 289.722 277.337 289.574C277.19 289.427 277.19 289.187 277.337 289.04L278.176 288.201C278.956 287.421 278.956 286.157 278.176 285.378ZM274.819 291.557C274.04 292.337 272.776 292.337 271.996 291.557C271.217 290.778 271.217 289.514 271.996 288.734L272.836 287.895C272.983 287.748 272.983 287.508 272.836 287.361C272.688 287.213 272.449 287.213 272.301 287.361L271.462 288.2C270.388 289.275 270.388 291.017 271.462 292.091C272.537 293.166 274.279 293.166 275.353 292.091L276.193 291.252C276.34 291.105 276.34 290.865 276.193 290.718C276.045 290.571 275.806 290.571 275.658 290.718L274.819 291.557Z"
                                fill="#445B78" />
                            <rect x="213.149" y="318.68" width="131.427" height="36.2558" rx="12.0853" fill="#23BC88" />
                            <path
                                d="M228.439 340.881C227.727 340.881 227.121 340.718 226.62 340.394C226.127 340.07 225.782 339.626 225.584 339.062L226.631 338.448C226.927 339.28 227.54 339.696 228.471 339.696C228.929 339.696 229.271 339.608 229.497 339.432C229.729 339.249 229.846 339.012 229.846 338.723C229.846 338.42 229.722 338.191 229.476 338.036C229.229 337.874 228.792 337.698 228.164 337.507C227.812 337.402 227.526 337.303 227.308 337.211C227.089 337.12 226.857 336.993 226.61 336.831C226.37 336.661 226.19 336.453 226.071 336.207C225.951 335.96 225.891 335.671 225.891 335.34C225.891 334.684 226.123 334.166 226.589 333.785C227.054 333.397 227.614 333.203 228.27 333.203C228.862 333.203 229.38 333.348 229.825 333.637C230.269 333.926 230.611 334.324 230.85 334.832L229.825 335.424C229.514 334.733 228.996 334.388 228.27 334.388C227.918 334.388 227.636 334.472 227.424 334.642C227.213 334.804 227.107 335.026 227.107 335.308C227.107 335.583 227.213 335.801 227.424 335.963C227.643 336.119 228.034 336.284 228.598 336.46C228.88 336.552 229.084 336.623 229.211 336.672C229.345 336.714 229.528 336.785 229.761 336.883C230.001 336.982 230.181 337.081 230.3 337.18C230.42 337.278 230.547 337.402 230.681 337.55C230.822 337.698 230.921 337.867 230.977 338.057C231.034 338.248 231.062 338.463 231.062 338.702C231.062 339.372 230.819 339.904 230.332 340.299C229.853 340.687 229.222 340.881 228.439 340.881ZM233.079 338.586C233.163 338.988 233.357 339.298 233.66 339.517C233.964 339.728 234.334 339.834 234.771 339.834C235.377 339.834 235.832 339.615 236.135 339.178L237.076 339.728C236.554 340.496 235.782 340.881 234.76 340.881C233.9 340.881 233.206 340.62 232.677 340.098C232.148 339.569 231.884 338.903 231.884 338.1C231.884 337.31 232.145 336.651 232.666 336.122C233.188 335.586 233.858 335.318 234.676 335.318C235.451 335.318 236.086 335.59 236.579 336.133C237.08 336.675 237.33 337.335 237.33 338.11C237.33 338.23 237.316 338.389 237.288 338.586H233.079ZM233.068 337.655H236.177C236.1 337.225 235.92 336.901 235.638 336.683C235.363 336.464 235.039 336.355 234.665 336.355C234.242 336.355 233.89 336.471 233.608 336.704C233.326 336.936 233.146 337.254 233.068 337.655ZM243.179 339.506C242.995 339.858 242.735 340.151 242.396 340.384C242.065 340.616 241.695 340.768 241.286 340.838V341.23C241.526 341.272 241.723 341.364 241.878 341.505C242.033 341.653 242.111 341.839 242.111 342.065C242.111 342.798 241.353 343.119 239.837 343.027V342.192C240.69 342.262 241.117 342.174 241.117 341.928C241.117 341.737 240.859 341.631 240.345 341.61V340.849C239.661 340.743 239.1 340.437 238.663 339.929C238.226 339.414 238.008 338.804 238.008 338.1C238.008 337.31 238.272 336.651 238.801 336.122C239.337 335.586 240.003 335.318 240.799 335.318C241.314 335.318 241.783 335.442 242.206 335.689C242.629 335.935 242.946 336.267 243.158 336.683L242.174 337.254C242.054 337 241.871 336.802 241.624 336.661C241.385 336.513 241.106 336.439 240.789 336.439C240.324 336.439 239.932 336.598 239.615 336.915C239.305 337.232 239.15 337.627 239.15 338.1C239.15 338.572 239.305 338.967 239.615 339.284C239.932 339.601 240.324 339.76 240.789 339.76C241.099 339.76 241.377 339.686 241.624 339.538C241.878 339.39 242.068 339.192 242.195 338.945L243.179 339.506ZM245.083 334.451C244.942 334.592 244.773 334.663 244.575 334.663C244.378 334.663 244.205 334.592 244.057 334.451C243.916 334.303 243.846 334.131 243.846 333.933C243.846 333.736 243.916 333.567 244.057 333.426C244.198 333.277 244.371 333.203 244.575 333.203C244.78 333.203 244.952 333.277 245.093 333.426C245.234 333.567 245.305 333.736 245.305 333.933C245.305 334.131 245.231 334.303 245.083 334.451ZM244.004 340.743V335.456H245.146V340.743H244.004ZM246.472 340.743V333.024H247.614V340.743H246.472ZM250.019 334.451C249.878 334.592 249.709 334.663 249.511 334.663C249.314 334.663 249.141 334.592 248.993 334.451C248.852 334.303 248.782 334.131 248.782 333.933C248.782 333.736 248.852 333.567 248.993 333.426C249.134 333.277 249.307 333.203 249.511 333.203C249.716 333.203 249.889 333.277 250.03 333.426C250.171 333.567 250.241 333.736 250.241 333.933C250.241 334.131 250.167 334.303 250.019 334.451ZM248.94 340.743V335.456H250.082V340.743H248.94ZM261.211 333.341V340.743H259.995V335.466L257.743 339.189H257.595L255.342 335.456V340.743H254.126V333.341H255.437L257.669 337.042L259.91 333.341H261.211ZM266.801 335.456H267.943V340.743H266.801V339.982C266.371 340.581 265.754 340.881 264.95 340.881C264.224 340.881 263.603 340.613 263.089 340.077C262.574 339.534 262.317 338.875 262.317 338.1C262.317 337.317 262.574 336.658 263.089 336.122C263.603 335.586 264.224 335.318 264.95 335.318C265.754 335.318 266.371 335.614 266.801 336.207V335.456ZM263.935 339.316C264.252 339.633 264.65 339.791 265.13 339.791C265.609 339.791 266.007 339.633 266.325 339.316C266.642 338.991 266.801 338.586 266.801 338.1C266.801 337.613 266.642 337.211 266.325 336.894C266.007 336.57 265.609 336.408 265.13 336.408C264.65 336.408 264.252 336.57 263.935 336.894C263.618 337.211 263.459 337.613 263.459 338.1C263.459 338.586 263.618 338.991 263.935 339.316ZM271.791 334.853C271.262 334.853 270.849 334.726 270.553 334.472C270.264 334.212 270.12 333.845 270.12 333.373H271.156C271.156 333.789 271.368 333.997 271.791 333.997C272.206 333.997 272.414 333.789 272.414 333.373H273.451C273.451 333.845 273.303 334.212 273.007 334.472C272.718 334.726 272.312 334.853 271.791 334.853ZM273.482 335.456H274.603V340.5C274.603 341.304 274.339 341.92 273.81 342.351C273.282 342.781 272.64 342.996 271.886 342.996C270.666 342.996 269.831 342.569 269.38 341.716L270.363 341.145C270.638 341.688 271.153 341.959 271.907 341.959C272.4 341.959 272.785 341.829 273.059 341.568C273.341 341.314 273.482 340.958 273.482 340.5V339.855C273.052 340.468 272.439 340.775 271.642 340.775C270.895 340.775 270.264 340.511 269.75 339.982C269.235 339.446 268.978 338.801 268.978 338.047C268.978 337.292 269.235 336.651 269.75 336.122C270.264 335.586 270.895 335.318 271.642 335.318C272.439 335.318 273.052 335.625 273.482 336.238V335.456ZM270.596 339.231C270.92 339.548 271.322 339.707 271.801 339.707C272.28 339.707 272.679 339.548 272.996 339.231C273.32 338.914 273.482 338.519 273.482 338.047C273.482 337.574 273.32 337.18 272.996 336.862C272.679 336.545 272.28 336.386 271.801 336.386C271.322 336.386 270.92 336.545 270.596 336.862C270.278 337.18 270.12 337.574 270.12 338.047C270.12 338.519 270.278 338.914 270.596 339.231ZM280.122 335.456H281.264V340.743H280.122V339.982C279.692 340.581 279.075 340.881 278.271 340.881C277.545 340.881 276.925 340.613 276.41 340.077C275.896 339.534 275.638 338.875 275.638 338.1C275.638 337.317 275.896 336.658 276.41 336.122C276.925 335.586 277.545 335.318 278.271 335.318C279.075 335.318 279.692 335.614 280.122 336.207V335.456ZM277.256 339.316C277.574 339.633 277.972 339.791 278.451 339.791C278.931 339.791 279.329 339.633 279.646 339.316C279.963 338.991 280.122 338.586 280.122 338.1C280.122 337.613 279.963 337.211 279.646 336.894C279.329 336.57 278.931 336.408 278.451 336.408C277.972 336.408 277.574 336.57 277.256 336.894C276.939 337.211 276.78 337.613 276.78 338.1C276.78 338.586 276.939 338.991 277.256 339.316ZM283.959 339.665H286.529V340.743H282.405V339.982L284.879 336.534H282.511V335.456H286.423V336.217L283.959 339.665ZM291.461 335.456H292.603V340.743H291.461V339.982C291.031 340.581 290.414 340.881 289.61 340.881C288.884 340.881 288.264 340.613 287.749 340.077C287.235 339.534 286.977 338.875 286.977 338.1C286.977 337.317 287.235 336.658 287.749 336.122C288.264 335.586 288.884 335.318 289.61 335.318C290.414 335.318 291.031 335.614 291.461 336.207V335.456ZM288.595 339.316C288.912 339.633 289.311 339.791 289.79 339.791C290.269 339.791 290.668 339.633 290.985 339.316C291.302 338.991 291.461 338.586 291.461 338.1C291.461 337.613 291.302 337.211 290.985 336.894C290.668 336.57 290.269 336.408 289.79 336.408C289.311 336.408 288.912 336.57 288.595 336.894C288.278 337.211 288.119 337.613 288.119 338.1C288.119 338.586 288.278 338.991 288.595 339.316ZM297.498 335.456H298.714L296.683 340.912C296.176 342.28 295.316 342.929 294.103 342.858V341.79C294.463 341.811 294.752 341.734 294.97 341.557C295.189 341.388 295.369 341.12 295.51 340.754L295.563 340.648L293.321 335.456H294.569L296.144 339.294L297.498 335.456ZM299.428 340.743V335.456H300.57V340.743H299.428ZM308.97 336.905C309.295 337.074 309.548 337.306 309.732 337.603C309.915 337.899 310.007 338.241 310.007 338.628C310.007 339.235 309.792 339.739 309.362 340.14C308.932 340.542 308.406 340.743 307.786 340.743H304.614V333.341H307.553C308.16 333.341 308.671 333.538 309.087 333.933C309.51 334.321 309.721 334.807 309.721 335.392C309.721 336.034 309.471 336.538 308.97 336.905ZM307.553 334.483H305.83V336.429H307.553C307.821 336.429 308.047 336.337 308.23 336.154C308.413 335.963 308.505 335.731 308.505 335.456C308.505 335.181 308.413 334.952 308.23 334.769C308.047 334.578 307.821 334.483 307.553 334.483ZM307.786 339.601C308.068 339.601 308.304 339.502 308.495 339.305C308.692 339.101 308.791 338.854 308.791 338.565C308.791 338.276 308.692 338.033 308.495 337.835C308.304 337.631 308.068 337.528 307.786 337.528H305.83V339.601H307.786ZM315.233 335.456H316.375V340.743H315.233V339.982C314.803 340.581 314.186 340.881 313.382 340.881C312.656 340.881 312.036 340.613 311.521 340.077C311.007 339.534 310.749 338.875 310.749 338.1C310.749 337.317 311.007 336.658 311.521 336.122C312.036 335.586 312.656 335.318 313.382 335.318C314.186 335.318 314.803 335.614 315.233 336.207V335.456ZM312.367 339.316C312.685 339.633 313.083 339.791 313.562 339.791C314.042 339.791 314.44 339.633 314.757 339.316C315.074 338.991 315.233 338.586 315.233 338.1C315.233 337.613 315.074 337.211 314.757 336.894C314.44 336.57 314.042 336.408 313.562 336.408C313.083 336.408 312.685 336.57 312.367 336.894C312.05 337.211 311.891 337.613 311.891 338.1C311.891 338.586 312.05 338.991 312.367 339.316ZM320.223 334.853C319.694 334.853 319.282 334.726 318.986 334.472C318.697 334.212 318.552 333.845 318.552 333.373H319.589C319.589 333.789 319.8 333.997 320.223 333.997C320.639 333.997 320.847 333.789 320.847 333.373H321.883C321.883 333.845 321.735 334.212 321.439 334.472C321.15 334.726 320.745 334.853 320.223 334.853ZM321.915 335.456H323.036V340.5C323.036 341.304 322.771 341.92 322.243 342.351C321.714 342.781 321.072 342.996 320.318 342.996C319.099 342.996 318.263 342.569 317.812 341.716L318.795 341.145C319.07 341.688 319.585 341.959 320.339 341.959C320.833 341.959 321.217 341.829 321.492 341.568C321.774 341.314 321.915 340.958 321.915 340.5V339.855C321.485 340.468 320.872 340.775 320.075 340.775C319.328 340.775 318.697 340.511 318.182 339.982C317.667 339.446 317.41 338.801 317.41 338.047C317.41 337.292 317.667 336.651 318.182 336.122C318.697 335.586 319.328 335.318 320.075 335.318C320.872 335.318 321.485 335.625 321.915 336.238V335.456ZM319.028 339.231C319.352 339.548 319.754 339.707 320.234 339.707C320.713 339.707 321.111 339.548 321.428 339.231C321.753 338.914 321.915 338.519 321.915 338.047C321.915 337.574 321.753 337.18 321.428 336.862C321.111 336.545 320.713 336.386 320.234 336.386C319.754 336.386 319.352 336.545 319.028 336.862C318.711 337.18 318.552 337.574 318.552 338.047C318.552 338.519 318.711 338.914 319.028 339.231ZM324.367 340.743V333.024H325.509V340.743H324.367ZM331.023 335.456H332.165V340.743H331.023V339.982C330.593 340.581 329.976 340.881 329.172 340.881C328.446 340.881 327.826 340.613 327.311 340.077C326.796 339.534 326.539 338.875 326.539 338.1C326.539 337.317 326.796 336.658 327.311 336.122C327.826 335.586 328.446 335.318 329.172 335.318C329.976 335.318 330.593 335.614 331.023 336.207V335.456ZM328.157 339.316C328.474 339.633 328.872 339.791 329.352 339.791C329.831 339.791 330.23 339.633 330.547 339.316C330.864 338.991 331.023 338.586 331.023 338.1C331.023 337.613 330.864 337.211 330.547 336.894C330.23 336.57 329.831 336.408 329.352 336.408C328.872 336.408 328.474 336.57 328.157 336.894C327.84 337.211 327.681 337.613 327.681 338.1C327.681 338.586 327.84 338.991 328.157 339.316Z"
                                fill="white" />
                            <rect x="139.128" y="318.68" width="61.9369" height="36.2558" rx="12.0853" fill="#F8F8FA" />
                            <path
                                d="M166.269 336.503V337.581H164.481V339.368H163.403V337.581H161.616V336.503H163.403V334.716H164.481V336.503H166.269ZM167.176 340.743V339.791L169.756 337.158C170.384 336.531 170.697 335.988 170.697 335.53C170.697 335.17 170.588 334.892 170.369 334.694C170.158 334.49 169.887 334.388 169.555 334.388C168.935 334.388 168.477 334.694 168.18 335.308L167.155 334.705C167.387 334.212 167.715 333.838 168.138 333.584C168.561 333.33 169.03 333.203 169.545 333.203C170.193 333.203 170.75 333.408 171.215 333.817C171.681 334.226 171.913 334.783 171.913 335.488C171.913 336.242 171.494 337.046 170.655 337.899L168.984 339.569H172.051V340.743H167.176ZM178.244 338.279V339.411H177.398V340.743H176.171V339.411H172.533V338.279L175.082 333.341H176.404L173.855 338.279H176.171V336.355H177.398V338.279H178.244Z"
                                fill="#0E0B3D" />
                            <defs>
                                <pattern id="pattern13z9913z99" patternContentUnits="objectBoundingBox" width="1"
                                    height="1">
                                    <use xlink:href="#image0_172_34912312asdz1"
                                        transform="matrix(0.00086548 0 0 0.00098912 -0.000680038 0)" />
                                </pattern>
                                <pattern id="pattern1" patternContentUnits="objectBoundingBox" width="1" height="1">
                                    <use xlink:href="#image0_172_34912312asdz1"
                                        transform="matrix(0.00086548 0 0 0.00098912 -0.000680029 0)" />
                                </pattern>
                                <pattern id="pattern2" patternContentUnits="objectBoundingBox" width="1" height="1">
                                    <use xlink:href="#image0_172_34912312asdz1"
                                        transform="matrix(0.000867272 0 0 0.00098912 -0.00171663 0)" />
                                </pattern>
                                <filter id="filter0_d_172_34904" x="84.7452" y="48.2721" width="314.217" height="368.6"
                                    filterUnits="userSpaceOnUse" color-interpolation-filters="sRGB">
                                    <feFlood flood-opacity="0" result="BackgroundImageFix" />
                                    <feColorMatrix in="SourceAlpha" type="matrix"
                                        values="0 0 0 0 0 0 0 0 0 0 0 0 0 0 0 0 0 0 127 0" result="hardAlpha" />
                                    <feOffset dy="7.55328" />
                                    <feGaussianBlur stdDeviation="18.1279" />
                                    <feComposite in2="hardAlpha" operator="out" />
                                    <feColorMatrix type="matrix" values="0 0 0 0 0 0 0 0 0 0 0 0 0 0 0 0 0 0 0.04 0" />
                                    <feBlend mode="normal" in2="BackgroundImageFix"
                                        result="effect1_dropShadow_172_34904" />
                                    <feBlend mode="normal" in="SourceGraphic" in2="effect1_dropShadow_172_34904"
                                        result="shape" />
                                </filter>
                                <pattern id="pattern123z19" patternContentUnits="objectBoundingBox" width="1"
                                    height="1">
                                    <use xlink:href="#image1_172_34904z123a1" transform="scale(0.00195312)" />
                                </pattern>
                                <pattern id="pattern423asd" patternContentUnits="objectBoundingBox" width="1"
                                    height="1">
                                    <use xlink:href="#image2_172123809" transform="scale(0.00195312)" />
                                </pattern>
                                <pattern id="pattern512z" patternContentUnits="objectBoundingBox" width="1" height="1">
                                    <use xlink:href="#image3_1812_123123" transform="scale(0.00416667)" />
                                </pattern>
                                <linearGradient id="paint0_linear_172_34904" x1="43.0094" y1="115.332" x2="44.4883"
                                    y2="147.544" gradientUnits="userSpaceOnUse">
                                    <stop stop-color="#19EA9F" />
                                    <stop offset="1" stop-color="#24BD8F" />
                                </linearGradient>
                                <image id="image0_172_34912312asdz1" width="1157" height="1011" xlink:href="./assets./images/mug-mockup.png"></image>
                                    <image id="image1_172_34904z123a1" width="512" height="512" xlink:href="./assets./images/trendyol-logo.png"></image>
                                        <image id="image2_172123809" width="512" height="512" xlink:href="./assets./images/amazon.png"></image>
                                            <image id="image3_1812_123123" width="240" height="240" xlink:href="./assets./images/hepsiburada-logo.png"></image>
                            </defs>
                        </svg>