<svg width="197" height="120" viewBox="0 0 197 120" fill="none" xmlns="http://www.w3.org/2000/svg">
<rect x="0.314873" y="0.314873" width="195.62" height="119.022" rx="12.2801" fill="url(#paint0_linear_12_54653)"/>
<rect x="160.586" y="89.4241" width="28.5485" height="20.1519" rx="2.51899" fill="white" fill-opacity="0.1"/>
<path fill-rule="evenodd" clip-rule="evenodd" d="M175.011 103.555C174.017 104.393 172.728 104.899 171.318 104.899C168.174 104.899 165.625 102.38 165.625 99.2733C165.625 96.1663 168.174 93.6475 171.318 93.6475C172.728 93.6475 174.017 94.1534 175.011 94.9914C176.006 94.1534 177.295 93.6475 178.704 93.6475C181.849 93.6475 184.398 96.1663 184.398 99.2733C184.398 102.38 181.849 104.899 178.704 104.899C177.295 104.899 176.006 104.393 175.011 103.555Z" fill="white"/>
<path fill-rule="evenodd" clip-rule="evenodd" d="M175.012 103.555C176.236 102.523 177.012 100.988 177.012 99.2733C177.012 97.559 176.236 96.0237 175.012 94.9919C176.006 94.1536 177.296 93.6475 178.705 93.6475C181.85 93.6475 184.399 96.1663 184.399 99.2733C184.399 102.38 181.85 104.899 178.705 104.899C177.296 104.899 176.006 104.393 175.012 103.555Z" fill="white"/>
<path fill-rule="evenodd" clip-rule="evenodd" d="M175.01 103.555C176.234 102.523 177.011 100.988 177.011 99.2732C177.011 97.5586 176.234 96.0231 175.01 94.9913C173.786 96.0231 173.01 97.5586 173.01 99.2732C173.01 100.988 173.786 102.523 175.01 103.555Z" fill="white"/>
<path d="M12.046 106.722V100.626L10.6807 101.457V100.283L12.046 99.4668H13.1191V106.722H12.046ZM16.3422 106.716L16.3472 105.779L19.506 102.948C19.7613 102.723 19.9342 102.508 20.0249 102.303C20.119 102.098 20.166 101.893 20.166 101.689C20.166 101.43 20.1089 101.198 19.9947 100.993C19.8805 100.785 19.7226 100.621 19.5211 100.5C19.3196 100.379 19.0878 100.318 18.8259 100.318C18.5572 100.318 18.317 100.382 18.1054 100.51C17.8972 100.634 17.7343 100.8 17.6168 101.008C17.4992 101.217 17.4421 101.442 17.4455 101.684H16.3673C16.3673 101.213 16.4731 100.802 16.6847 100.449C16.8997 100.093 17.1936 99.8161 17.5664 99.618C17.9392 99.4165 18.3657 99.3157 18.846 99.3157C19.3028 99.3157 19.7126 99.4198 20.0753 99.6281C20.438 99.8329 20.7235 100.115 20.9317 100.474C21.1433 100.834 21.2491 101.244 21.2491 101.704C21.2491 102.036 21.2055 102.318 21.1182 102.55C21.0308 102.782 20.8998 102.997 20.7252 103.195C20.5505 103.393 20.3322 103.608 20.0703 103.84L17.6319 106.016L17.516 105.714H21.2491V106.716H16.3422ZM25.9991 106.858C25.6397 106.858 25.3022 106.79 24.9865 106.656C24.6707 106.518 24.397 106.324 24.1653 106.072C23.9369 105.82 23.7706 105.522 23.6665 105.18L24.6842 104.898C24.7816 105.21 24.9512 105.45 25.193 105.618C25.4348 105.783 25.7035 105.863 25.9991 105.86C26.2644 105.857 26.4978 105.795 26.6994 105.674C26.9009 105.553 27.0587 105.39 27.1729 105.185C27.2871 104.977 27.3442 104.738 27.3442 104.47C27.3442 104.067 27.2183 103.734 26.9664 103.472C26.7178 103.21 26.392 103.079 25.989 103.079C25.8748 103.079 25.7573 103.096 25.6364 103.129C25.5188 103.163 25.408 103.207 25.3038 103.26L24.8101 102.429L27.3694 100.167L27.4802 100.469H23.9537V99.4668H28.3166V100.469L26.1905 102.515L26.1805 102.172C26.6372 102.172 27.0335 102.275 27.3694 102.48C27.7053 102.681 27.9639 102.956 28.1453 103.306C28.33 103.652 28.4224 104.04 28.4224 104.47C28.4224 104.933 28.3132 105.344 28.0949 105.704C27.8799 106.063 27.5894 106.345 27.2233 106.55C26.8606 106.755 26.4525 106.858 25.9991 106.858ZM34.3195 106.722V105.457H31.0448V104.459L33.4025 99.4668H34.6066L32.2488 104.459H34.3195V102.495H35.3875V104.459H36.1079V105.457H35.3875V106.722H34.3195ZM43.6219 106.722V100.626L42.2566 101.457V100.283L43.6219 99.4668H44.695V106.722H43.6219ZM47.9181 106.716L47.9231 105.779L51.0819 102.948C51.3372 102.723 51.5101 102.508 51.6008 102.303C51.6949 102.098 51.7419 101.893 51.7419 101.689C51.7419 101.43 51.6848 101.198 51.5706 100.993C51.4564 100.785 51.2985 100.621 51.097 100.5C50.8955 100.379 50.6638 100.318 50.4018 100.318C50.1331 100.318 49.8929 100.382 49.6813 100.51C49.4731 100.634 49.3102 100.8 49.1927 101.008C49.0751 101.217 49.018 101.442 49.0214 101.684H47.9432C47.9432 101.213 48.049 100.802 48.2606 100.449C48.4756 100.093 48.7695 99.8161 49.1423 99.618C49.5151 99.4165 49.9416 99.3157 50.4219 99.3157C50.8787 99.3157 51.2885 99.4198 51.6512 99.6281C52.0139 99.8329 52.2994 100.115 52.5076 100.474C52.7192 100.834 52.825 101.244 52.825 101.704C52.825 102.036 52.7814 102.318 52.6941 102.55C52.6067 102.782 52.4757 102.997 52.3011 103.195C52.1264 103.393 51.9081 103.608 51.6462 103.84L49.2078 106.016L49.0919 105.714H52.825V106.716H47.9181ZM57.575 106.858C57.2156 106.858 56.8781 106.79 56.5624 106.656C56.2466 106.518 55.9729 106.324 55.7412 106.072C55.5128 105.82 55.3465 105.522 55.2424 105.18L56.2601 104.898C56.3575 105.21 56.5271 105.45 56.7689 105.618C57.0107 105.783 57.2794 105.863 57.575 105.86C57.8403 105.857 58.0737 105.795 58.2753 105.674C58.4768 105.553 58.6346 105.39 58.7488 105.185C58.863 104.977 58.9201 104.738 58.9201 104.47C58.9201 104.067 58.7942 103.734 58.5423 103.472C58.2937 103.21 57.9679 103.079 57.5649 103.079C57.4507 103.079 57.3332 103.096 57.2122 103.129C57.0947 103.163 56.9839 103.207 56.8797 103.26L56.386 102.429L58.9453 100.167L59.0561 100.469H55.5296V99.4668H59.8925V100.469L57.7664 102.515L57.7564 102.172C58.2131 102.172 58.6094 102.275 58.9453 102.48C59.2812 102.681 59.5398 102.956 59.7212 103.306C59.9059 103.652 59.9982 104.04 59.9982 104.47C59.9982 104.933 59.8891 105.344 59.6708 105.704C59.4558 106.063 59.1653 106.345 58.7992 106.55C58.4365 106.755 58.0284 106.858 57.575 106.858ZM65.8954 106.722V105.457H62.6207V104.459L64.9784 99.4668H66.1825L63.8247 104.459H65.8954V102.495H66.9634V104.459H67.6838V105.457H66.9634V106.722H65.8954ZM75.1978 106.722V100.626L73.8325 101.457V100.283L75.1978 99.4668H76.2709V106.722H75.1978ZM79.494 106.716L79.499 105.779L82.6578 102.948C82.9131 102.723 83.086 102.508 83.1767 102.303C83.2708 102.098 83.3178 101.893 83.3178 101.689C83.3178 101.43 83.2607 101.198 83.1465 100.993C83.0323 100.785 82.8744 100.621 82.6729 100.5C82.4714 100.379 82.2397 100.318 81.9777 100.318C81.709 100.318 81.4688 100.382 81.2572 100.51C81.049 100.634 80.8861 100.8 80.7686 101.008C80.651 101.217 80.5939 101.442 80.5973 101.684H79.5191C79.5191 101.213 79.6249 100.802 79.8365 100.449C80.0515 100.093 80.3454 99.8161 80.7182 99.618C81.091 99.4165 81.5175 99.3157 81.9978 99.3157C82.4546 99.3157 82.8644 99.4198 83.2271 99.6281C83.5898 99.8329 83.8753 100.115 84.0836 100.474C84.2951 100.834 84.4009 101.244 84.4009 101.704C84.4009 102.036 84.3573 102.318 84.27 102.55C84.1826 102.782 84.0516 102.997 83.877 103.195C83.7023 103.393 83.484 103.608 83.2221 103.84L80.7837 106.016L80.6678 105.714H84.4009V106.716H79.494ZM89.1509 106.858C88.7915 106.858 88.454 106.79 88.1383 106.656C87.8225 106.518 87.5488 106.324 87.3171 106.072C87.0887 105.82 86.9224 105.522 86.8183 105.18L87.836 104.898C87.9334 105.21 88.103 105.45 88.3448 105.618C88.5866 105.783 88.8553 105.863 89.1509 105.86C89.4162 105.857 89.6496 105.795 89.8512 105.674C90.0527 105.553 90.2105 105.39 90.3247 105.185C90.4389 104.977 90.496 104.738 90.496 104.47C90.496 104.067 90.3701 103.734 90.1182 103.472C89.8696 103.21 89.5439 103.079 89.1408 103.079C89.0266 103.079 88.9091 103.096 88.7882 103.129C88.6706 103.163 88.5598 103.207 88.4556 103.26L87.9619 102.429L90.5212 100.167L90.6321 100.469H87.1055V99.4668H91.4684V100.469L89.3423 102.515L89.3323 102.172C89.789 102.172 90.1854 102.275 90.5212 102.48C90.8571 102.681 91.1157 102.956 91.2971 103.306C91.4818 103.652 91.5742 104.04 91.5742 104.47C91.5742 104.933 91.465 105.344 91.2467 105.704C91.0317 106.063 90.7412 106.345 90.3751 106.55C90.0124 106.755 89.6043 106.858 89.1509 106.858ZM97.4713 106.722V105.457H94.1966V104.459L96.5543 99.4668H97.7584L95.4007 104.459H97.4713V102.495H98.5393V104.459H99.2597V105.457H98.5393V106.722H97.4713ZM106.774 106.722V100.626L105.408 101.457V100.283L106.774 99.4668H107.847V106.722H106.774ZM111.07 106.716L111.075 105.779L114.234 102.948C114.489 102.723 114.662 102.508 114.753 102.303C114.847 102.098 114.894 101.893 114.894 101.689C114.894 101.43 114.837 101.198 114.722 100.993C114.608 100.785 114.45 100.621 114.249 100.5C114.047 100.379 113.816 100.318 113.554 100.318C113.285 100.318 113.045 100.382 112.833 100.51C112.625 100.634 112.462 100.8 112.344 101.008C112.227 101.217 112.17 101.442 112.173 101.684H111.095C111.095 101.213 111.201 100.802 111.412 100.449C111.627 100.093 111.921 99.8161 112.294 99.618C112.667 99.4165 113.093 99.3157 113.574 99.3157C114.031 99.3157 114.44 99.4198 114.803 99.6281C115.166 99.8329 115.451 100.115 115.659 100.474C115.871 100.834 115.977 101.244 115.977 101.704C115.977 102.036 115.933 102.318 115.846 102.55C115.759 102.782 115.628 102.997 115.453 103.195C115.278 103.393 115.06 103.608 114.798 103.84L112.36 106.016L112.244 105.714H115.977V106.716H111.07ZM120.727 106.858C120.367 106.858 120.03 106.79 119.714 106.656C119.398 106.518 119.125 106.324 118.893 106.072C118.665 105.82 118.498 105.522 118.394 105.18L119.412 104.898C119.509 105.21 119.679 105.45 119.921 105.618C120.163 105.783 120.431 105.863 120.727 105.86C120.992 105.857 121.226 105.795 121.427 105.674C121.629 105.553 121.786 105.39 121.901 105.185C122.015 104.977 122.072 104.738 122.072 104.47C122.072 104.067 121.946 103.734 121.694 103.472C121.446 103.21 121.12 103.079 120.717 103.079C120.603 103.079 120.485 103.096 120.364 103.129C120.246 103.163 120.136 103.207 120.032 103.26L119.538 102.429L122.097 100.167L122.208 100.469H118.681V99.4668H123.044V100.469L120.918 102.515L120.908 102.172C121.365 102.172 121.761 102.275 122.097 102.48C122.433 102.681 122.692 102.956 122.873 103.306C123.058 103.652 123.15 104.04 123.15 104.47C123.15 104.933 123.041 105.344 122.823 105.704C122.608 106.063 122.317 106.345 121.951 106.55C121.588 106.755 121.18 106.858 120.727 106.858ZM129.047 106.722V105.457H125.772V104.459L128.13 99.4668H129.334L126.977 104.459H129.047V102.495H130.115V104.459H130.836V105.457H130.115V106.722H129.047Z" fill="white"/>
<path d="M10.6052 88.6076V83.1666H11.3949V85.7057L13.6733 83.1666H14.6557L12.2488 85.8229L14.8333 88.6076H13.8206L11.3949 86.008V88.6076H10.6052ZM15.743 88.6076V83.1666H19.2192V83.911H16.5327V85.4375H18.7658V86.1818H16.5327V87.8632H19.2192V88.6076H15.743ZM20.5045 88.6076V83.1666H22.7036C22.7565 83.1666 22.822 83.1691 22.9 83.1741C22.9781 83.1767 23.0524 83.1842 23.123 83.1968C23.4253 83.2447 23.6771 83.348 23.8787 83.5067C24.0827 83.6654 24.2351 83.8656 24.3359 84.1074C24.4366 84.3493 24.487 84.6163 24.487 84.9085C24.487 85.3417 24.3762 85.7158 24.1545 86.0307C23.9328 86.343 23.6003 86.5383 23.157 86.6163L22.8358 86.6541H21.2942V88.6076H20.5045ZM23.686 88.6076L22.6129 86.3934L23.4101 86.1894L24.589 88.6076H23.686ZM21.2942 85.906H22.6733C22.7237 85.906 22.7791 85.9035 22.8396 85.8984C22.9026 85.8934 22.9618 85.8846 23.0172 85.872C23.1784 85.8342 23.3081 85.7649 23.4064 85.6642C23.5046 85.5609 23.5751 85.4425 23.618 85.309C23.6608 85.1755 23.6822 85.042 23.6822 84.9085C23.6822 84.775 23.6608 84.6427 23.618 84.5117C23.5751 84.3782 23.5046 84.2611 23.4064 84.1603C23.3081 84.0571 23.1784 83.9865 23.0172 83.9487C22.9618 83.9336 22.9026 83.9235 22.8396 83.9185C22.7791 83.9135 22.7237 83.911 22.6733 83.911H21.2942V85.906ZM25.7973 88.6076V83.1666H29.2735V83.911H26.587V85.4375H28.8201V86.1818H26.587V87.8632H29.2735V88.6076H25.7973ZM30.5588 88.6076V83.1666H31.2729L33.2453 87.2587L35.2063 83.1666H35.928V88.6038H35.1799V84.882L33.4229 88.6076H33.0639L31.3031 84.882V88.6076H30.5588ZM39.2552 88.6076V83.1666H41.3938C41.7389 83.1666 42.0286 83.2371 42.2629 83.3782C42.4971 83.5193 42.6735 83.7019 42.7919 83.9261C42.9102 84.1477 42.9694 84.382 42.9694 84.6289C42.9694 84.9286 42.8951 85.1856 42.7465 85.3997C42.6004 85.6138 42.4027 85.7599 42.1533 85.838L42.1457 85.6528C42.4934 85.7385 42.7604 85.906 42.9468 86.1554C43.1332 86.4022 43.2264 86.6907 43.2264 87.0206C43.2264 87.3406 43.1621 87.6189 43.0337 87.8557C42.9077 88.0925 42.7226 88.2776 42.4782 88.4111C42.2364 88.5421 41.943 88.6076 41.5979 88.6076H39.2552ZM40.0562 87.8557H41.4769C41.6558 87.8557 41.8157 87.8217 41.9568 87.7537C42.1004 87.6857 42.2125 87.5887 42.2931 87.4627C42.3762 87.3343 42.4178 87.1819 42.4178 87.0055C42.4178 86.8418 42.3813 86.6944 42.3082 86.5634C42.2377 86.4299 42.1344 86.3254 41.9984 86.2498C41.8649 86.1717 41.7074 86.1327 41.5261 86.1327H40.0562V87.8557ZM40.0562 85.3883H41.3825C41.5286 85.3883 41.6596 85.3594 41.7754 85.3014C41.8938 85.241 41.987 85.1553 42.0551 85.0445C42.1256 84.9311 42.1608 84.7951 42.1608 84.6364C42.1608 84.4248 42.0903 84.251 41.9493 84.115C41.8082 83.979 41.6193 83.911 41.3825 83.911H40.0562V85.3883ZM46.9066 82.4827V81.727H47.6623V82.4827H46.9066ZM45.3877 82.4827V81.727H46.1434V82.4827H45.3877ZM46.525 88.721C46.0993 88.721 45.7227 88.6341 45.3952 88.4602C45.0703 88.2839 44.8159 88.0383 44.632 87.7234C44.4481 87.406 44.3561 87.0332 44.3561 86.605V83.1704L45.1572 83.1666V86.5634C45.1572 86.7952 45.1962 86.9992 45.2743 87.1756C45.3524 87.3519 45.4569 87.4993 45.5879 87.6176C45.7189 87.736 45.865 87.8255 46.0262 87.8859C46.19 87.9464 46.3562 87.9766 46.525 87.9766C46.6963 87.9766 46.8625 87.9464 47.0238 87.8859C47.1875 87.8229 47.3349 87.7323 47.4658 87.6139C47.5968 87.4955 47.7001 87.3481 47.7757 87.1718C47.8538 86.9955 47.8928 86.7927 47.8928 86.5634V83.1666H48.6938V86.605C48.6938 87.0307 48.6019 87.4023 48.418 87.7197C48.2341 88.0371 47.9785 88.2839 47.651 88.4602C47.326 88.6341 46.9507 88.721 46.525 88.721ZM51.4398 88.6076V86.3594L49.5997 83.1666H50.5216L51.8403 85.4526L53.159 83.1666H54.081L52.2408 86.3594V88.6076H51.4398ZM57.5366 82.4827V81.727H58.2922V82.4827H57.5366ZM56.0176 82.4827V81.727H56.7733V82.4827H56.0176ZM57.1549 88.721C56.7292 88.721 56.3526 88.6341 56.0252 88.4602C55.7002 88.2839 55.4458 88.0383 55.2619 87.7234C55.078 87.406 54.9861 87.0332 54.9861 86.605V83.1704L55.7871 83.1666V86.5634C55.7871 86.7952 55.8262 86.9992 55.9042 87.1756C55.9823 87.3519 56.0869 87.4993 56.2179 87.6176C56.3488 87.736 56.4949 87.8255 56.6562 87.8859C56.8199 87.9464 56.9862 87.9766 57.1549 87.9766C57.3262 87.9766 57.4925 87.9464 57.6537 87.8859C57.8174 87.8229 57.9648 87.7323 58.0958 87.6139C58.2268 87.4955 58.33 87.3481 58.4056 87.1718C58.4837 86.9955 58.5227 86.7927 58.5227 86.5634V83.1666H59.3238V86.605C59.3238 87.0307 59.2318 87.4023 59.0479 87.7197C58.8641 88.0371 58.6084 88.2839 58.2809 88.4602C57.956 88.6341 57.5806 88.721 57.1549 88.721ZM60.7586 88.6076V83.1666H61.5483V85.7057L63.8267 83.1666H64.8091L62.4022 85.8229L64.9867 88.6076H63.9741L61.5483 86.008V88.6076H60.7586ZM67.2529 88.6076V83.911H65.443V83.1666H69.8525V83.911H68.0426V88.6076H67.2529ZM73.1059 88.721C72.5618 88.721 72.0983 88.6026 71.7154 88.3658C71.3325 88.1265 71.0391 87.794 70.835 87.3683C70.6335 86.9426 70.5328 86.4488 70.5328 85.8871C70.5328 85.3254 70.6335 84.8316 70.835 84.4059C71.0391 83.9802 71.3325 83.649 71.7154 83.4122C72.0983 83.1729 72.5618 83.0532 73.1059 83.0532C73.6475 83.0532 74.1097 83.1729 74.4926 83.4122C74.878 83.649 75.1715 83.9802 75.373 84.4059C75.5745 84.8316 75.6753 85.3254 75.6753 85.8871C75.6753 86.4488 75.5745 86.9426 75.373 87.3683C75.1715 87.794 74.878 88.1265 74.4926 88.3658C74.1097 88.6026 73.6475 88.721 73.1059 88.721ZM73.1059 87.969C73.4913 87.9741 73.8112 87.8897 74.0656 87.7159C74.3226 87.5396 74.5153 87.2952 74.6437 86.9829C74.7722 86.668 74.8364 86.3027 74.8364 85.8871C74.8364 85.4715 74.7722 85.1087 74.6437 84.7989C74.5153 84.4865 74.3226 84.2435 74.0656 84.0696C73.8112 83.8958 73.4913 83.8077 73.1059 83.8052C72.7205 83.8001 72.3993 83.8845 72.1424 84.0583C71.888 84.2321 71.6965 84.4765 71.5681 84.7913C71.4396 85.1062 71.3741 85.4715 71.3716 85.8871C71.3691 86.3027 71.432 86.6667 71.5605 86.9791C71.689 87.2889 71.8817 87.5307 72.1386 87.7045C72.3981 87.8784 72.7205 87.9665 73.1059 87.969ZM76.8068 88.6076V83.1666H79.0059C79.0588 83.1666 79.1243 83.1691 79.2024 83.1741C79.2804 83.1767 79.3548 83.1842 79.4253 83.1968C79.7276 83.2447 79.9795 83.348 80.181 83.5067C80.385 83.6654 80.5374 83.8656 80.6382 84.1074C80.7389 84.3493 80.7893 84.6163 80.7893 84.9085C80.7893 85.3417 80.6785 85.7158 80.4568 86.0307C80.2351 86.343 79.9026 86.5383 79.4593 86.6163L79.1381 86.6541H77.5965V88.6076H76.8068ZM79.9883 88.6076L78.9152 86.3934L79.7125 86.1894L80.8913 88.6076H79.9883ZM77.5965 85.906H78.9757C79.026 85.906 79.0814 85.9035 79.1419 85.8984C79.2049 85.8934 79.2641 85.8846 79.3195 85.872C79.4807 85.8342 79.6104 85.7649 79.7087 85.6642C79.8069 85.5609 79.8774 85.4425 79.9203 85.309C79.9631 85.1755 79.9845 85.042 79.9845 84.9085C79.9845 84.775 79.9631 84.6427 79.9203 84.5117C79.8774 84.3782 79.8069 84.2611 79.7087 84.1603C79.6104 84.0571 79.4807 83.9865 79.3195 83.9487C79.2641 83.9336 79.2049 83.9235 79.1419 83.9185C79.0814 83.9135 79.026 83.911 78.9757 83.911H77.5965V85.906ZM84.2685 88.721C83.8428 88.721 83.4662 88.6341 83.1387 88.4602C82.8138 88.2839 82.5593 88.0383 82.3755 87.7234C82.1916 87.406 82.0996 87.0332 82.0996 86.605V83.1704L82.9007 83.1666V86.5634C82.9007 86.7952 82.9397 86.9992 83.0178 87.1756C83.0959 87.3519 83.2004 87.4993 83.3314 87.6176C83.4624 87.736 83.6085 87.8255 83.7697 87.8859C83.9335 87.9464 84.0997 87.9766 84.2685 87.9766C84.4398 87.9766 84.606 87.9464 84.7672 87.8859C84.931 87.8229 85.0783 87.7323 85.2093 87.6139C85.3403 87.4955 85.4436 87.3481 85.5192 87.1718C85.5972 86.9955 85.6363 86.7927 85.6363 86.5634V83.1666H86.4373V86.605C86.4373 87.0307 86.3454 87.4023 86.1615 87.7197C85.9776 88.0371 85.7219 88.2839 85.3945 88.4602C85.0695 88.6341 84.6942 88.721 84.2685 88.721ZM87.8721 88.6076V83.1666H88.6732L91.3521 87.2096V83.1666H92.1532V88.6076H91.3521L88.6732 84.5609V88.6076H87.8721Z" fill="white"/>
<path d="M14.646 15.267V22.5949H13.3185V15.267H14.646ZM13.984 14.4869C13.7765 14.4869 13.5988 14.419 13.4509 14.283C13.3054 14.1446 13.2326 13.9789 13.2326 13.7856C13.2326 13.59 13.3066 13.4243 13.4544 13.2883C13.6023 13.1499 13.7789 13.0808 13.984 13.0808C14.1892 13.0808 14.3645 13.1499 14.51 13.2883C14.6579 13.4243 14.7318 13.59 14.7318 13.7856C14.7318 13.9789 14.6579 14.1446 14.51 14.283C14.3645 14.419 14.1892 14.4869 13.984 14.4869ZM20.37 18.5517L19.1893 18.6805C19.1559 18.5612 19.0974 18.4491 19.0139 18.3441C18.9328 18.2392 18.8231 18.1545 18.6847 18.0901C18.5464 18.0257 18.377 17.9935 18.1767 17.9935C17.9071 17.9935 17.6805 18.0519 17.4968 18.1688C17.3155 18.2857 17.2261 18.4372 17.2285 18.6232C17.2261 18.7831 17.2845 18.9131 17.4038 19.0133C17.5254 19.1134 17.7258 19.1957 18.0049 19.2601L18.9424 19.4605C19.4624 19.5726 19.8488 19.7503 20.1017 19.9937C20.3569 20.237 20.4857 20.5554 20.4881 20.949C20.4857 21.2949 20.3843 21.6002 20.184 21.865C19.986 22.1274 19.7105 22.3325 19.3574 22.4804C19.0044 22.6283 18.5989 22.7023 18.1409 22.7023C17.4682 22.7023 16.9267 22.5615 16.5164 22.2801C16.1061 21.9962 15.8616 21.6014 15.7829 21.0957L17.046 20.9741C17.1032 21.2221 17.2249 21.4094 17.4109 21.5358C17.597 21.6622 17.8391 21.7255 18.1373 21.7255C18.445 21.7255 18.6919 21.6622 18.878 21.5358C19.0664 21.4094 19.1606 21.2531 19.1606 21.0671C19.1606 20.9097 19.0998 20.7796 18.9782 20.6771C18.8589 20.5745 18.6728 20.4958 18.42 20.4409L17.4825 20.2441C16.9553 20.1344 16.5653 19.9495 16.3125 19.6895C16.0596 19.4271 15.9344 19.0956 15.9368 18.6948C15.9344 18.3561 16.0262 18.0627 16.2123 17.8146C16.4007 17.5641 16.6619 17.3709 16.9959 17.2349C17.3322 17.0966 17.7199 17.0274 18.1588 17.0274C18.8028 17.0274 19.3097 17.1646 19.6795 17.4389C20.0516 17.7132 20.2818 18.0841 20.37 18.5517ZM17.8153 22.5663H18.5166L18.4593 22.8705C18.6836 22.9039 18.8732 22.9897 19.0282 23.1281C19.1857 23.2688 19.2644 23.4704 19.2644 23.7328C19.2668 24.0715 19.1153 24.3434 18.81 24.5486C18.5046 24.7537 18.0693 24.8563 17.504 24.8563L17.4897 24.2194C17.764 24.2194 17.9822 24.1824 18.1445 24.1085C18.3067 24.0369 18.389 23.9224 18.3913 23.765C18.3961 23.6123 18.3389 23.5002 18.2196 23.4286C18.1027 23.3595 17.9166 23.3118 17.6614 23.2855L17.8153 22.5663ZM24.1127 22.5949V15.267H26.918C27.4475 15.267 27.8876 15.3505 28.2383 15.5174C28.5913 15.682 28.8549 15.9075 29.0291 16.1937C29.2056 16.48 29.2938 16.8044 29.2938 17.167C29.2938 17.4651 29.2366 17.7204 29.1221 17.9327C29.0076 18.1426 28.8537 18.3131 28.6605 18.4443C28.4673 18.5755 28.2514 18.6698 28.0129 18.727V18.7986C28.2729 18.8129 28.5222 18.8928 28.7607 19.0383C29.0016 19.1814 29.1984 19.3842 29.3511 19.6466C29.5038 19.909 29.5801 20.2262 29.5801 20.5984C29.5801 20.9776 29.4882 21.3187 29.3046 21.6217C29.1209 21.9223 28.8442 22.1596 28.4744 22.3337C28.1047 22.5079 27.6396 22.5949 27.079 22.5949H24.1127ZM25.4402 21.4857H26.8679C27.3497 21.4857 27.6968 21.3939 27.9091 21.2102C28.1238 21.0242 28.2311 20.7856 28.2311 20.4946C28.2311 20.2775 28.1775 20.0819 28.0701 19.9078C27.9628 19.7313 27.8101 19.5929 27.6121 19.4927C27.4141 19.3901 27.178 19.3389 26.9037 19.3389H25.4402V21.4857ZM25.4402 18.3835H26.7534C26.9824 18.3835 27.1887 18.3418 27.3724 18.2583C27.5561 18.1724 27.7004 18.0519 27.8053 17.8969C27.9127 17.7394 27.9664 17.5534 27.9664 17.3387C27.9664 17.0548 27.8662 16.8211 27.6658 16.6374C27.4678 16.4537 27.1732 16.3619 26.782 16.3619H25.4402V18.3835ZM32.2592 22.7059C31.9109 22.7059 31.5972 22.6438 31.3181 22.5198C31.0414 22.3934 30.822 22.2073 30.6598 21.9616C30.5 21.7159 30.42 21.413 30.42 21.0528C30.42 20.7427 30.4773 20.4862 30.5918 20.2835C30.7063 20.0807 30.8625 19.9185 31.0605 19.7969C31.2585 19.6752 31.4815 19.5834 31.7296 19.5213C31.9801 19.4569 32.2389 19.4104 32.5061 19.3818C32.8281 19.3484 33.0893 19.3186 33.2897 19.2923C33.4901 19.2637 33.6356 19.2208 33.7262 19.1635C33.8192 19.1039 33.8658 19.0121 33.8658 18.888V18.8666C33.8658 18.597 33.7859 18.3883 33.626 18.2404C33.4662 18.0925 33.236 18.0185 32.9355 18.0185C32.6182 18.0185 32.3665 18.0877 32.1805 18.2261C31.9968 18.3644 31.8728 18.5278 31.8084 18.7163L30.5989 18.5445C30.6944 18.2106 30.8518 17.9315 31.0713 17.7072C31.2907 17.4806 31.5591 17.3113 31.8763 17.1992C32.1936 17.0847 32.5442 17.0274 32.9283 17.0274C33.1931 17.0274 33.4567 17.0584 33.7191 17.1204C33.9815 17.1825 34.2212 17.285 34.4383 17.4282C34.6553 17.5689 34.8295 17.7609 34.9607 18.0042C35.0942 18.2475 35.161 18.5517 35.161 18.9166V22.5949H33.9159V21.84H33.8729C33.7942 21.9926 33.6833 22.1357 33.5402 22.2693C33.3994 22.4005 33.2217 22.5067 33.007 22.5878C32.7947 22.6665 32.5454 22.7059 32.2592 22.7059ZM32.5955 21.7541C32.8555 21.7541 33.081 21.7028 33.2718 21.6002C33.4626 21.4953 33.6093 21.3569 33.7119 21.1852C33.8169 21.0134 33.8693 20.8262 33.8693 20.6234V19.9758C33.8288 20.0092 33.7596 20.0402 33.6618 20.0688C33.5664 20.0974 33.4591 20.1225 33.3398 20.1439C33.2205 20.1654 33.1024 20.1845 32.9855 20.2012C32.8687 20.2179 32.7673 20.2322 32.6814 20.2441C32.4882 20.2704 32.3152 20.3133 32.1626 20.3729C32.0099 20.4326 31.8895 20.5161 31.8012 20.6234C31.7129 20.7284 31.6688 20.8643 31.6688 21.0313C31.6688 21.2698 31.7559 21.4499 31.93 21.5716C32.1041 21.6933 32.326 21.7541 32.5955 21.7541ZM37.7587 19.3746V22.5949H36.4635V17.099H37.7015V18.0329H37.7659C37.8923 17.7251 38.0939 17.4806 38.3706 17.2993C38.6497 17.1181 38.9944 17.0274 39.4047 17.0274C39.784 17.0274 40.1143 17.1085 40.3958 17.2707C40.6797 17.4329 40.8991 17.6679 41.0542 17.9756C41.2116 18.2833 41.2891 18.6566 41.2868 19.0956V22.5949H39.9915V19.2959C39.9915 18.9286 39.8961 18.6411 39.7052 18.4336C39.5168 18.2261 39.2556 18.1223 38.9216 18.1223C38.695 18.1223 38.4934 18.1724 38.3169 18.2726C38.1428 18.3704 38.0056 18.5123 37.9054 18.6984C37.8076 18.8844 37.7587 19.1099 37.7587 19.3746ZM43.7843 20.8703L43.7807 19.3067H43.9882L45.9633 17.099H47.4769L45.0473 19.804H44.779L43.7843 20.8703ZM42.6035 22.5949V15.267H43.8988V22.5949H42.6035ZM46.0528 22.5949L44.2637 20.0938L45.1368 19.1814L47.6021 22.5949H46.0528ZM49.9216 22.7059C49.5734 22.7059 49.2597 22.6438 48.9806 22.5198C48.7039 22.3934 48.4844 22.2073 48.3222 21.9616C48.1624 21.7159 48.0825 21.413 48.0825 21.0528C48.0825 20.7427 48.1397 20.4862 48.2542 20.2835C48.3687 20.0807 48.525 19.9185 48.723 19.7969C48.9209 19.6752 49.144 19.5834 49.3921 19.5213C49.6425 19.4569 49.9013 19.4104 50.1685 19.3818C50.4905 19.3484 50.7517 19.3186 50.9521 19.2923C51.1525 19.2637 51.298 19.2208 51.3886 19.1635C51.4817 19.1039 51.5282 19.0121 51.5282 18.888V18.8666C51.5282 18.597 51.4483 18.3883 51.2885 18.2404C51.1286 18.0925 50.8984 18.0185 50.5979 18.0185C50.2806 18.0185 50.029 18.0877 49.8429 18.2261C49.6592 18.3644 49.5352 18.5278 49.4708 18.7163L48.2614 18.5445C48.3568 18.2106 48.5142 17.9315 48.7337 17.7072C48.9531 17.4806 49.2215 17.3113 49.5388 17.1992C49.856 17.0847 50.2067 17.0274 50.5907 17.0274C50.8555 17.0274 51.1191 17.0584 51.3815 17.1204C51.6439 17.1825 51.8836 17.285 52.1007 17.4282C52.3178 17.5689 52.4919 17.7609 52.6231 18.0042C52.7567 18.2475 52.8235 18.5517 52.8235 18.9166V22.5949H51.5783V21.84H51.5353C51.4566 21.9926 51.3457 22.1357 51.2026 22.2693C51.0618 22.4005 50.8841 22.5067 50.6694 22.5878C50.4571 22.6665 50.2079 22.7059 49.9216 22.7059ZM50.258 21.7541C50.518 21.7541 50.7434 21.7028 50.9342 21.6002C51.1251 21.4953 51.2718 21.3569 51.3743 21.1852C51.4793 21.0134 51.5318 20.8262 51.5318 20.6234V19.9758C51.4912 20.0092 51.422 20.0402 51.3242 20.0688C51.2288 20.0974 51.1215 20.1225 51.0022 20.1439C50.8829 20.1654 50.7649 20.1845 50.648 20.2012C50.5311 20.2179 50.4297 20.2322 50.3438 20.2441C50.1506 20.2704 49.9777 20.3133 49.825 20.3729C49.6723 20.4326 49.5519 20.5161 49.4636 20.6234C49.3754 20.7284 49.3312 20.8643 49.3312 21.0313C49.3312 21.2698 49.4183 21.4499 49.5924 21.5716C49.7666 21.6933 49.9884 21.7541 50.258 21.7541ZM58.4697 18.5517L57.2889 18.6805C57.2555 18.5612 57.1971 18.4491 57.1136 18.3441C57.0325 18.2392 56.9228 18.1545 56.7844 18.0901C56.6461 18.0257 56.4767 17.9935 56.2763 17.9935C56.0068 17.9935 55.7802 18.0519 55.5965 18.1688C55.4152 18.2857 55.3258 18.4372 55.3281 18.6232C55.3258 18.7831 55.3842 18.9131 55.5035 19.0133C55.6251 19.1134 55.8255 19.1957 56.1046 19.2601L57.0421 19.4605C57.5621 19.5726 57.9485 19.7503 58.2014 19.9937C58.4566 20.237 58.5854 20.5554 58.5878 20.949C58.5854 21.2949 58.484 21.6002 58.2837 21.865C58.0857 22.1274 57.8102 22.3325 57.4571 22.4804C57.1041 22.6283 56.6986 22.7023 56.2406 22.7023C55.5679 22.7023 55.0264 22.5615 54.6161 22.2801C54.2058 21.9962 53.9613 21.6014 53.8826 21.0957L55.1457 20.9741C55.2029 21.2221 55.3246 21.4094 55.5106 21.5358C55.6967 21.6622 55.9388 21.7255 56.237 21.7255C56.5447 21.7255 56.7916 21.6622 56.9776 21.5358C57.1661 21.4094 57.2603 21.2531 57.2603 21.0671C57.2603 20.9097 57.1995 20.7796 57.0778 20.6771C56.9586 20.5745 56.7725 20.4958 56.5197 20.4409L55.5822 20.2441C55.055 20.1344 54.665 19.9495 54.4121 19.6895C54.1593 19.4271 54.0341 19.0956 54.0364 18.6948C54.0341 18.3561 54.1259 18.0627 54.312 17.8146C54.5004 17.5641 54.7616 17.3709 55.0956 17.2349C55.4319 17.0966 55.8195 17.0274 56.2584 17.0274C56.9025 17.0274 57.4094 17.1646 57.7791 17.4389C58.1513 17.7132 58.3815 18.0841 58.4697 18.5517ZM59.6559 22.5949V17.099H60.9511V22.5949H59.6559Z" fill="white"/>
<path d="M110.689 88.721C110.319 88.721 109.991 88.6404 109.707 88.4791C109.422 88.3154 109.198 88.0912 109.034 87.8066C108.873 87.5219 108.792 87.1945 108.792 86.8242V84.95C108.792 84.5797 108.873 84.2523 109.034 83.9676C109.198 83.683 109.422 83.4601 109.707 83.2988C109.991 83.1351 110.319 83.0532 110.689 83.0532C111.059 83.0532 111.387 83.1351 111.671 83.2988C111.956 83.4601 112.179 83.683 112.34 83.9676C112.504 84.2523 112.586 84.5797 112.586 84.95V86.8242C112.586 87.1945 112.504 87.5219 112.34 87.8066C112.179 88.0912 111.956 88.3154 111.671 88.4791C111.387 88.6404 111.059 88.721 110.689 88.721ZM110.689 87.9653C110.891 87.9653 111.073 87.9174 111.237 87.8217C111.403 87.7234 111.535 87.5925 111.634 87.4287C111.732 87.2625 111.781 87.0773 111.781 86.8733V84.8934C111.781 84.6918 111.732 84.5092 111.634 84.3455C111.535 84.1792 111.403 84.0482 111.237 83.9525C111.073 83.8543 110.891 83.8052 110.689 83.8052C110.488 83.8052 110.304 83.8543 110.137 83.9525C109.974 84.0482 109.843 84.1792 109.744 84.3455C109.646 84.5092 109.597 84.6918 109.597 84.8934V86.8733C109.597 87.0773 109.646 87.2625 109.744 87.4287C109.843 87.5925 109.974 87.7234 110.137 87.8217C110.304 87.9174 110.488 87.9653 110.689 87.9653ZM115.889 88.721C115.536 88.721 115.219 88.6378 114.937 88.4716C114.655 88.3028 114.43 88.0723 114.264 87.7801C114.101 87.4879 114.019 87.1554 114.019 86.7826V85.0483C114.019 84.6528 114.101 84.3052 114.264 84.0054C114.43 83.7057 114.66 83.4726 114.952 83.3064C115.247 83.1401 115.585 83.057 115.968 83.057C116.255 83.057 116.525 83.1112 116.777 83.2195C117.029 83.3278 117.247 83.489 117.431 83.7031L116.852 84.2435C116.749 84.11 116.619 84.0042 116.463 83.9261C116.31 83.8455 116.145 83.8052 115.968 83.8052C115.742 83.8052 115.543 83.8593 115.371 83.9676C115.2 84.0734 115.065 84.2132 114.967 84.387C114.871 84.5609 114.823 84.7473 114.823 84.9463V85.9438L114.669 85.77C114.825 85.5659 115.019 85.4047 115.25 85.2863C115.482 85.1679 115.73 85.1087 115.995 85.1087C116.332 85.1087 116.633 85.1881 116.898 85.3468C117.165 85.503 117.374 85.7158 117.525 85.9853C117.679 86.2549 117.756 86.5584 117.756 86.896C117.756 87.236 117.67 87.5446 117.499 87.8217C117.33 88.0963 117.103 88.3154 116.818 88.4791C116.536 88.6404 116.227 88.721 115.889 88.721ZM115.889 87.9615C116.085 87.9615 116.264 87.9136 116.426 87.8179C116.587 87.7222 116.715 87.5937 116.811 87.4325C116.907 87.2713 116.955 87.0924 116.955 86.896C116.955 86.6995 116.907 86.5206 116.811 86.3594C116.718 86.1982 116.591 86.0697 116.429 85.974C116.268 85.8783 116.089 85.8304 115.893 85.8304C115.696 85.8304 115.516 85.8783 115.352 85.974C115.191 86.0697 115.063 86.1982 114.967 86.3594C114.871 86.5206 114.823 86.6995 114.823 86.896C114.823 87.0899 114.871 87.2675 114.967 87.4287C115.063 87.5899 115.191 87.7197 115.352 87.8179C115.514 87.9136 115.693 87.9615 115.889 87.9615ZM120.465 83.1666H121.263L119.812 88.6076H119.014L120.465 83.1666ZM122.475 88.6038L122.479 87.901L124.848 85.7775C125.04 85.6088 125.169 85.4475 125.237 85.2939C125.308 85.1402 125.343 84.9866 125.343 84.8329C125.343 84.6389 125.3 84.4651 125.215 84.3115C125.129 84.1553 125.011 84.0319 124.86 83.9412C124.708 83.8505 124.535 83.8052 124.338 83.8052C124.137 83.8052 123.957 83.853 123.798 83.9487C123.642 84.0419 123.519 84.1666 123.431 84.3228C123.343 84.479 123.3 84.6478 123.303 84.8291H122.494C122.494 84.4765 122.574 84.1679 122.732 83.9034C122.894 83.6364 123.114 83.4286 123.394 83.2799C123.673 83.1288 123.993 83.0532 124.353 83.0532C124.696 83.0532 125.003 83.1313 125.275 83.2875C125.547 83.4412 125.761 83.6528 125.918 83.9223C126.076 84.1918 126.156 84.4991 126.156 84.8442C126.156 85.0936 126.123 85.3052 126.057 85.479C125.992 85.6528 125.894 85.814 125.763 85.9627C125.632 86.1113 125.468 86.2725 125.271 86.4463L123.443 88.0786L123.356 87.8519H126.156V88.6038H122.475ZM129.597 88.6076V87.6592H127.141V86.9111L128.909 83.1666H129.812L128.044 86.9111H129.597V85.4375H130.398V86.9111H130.938V87.6592H130.398V88.6076H129.597Z" fill="white"/>
<g clip-path="url(#clip0_12_54653)">
<path d="M180.346 13.4045C181.53 15.456 182.153 17.783 182.153 20.1518C182.153 22.5206 181.53 24.8477 180.346 26.8991M177.377 14.8889C178.301 16.4891 178.787 18.3042 178.787 20.1518C178.787 21.9995 178.301 23.8146 177.377 25.4147M174.543 16.2519C175.211 17.4212 175.563 18.7476 175.563 20.0979C175.563 21.4481 175.211 22.7745 174.543 23.9438M171.709 17.7228C172.19 18.4514 172.446 19.293 172.446 20.1518C172.446 21.0107 172.19 21.8522 171.709 22.5809" stroke="white" stroke-width="1.61935" stroke-linecap="round"/>
</g>
<rect x="0.314873" y="0.314873" width="195.62" height="119.022" rx="12.2801" stroke="url(#paint1_linear_12_54653)" stroke-width="0.629747"/>
<defs>
<linearGradient id="paint0_linear_12_54653" x1="-0.0030562" y1="119.651" x2="106.361" y2="-54.8045" gradientUnits="userSpaceOnUse">
<stop stop-color="#42307D"/>
<stop offset="1" stop-color="#7F56D9"/>
</linearGradient>
<linearGradient id="paint1_linear_12_54653" x1="1.10876e-07" y1="5.05248" x2="193.263" y2="124.485" gradientUnits="userSpaceOnUse">
<stop stop-color="white"/>
<stop offset="1" stop-color="white" stop-opacity="0.2"/>
</linearGradient>
<clipPath id="clip0_12_54653">
<rect width="12.5949" height="15.1139" fill="white" transform="translate(170.811 12.5949)"/>
</clipPath>
</defs>
</svg>
