<svg width="142" height="40" viewBox="0 0 142 40" fill="none" xmlns="http://www.w3.org/2000/svg">
<path d="M9.88538e-07 5.65378L6.98841e-06 39.9691L6.88209 39.9691L6.88209 31.6454L12.9731 31.6454L19.7761 31.6454C22.1492 31.6454 27.7024 30.6089 30.9298 26.4628C31.6681 25.5467 33.3979 23.0548 33.7776 20.7305C34.1573 18.4062 33.9358 11.8572 33.9358 11.8572C33.8567 15.8929 33.382 17.4634 31.088 20.5735C29.3855 22.8816 25.7089 25.2374 21.2 25.2064L6.72388 25.2064L6.72387 12.0143L12.9731 12.0143L20.8836 12.0143C22.1229 12.0404 24.6331 12.7681 24.7597 15.4694C24.8862 18.1706 22.3074 19.5526 20.8836 19.5526C24.0477 19.5526 27.531 15.9715 27.1328 11.4646C26.8164 7.88341 23.8104 5.92029 20.8836 5.65377L9.88538e-07 5.65378Z" fill="url(#paint0_linear_172_35212)"/>
<path d="M12.9731 19.5526L12.9731 12.0143L6.72387 12.0143L6.72388 25.2064L12.9731 19.5526Z" fill="url(#paint1_linear_172_35212)"/>
<path d="M6.88209 31.6454L6.88209 39.9691C8.78059 40.2046 12.6567 39.1995 12.9731 33.2945L12.9731 31.6454L6.88209 31.6454Z" fill="url(#paint2_linear_172_35212)"/>
<path d="M33.9358 11.4646C33.7776 8.48066 31.8421 4.61165 28.8731 2.62226C25.7089 0.50209 23.7313 0.187991 20.9206 0.00355611L6.72387 -1.17564e-06L9.88538e-07 5.65378L20.8836 5.65377C23.8104 5.92029 26.8164 7.88341 27.1328 11.4646C27.531 15.9715 24.0477 19.5526 20.8836 19.5526L12.9731 19.5526L6.72388 25.2064L21.2 25.2064C25.7089 25.2374 29.3855 22.8816 31.088 20.5735C33.382 17.4634 33.8567 15.8929 33.9358 11.8572L33.9358 11.4646Z" fill="url(#paint3_linear_172_35212)"/>
<path d="M50 34.6765H53.9173V25.6251C54.9856 26.9012 56.7069 27.5244 59.1107 27.5244C63.8886 27.5244 65.9363 25.1206 65.9363 19.5415C65.9363 16.7222 65.4021 14.7042 64.3337 13.4281C63.2357 12.1817 61.5145 11.5585 59.1107 11.5585C56.7069 11.5585 54.9856 12.1817 53.9173 13.4578V11.8256H50V34.6765ZM54.956 22.8355C54.3031 22.153 53.9766 21.055 53.9766 19.5415C53.9766 16.5441 55.1934 15.2087 58.0126 15.2087C60.7726 15.2087 62.019 16.5441 62.019 19.5415C62.019 21.055 61.6925 22.153 61.0693 22.8355C60.4461 23.5181 59.4074 23.8742 58.0126 23.8742C56.6178 23.8742 55.5792 23.5181 54.956 22.8355Z" fill="white"/>
<path d="M72.639 27.2573V19.5415C72.639 16.4551 73.6183 15.2087 76.0221 15.2087H78.693V11.5585H77.2091C75.1615 11.5585 73.6183 12.1223 72.639 13.2204V11.8256H68.7217V27.2573H72.639Z" fill="white"/>
<path d="M84.753 27.2573V11.8256H80.8357V27.2573H84.753ZM82.7943 5.14838C81.1324 5.14838 80.4202 5.83094 80.4202 7.5225C80.4202 9.18438 81.1324 9.89661 82.7943 9.89661C84.4859 9.89661 85.1684 9.18438 85.1684 7.5225C85.1684 5.83094 84.4859 5.14838 82.7943 5.14838Z" fill="white"/>
<path d="M92.1431 19.5415C92.1431 16.4848 93.2411 15.2087 95.9714 15.2087C98.3752 15.2087 99.4732 16.2177 99.4732 18.5621V27.2573H103.39V18.5621C103.39 13.6655 101.491 11.5585 97.1287 11.5585C94.8437 11.5585 93.1818 12.152 92.1431 13.3688V11.8256H88.2258V27.2573H92.1431V19.5415Z" fill="white"/>
<path d="M111.847 8.47215H107.93V11.8256H105.674V15.4758H107.93V21.8859C107.93 25.6548 109.77 27.2573 114.043 27.2573H116.328V23.6071H114.162C112.5 23.6071 111.847 22.9543 111.847 21.4111V15.4758H116.061V11.8256H111.847V8.47215Z" fill="white"/>
<path d="M122.863 27.2573V25.6251C123.931 26.9012 125.652 27.5244 128.056 27.5244C132.834 27.5244 134.882 25.1503 134.882 19.5415C134.882 16.7519 134.348 14.7339 133.279 13.4578C132.181 12.1817 130.46 11.5585 128.056 11.5585C125.652 11.5585 123.931 12.1817 122.863 13.4578V5H118.946V27.2573H122.863ZM126.958 23.8742C124.139 23.8742 122.922 22.5388 122.922 19.5415C122.922 16.4848 124.139 15.2087 126.958 15.2087C129.777 15.2087 130.965 16.4848 130.965 19.5415C130.965 22.5388 129.718 23.8742 126.958 23.8742Z" fill="white"/>
<path d="M141.585 27.2573V11.8256H137.667V27.2573H141.585ZM139.626 5.14838C137.964 5.14838 137.252 5.83094 137.252 7.5225C137.252 9.18438 137.964 9.89661 139.626 9.89661C141.317 9.89661 142 9.18438 142 7.5225C142 5.83094 141.317 5.14838 139.626 5.14838Z" fill="white"/>
<path d="M122.863 27.2573V25.6251C123.931 26.9012 125.652 27.5244 128.056 27.5244C132.834 27.5244 134.882 25.1503 134.882 19.5415C134.882 16.7519 134.347 14.7339 133.279 13.4578C132.181 12.1817 130.46 11.5585 128.056 11.5585C125.652 11.5585 123.931 12.1817 122.863 13.4578V5H118.945V27.2573H122.863ZM126.958 23.8742C124.139 23.8742 122.922 22.5388 122.922 19.5415C122.922 16.4848 124.139 15.2087 126.958 15.2087C129.777 15.2087 130.964 16.4848 130.964 19.5415C130.964 22.5388 129.718 23.8742 126.958 23.8742Z" fill="url(#paint4_linear_172_35212)"/>
<path d="M141.584 27.2573V11.8256H137.667V27.2573H141.584ZM139.626 5.14838C137.964 5.14838 137.252 5.83094 137.252 7.5225C137.252 9.18438 137.964 9.89661 139.626 9.89661C141.317 9.89661 142 9.18438 142 7.5225C142 5.83094 141.317 5.14838 139.626 5.14838Z" fill="url(#paint5_linear_172_35212)"/>
<defs>
<linearGradient id="paint0_linear_172_35212" x1="23.3358" y1="-4.52349" x2="0.365231" y2="48.6044" gradientUnits="userSpaceOnUse">
<stop stop-color="#02B977"/>
<stop offset="0.522158" stop-color="#9BFFCF"/>
<stop offset="1" stop-color="#B5FFC5"/>
</linearGradient>
<linearGradient id="paint1_linear_172_35212" x1="8.88" y1="9.89411" x2="8.8188" y2="27.7418" gradientUnits="userSpaceOnUse">
<stop stop-color="#31B998"/>
<stop offset="1" stop-color="#3EDE61"/>
</linearGradient>
<linearGradient id="paint2_linear_172_35212" x1="7.40913" y1="30.4516" x2="7.92488" y2="40.0002" gradientUnits="userSpaceOnUse">
<stop stop-color="#19EA9F"/>
<stop offset="1" stop-color="#24BD8F"/>
</linearGradient>
<linearGradient id="paint3_linear_172_35212" x1="9.44" y1="-6.59607" x2="21.7548" y2="25.5189" gradientUnits="userSpaceOnUse">
<stop stop-color="#47BA9E"/>
<stop offset="0.588542" stop-color="#7EFFD1"/>
<stop offset="1" stop-color="#30CC81"/>
</linearGradient>
<linearGradient id="paint4_linear_172_35212" x1="123.969" y1="22.1476" x2="124.211" y2="27.5294" gradientUnits="userSpaceOnUse">
<stop stop-color="#19EA9F"/>
<stop offset="1" stop-color="#24BD8F"/>
</linearGradient>
<linearGradient id="paint5_linear_172_35212" x1="123.969" y1="22.1476" x2="124.211" y2="27.5294" gradientUnits="userSpaceOnUse">
<stop stop-color="#19EA9F"/>
<stop offset="1" stop-color="#24BD8F"/>
</linearGradient>
</defs>
</svg>
