<svg width="156" height="48" viewBox="0 0 156 48" fill="none" xmlns="http://www.w3.org/2000/svg">
<circle opacity="0.2" cx="24" cy="24" r="24" fill="url(#paint0_linear_172_35271)"/>
<path d="M7 9.65378L7.00001 43.9691L13.8821 43.9691L13.8821 35.6454L19.9731 35.6454L26.7761 35.6454C29.1492 35.6454 34.7024 34.6089 37.9298 30.4628C38.6681 29.5467 40.3979 27.0548 40.7776 24.7305C41.1573 22.4062 40.9358 15.8572 40.9358 15.8572C40.8567 19.8929 40.382 21.4634 38.088 24.5735C36.3855 26.8816 32.7089 29.2374 28.2 29.2064L13.7239 29.2064L13.7239 16.0143L19.9731 16.0143L27.8836 16.0143C29.1229 16.0404 31.6331 16.7681 31.7597 19.4694C31.8862 22.1706 29.3074 23.5526 27.8836 23.5526C31.0477 23.5526 34.531 19.9715 34.1328 15.4646C33.8164 11.8834 30.8104 9.92029 27.8836 9.65377L7 9.65378Z" fill="url(#paint1_linear_172_35271)"/>
<path d="M19.9731 23.5526L19.9731 16.0143L13.7239 16.0143L13.7239 29.2064L19.9731 23.5526Z" fill="url(#paint2_linear_172_35271)"/>
<path d="M13.8821 35.6454L13.8821 43.9691C15.7806 44.2046 19.6567 43.1995 19.9731 37.2945L19.9731 35.6454L13.8821 35.6454Z" fill="url(#paint3_linear_172_35271)"/>
<path d="M40.9358 15.4646C40.7776 12.4807 38.8421 8.61165 35.8731 6.62226C32.7089 4.50209 30.7313 4.18799 27.9206 4.00356L13.7239 4L7 9.65378L27.8836 9.65377C30.8104 9.92029 33.8164 11.8834 34.1328 15.4646C34.531 19.9715 31.0477 23.5526 27.8836 23.5526L19.9731 23.5526L13.7239 29.2064L28.2 29.2064C32.7089 29.2374 36.3855 26.8816 38.088 24.5735C40.382 21.4634 40.8567 19.8929 40.9358 15.8572L40.9358 15.4646Z" fill="url(#paint4_linear_172_35271)"/>
<path d="M64 38.6765H67.9173V29.6251C68.9856 30.9012 70.7069 31.5244 73.1107 31.5244C77.8886 31.5244 79.9363 29.1206 79.9363 23.5415C79.9363 20.7222 79.4021 18.7042 78.3337 17.4281C77.2357 16.1817 75.5145 15.5585 73.1107 15.5585C70.7069 15.5585 68.9856 16.1817 67.9173 17.4578V15.8256H64V38.6765ZM68.956 26.8355C68.3031 26.153 67.9766 25.055 67.9766 23.5415C67.9766 20.5441 69.1934 19.2087 72.0126 19.2087C74.7726 19.2087 76.019 20.5441 76.019 23.5415C76.019 25.055 75.6925 26.153 75.0693 26.8355C74.4461 27.5181 73.4074 27.8742 72.0126 27.8742C70.6178 27.8742 69.5792 27.5181 68.956 26.8355Z" fill="#0E0B3D"/>
<path d="M86.639 31.2573V23.5415C86.639 20.4551 87.6183 19.2087 90.0221 19.2087H92.693V15.5585H91.2091C89.1615 15.5585 87.6183 16.1223 86.639 17.2204V15.8256H82.7217V31.2573H86.639Z" fill="#0E0B3D"/>
<path d="M98.753 31.2573V15.8256H94.8357V31.2573H98.753ZM96.7943 9.14838C95.1324 9.14838 94.4202 9.83094 94.4202 11.5225C94.4202 13.1844 95.1324 13.8966 96.7943 13.8966C98.4859 13.8966 99.1684 13.1844 99.1684 11.5225C99.1684 9.83094 98.4859 9.14838 96.7943 9.14838Z" fill="#0E0B3D"/>
<path d="M106.143 23.5415C106.143 20.4848 107.241 19.2087 109.971 19.2087C112.375 19.2087 113.473 20.2177 113.473 22.5621V31.2573H117.39V22.5621C117.39 17.6655 115.491 15.5585 111.129 15.5585C108.844 15.5585 107.182 16.152 106.143 17.3688V15.8256H102.226V31.2573H106.143V23.5415Z" fill="#0E0B3D"/>
<path d="M125.847 12.4721H121.93V15.8256H119.674V19.4758H121.93V25.8859C121.93 29.6548 123.77 31.2573 128.043 31.2573H130.328V27.6071H128.162C126.5 27.6071 125.847 26.9543 125.847 25.4111V19.4758H130.061V15.8256H125.847V12.4721Z" fill="#0E0B3D"/>
<path d="M136.863 31.2573V29.6251C137.931 30.9012 139.652 31.5244 142.056 31.5244C146.834 31.5244 148.882 29.1503 148.882 23.5415C148.882 20.7519 148.348 18.7339 147.279 17.4578C146.181 16.1817 144.46 15.5585 142.056 15.5585C139.652 15.5585 137.931 16.1817 136.863 17.4578V9H132.946V31.2573H136.863ZM140.958 27.8742C138.139 27.8742 136.922 26.5388 136.922 23.5415C136.922 20.4848 138.139 19.2087 140.958 19.2087C143.777 19.2087 144.965 20.4848 144.965 23.5415C144.965 26.5388 143.718 27.8742 140.958 27.8742Z" fill="#0E0B3D"/>
<path d="M155.585 31.2573V15.8256H151.667V31.2573H155.585ZM153.626 9.14838C151.964 9.14838 151.252 9.83094 151.252 11.5225C151.252 13.1844 151.964 13.8966 153.626 13.8966C155.317 13.8966 156 13.1844 156 11.5225C156 9.83094 155.317 9.14838 153.626 9.14838Z" fill="#0E0B3D"/>
<path d="M136.863 31.2573V29.6251C137.931 30.9012 139.652 31.5244 142.056 31.5244C146.834 31.5244 148.882 29.1503 148.882 23.5415C148.882 20.7519 148.347 18.7339 147.279 17.4578C146.181 16.1817 144.46 15.5585 142.056 15.5585C139.652 15.5585 137.931 16.1817 136.863 17.4578V9H132.945V31.2573H136.863ZM140.958 27.8742C138.139 27.8742 136.922 26.5388 136.922 23.5415C136.922 20.4848 138.139 19.2087 140.958 19.2087C143.777 19.2087 144.964 20.4848 144.964 23.5415C144.964 26.5388 143.718 27.8742 140.958 27.8742Z" fill="url(#paint5_linear_172_35271)"/>
<path d="M155.584 31.2573V15.8256H151.667V31.2573H155.584ZM153.626 9.14838C151.964 9.14838 151.252 9.83094 151.252 11.5225C151.252 13.1844 151.964 13.8966 153.626 13.8966C155.317 13.8966 156 13.1844 156 11.5225C156 9.83094 155.317 9.14838 153.626 9.14838Z" fill="url(#paint6_linear_172_35271)"/>
<defs>
<linearGradient id="paint0_linear_172_35271" x1="13.3271" y1="-7.91529" x2="26.3514" y2="32.0441" gradientUnits="userSpaceOnUse">
<stop stop-color="#47BA9E"/>
<stop offset="0.588542" stop-color="#7EFFD1"/>
<stop offset="1" stop-color="#30CC81"/>
</linearGradient>
<linearGradient id="paint1_linear_172_35271" x1="30.3358" y1="-0.523488" x2="7.36523" y2="52.6044" gradientUnits="userSpaceOnUse">
<stop stop-color="#02B977"/>
<stop offset="0.522158" stop-color="#9BFFCF"/>
<stop offset="1" stop-color="#B5FFC5"/>
</linearGradient>
<linearGradient id="paint2_linear_172_35271" x1="15.88" y1="13.8941" x2="15.8188" y2="31.7418" gradientUnits="userSpaceOnUse">
<stop stop-color="#31B998"/>
<stop offset="1" stop-color="#3EDE61"/>
</linearGradient>
<linearGradient id="paint3_linear_172_35271" x1="14.4091" y1="34.4516" x2="14.9249" y2="44.0002" gradientUnits="userSpaceOnUse">
<stop stop-color="#19EA9F"/>
<stop offset="1" stop-color="#24BD8F"/>
</linearGradient>
<linearGradient id="paint4_linear_172_35271" x1="16.44" y1="-2.59607" x2="28.7548" y2="29.5189" gradientUnits="userSpaceOnUse">
<stop stop-color="#47BA9E"/>
<stop offset="0.588542" stop-color="#7EFFD1"/>
<stop offset="1" stop-color="#30CC81"/>
</linearGradient>
<linearGradient id="paint5_linear_172_35271" x1="137.969" y1="26.1476" x2="138.211" y2="31.5294" gradientUnits="userSpaceOnUse">
<stop stop-color="#19EA9F"/>
<stop offset="1" stop-color="#24BD8F"/>
</linearGradient>
<linearGradient id="paint6_linear_172_35271" x1="137.969" y1="26.1476" x2="138.211" y2="31.5294" gradientUnits="userSpaceOnUse">
<stop stop-color="#19EA9F"/>
<stop offset="1" stop-color="#24BD8F"/>
</linearGradient>
</defs>
</svg>
